<svg width="210" height="208" viewBox="0 0 210 208" fill="none" xmlns="http://www.w3.org/2000/svg">
<path d="M143.559 40.149L148.556 46.3557L150.655 48.9759L156.063 55.7205C156.063 55.7205 121.839 83.6853 112.643 93.4984C103.977 102.694 77.3601 130.011 44.036 147.047C36.8656 150.68 31.0484 156.502 27.4339 163.665C26.5826 165.355 25.8414 167.099 25.215 168.885C22.3963 176.855 23.3459 182.215 21.027 187.764C18.848 192.984 11.0317 195.535 5.17453 188.949C3.48196 187.221 2.22028 185.121 1.49112 182.818C0.761958 180.515 0.585694 178.073 0.976526 175.689C2.97557 162.519 20.7171 145.184 32.9113 138.908C47.6143 131.336 72.7123 120.786 95.1516 81.2146L143.559 40.149ZM6.0741 183.161C7.37348 185.761 9.86229 187.146 11.6315 186.279C13.4006 185.413 13.7604 182.573 12.4511 179.973C11.1417 177.373 8.65287 175.988 6.8937 176.855C5.13454 177.722 4.76472 180.561 6.0741 183.161Z" fill="#7B2CBF"/>
<path d="M10.6915 193.393C11.9671 193.707 13.2936 193.757 14.5896 193.542C16.1387 193.295 17.6003 192.663 18.839 191.703C20.0778 190.744 21.0536 189.488 21.6762 188.053C22.7011 185.327 23.35 182.475 23.6053 179.575C23.9821 176.026 24.7428 172.529 25.8742 169.144C26.4945 167.388 27.2222 165.671 28.0532 164.003C31.6129 157.004 37.3061 151.308 44.3154 147.734C58.6386 140.412 73.3016 130.39 88.0246 117.927C96.8293 110.42 105.215 102.438 113.143 94.0165C122.228 84.3927 156.122 56.5773 156.492 56.2983L157.092 55.8102L143.628 39.0432L94.5115 80.6966L94.4415 80.8161C73.6714 117.438 50.8423 128.955 35.7295 136.606L32.5211 138.24C26.1641 141.508 18.6777 147.475 12.5306 154.18C5.53393 161.841 1.11604 169.433 0.206478 175.57C-0.793046 182.354 2.02561 186.529 4.59438 189.458C6.17463 191.36 8.30285 192.734 10.6915 193.393ZM154.953 55.6109C150.365 59.3867 120.529 83.9842 112.053 92.9704C90.4035 115.884 66.0751 134.873 43.6458 146.35C36.3442 150.068 30.4129 155.997 26.7038 163.286C25.8361 165.005 25.0816 166.779 24.4449 168.596C23.2745 172.083 22.4902 175.688 22.106 179.346C21.866 182.111 21.2541 184.832 20.2869 187.435C19.7624 188.626 18.9454 189.667 17.9113 190.461C16.8773 191.255 15.6593 191.777 14.3697 191.978C11.2912 192.486 8.22265 191.221 5.73384 188.411C4.11912 186.767 2.91574 184.766 2.22114 182.571C1.52655 180.376 1.36026 178.05 1.73575 175.779C3.73479 162.569 21.7262 145.513 33.2607 139.565L36.4492 137.941C51.6719 130.28 74.7509 118.654 95.7309 81.6928L143.448 41.2449L154.953 55.6109ZM9.53203 187.206C10.3504 187.424 11.2206 187.34 11.9809 186.967C12.5488 186.66 13.0297 186.215 13.3792 185.673C13.7286 185.132 13.9352 184.511 13.9799 183.869C14.1364 182.405 13.8547 180.928 13.1703 179.624C11.651 176.636 8.74241 175.072 6.56345 176.158C4.38449 177.243 3.87472 180.481 5.394 183.51C5.78414 184.381 6.35436 185.161 7.0674 185.798C7.78045 186.435 8.62027 186.915 9.53203 187.206ZM8.60248 177.443C9.29949 177.68 9.93983 178.058 10.4833 178.554C11.0268 179.049 11.4618 179.651 11.761 180.322C12.3024 181.35 12.5317 182.513 12.4207 183.669C12.403 184.057 12.2898 184.434 12.0911 184.768C11.8924 185.101 11.6142 185.381 11.2812 185.582C9.93184 186.26 7.86282 184.984 6.76335 182.812C5.66387 180.641 5.89377 178.23 7.24312 177.552C7.66934 177.358 8.15048 177.319 8.60248 177.443Z" fill="#240046"/>
<path d="M40.7775 142.952C33.6071 146.585 27.7898 152.408 24.1754 159.57C23.0659 161.663 22.0651 163.811 21.1768 166.006C18.3681 174.026 19.0178 177.901 17.1087 184.686C15.7094 189.667 8.43286 191.191 2.72559 185.682C3.41281 186.834 4.21302 187.915 5.11445 188.91C10.9417 195.495 18.7879 192.944 20.9769 187.714C23.2858 182.175 22.3362 176.865 25.1549 168.845C25.7813 167.059 26.5225 165.316 27.3738 163.625C30.9854 156.461 36.8034 150.637 43.9759 147.007C77.3 129.971 103.947 102.654 112.583 93.4586C121.809 83.6854 156.013 55.6807 156.013 55.6807L152.754 51.616C151.525 52.6122 118.41 79.78 109.365 89.364C100.719 98.6292 74.1016 125.917 40.7775 142.952Z" fill="#240046"/>
<path d="M111.104 92.0837C119.28 83.4163 146.227 61.1102 153.144 55.4216L150.625 52.2933C151.297 52.0332 151.844 51.5272 152.154 50.8787L156.032 55.7205C156.032 55.7205 121.839 83.6853 112.643 93.4984C103.977 102.694 77.3598 130.011 44.0357 147.047C36.8653 150.68 31.048 156.502 27.4336 163.664C26.5822 165.355 25.8411 167.099 25.2146 168.885C22.396 176.855 23.3455 182.215 21.0266 187.764C18.8477 192.984 11.0314 195.535 5.17419 188.949C4.90431 188.641 4.60446 188.302 4.3146 187.953L4.24463 187.863C4.59131 187.763 4.90991 187.584 5.17531 187.341C5.4407 187.097 5.64563 186.795 5.7739 186.459L5.93382 186.658C6.1737 186.957 6.42359 187.256 6.73344 187.604C8.9124 190.065 11.5611 191.181 14.1899 190.753C15.262 190.587 16.275 190.155 17.136 189.497C17.997 188.839 18.6783 187.976 19.1175 186.987C20.0381 184.488 20.6196 181.878 20.8467 179.226C21.2447 175.497 22.0491 171.822 23.2456 168.267C23.9081 166.398 24.6858 164.571 25.5745 162.798C29.3975 155.249 35.5304 149.109 43.0861 145.264C57.2094 138.041 71.7325 128.138 86.2355 115.814C94.9577 108.367 103.26 100.445 111.104 92.0837Z" fill="#E0AAFF"/>
<path d="M6.69353 187.555C6.1126 186.687 5.5852 185.786 5.11428 184.855C4.65936 183.948 4.32342 182.987 4.11476 181.995C3.7592 180.019 3.7592 177.995 4.11476 176.018C4.46733 173.995 5.0232 172.012 5.77397 170.1C6.51362 168.108 7.41319 166.275 8.35275 164.382C7.02048 166.035 5.87416 167.829 4.93437 169.732C3.97124 171.652 3.27196 173.693 2.85537 175.799C2.40142 177.948 2.46305 180.173 3.03527 182.294C3.34657 183.359 3.82566 184.368 4.4546 185.283C5.0981 186.135 5.85082 186.898 6.69353 187.555Z" fill="#240046"/>
<path d="M10.6915 193.393C11.9671 193.707 13.2936 193.757 14.5896 193.542C16.1387 193.295 17.6003 192.663 18.839 191.703C20.0778 190.744 21.0536 189.488 21.6762 188.053C22.7011 185.327 23.35 182.475 23.6053 179.575C23.9821 176.026 24.7428 172.529 25.8742 169.144C26.4945 167.388 27.2222 165.671 28.0532 164.003C31.6129 157.004 37.3061 151.308 44.3154 147.734C58.6386 140.412 73.3016 130.39 88.0246 117.927C96.8293 110.42 105.215 102.438 113.143 94.0165C122.228 84.3927 156.122 56.5773 156.492 56.2983L157.092 55.8102L143.628 39.0432L94.5115 80.6966L94.4415 80.8161C73.6714 117.438 50.8423 128.955 35.7295 136.606L32.5211 138.24C26.1641 141.508 18.6777 147.475 12.5306 154.18C5.53393 161.841 1.11604 169.433 0.206478 175.57C-0.793046 182.354 2.02561 186.529 4.59438 189.458C6.17463 191.36 8.30285 192.734 10.6915 193.393ZM154.953 55.6109C150.365 59.3867 120.529 83.9842 112.053 92.9704C90.4035 115.884 66.0751 134.873 43.6458 146.35C36.3442 150.068 30.4129 155.997 26.7038 163.286C25.8361 165.005 25.0816 166.779 24.4449 168.596C23.2745 172.083 22.4902 175.688 22.106 179.346C21.866 182.111 21.2541 184.832 20.2869 187.435C19.7624 188.626 18.9454 189.667 17.9113 190.461C16.8773 191.255 15.6593 191.777 14.3697 191.978C11.2912 192.486 8.22265 191.221 5.73384 188.411C4.11912 186.767 2.91574 184.766 2.22114 182.571C1.52655 180.376 1.36026 178.05 1.73575 175.779C3.73479 162.569 21.7262 145.513 33.2607 139.565L36.4492 137.941C51.6719 130.28 74.7509 118.654 95.7309 81.6928L143.448 41.2449L154.953 55.6109ZM9.53203 187.206C10.3504 187.424 11.2206 187.34 11.9809 186.967C12.5488 186.66 13.0297 186.215 13.3792 185.673C13.7286 185.132 13.9352 184.511 13.9799 183.869C14.1364 182.405 13.8547 180.928 13.1703 179.624C11.651 176.636 8.74241 175.072 6.56345 176.158C4.38449 177.243 3.87472 180.481 5.394 183.51C5.78414 184.381 6.35436 185.161 7.0674 185.798C7.78045 186.435 8.62027 186.915 9.53203 187.206ZM8.60248 177.443C9.29949 177.68 9.93983 178.058 10.4833 178.554C11.0268 179.049 11.4618 179.651 11.761 180.322C12.3024 181.35 12.5317 182.513 12.4207 183.669C12.403 184.057 12.2898 184.434 12.0911 184.768C11.8924 185.101 11.6142 185.381 11.2812 185.582C9.93184 186.26 7.86282 184.984 6.76335 182.812C5.66387 180.641 5.89377 178.23 7.24312 177.552C7.66934 177.358 8.15048 177.319 8.60248 177.443Z" fill="#240046"/>
<path d="M112.063 74.5198C111.853 74.6593 111.704 74.7688 111.534 74.8983L111.064 75.2769C110.754 75.5359 110.464 75.8049 110.174 76.0839C109.631 76.642 109.12 77.2308 108.645 77.8473C108.525 77.9967 108.405 78.1561 108.295 78.3155L107.945 78.7738C107.735 79.0627 107.496 79.3516 107.256 79.6405C106.766 80.2084 106.256 80.7762 105.736 81.3242C104.737 82.43 103.617 83.5159 102.568 84.6218C101.483 85.7115 100.48 86.8803 99.5693 88.1186C100.568 86.9677 101.65 85.8921 102.808 84.9007C103.947 83.9045 105.107 82.9082 106.256 81.912C106.826 81.3939 107.386 80.9157 107.945 80.3279C108.215 80.049 108.485 79.77 108.745 79.4711L109.135 79.0428C109.255 78.9033 109.375 78.7638 109.505 78.6343C110.011 78.0991 110.549 77.5935 111.114 77.12C111.394 76.8909 111.684 76.6617 111.983 76.4525L112.423 76.1536L112.853 75.9046L112.063 74.5198Z" fill="#240046"/>
<path d="M118.15 80.4475C117.213 80.7649 116.301 81.1512 115.421 81.6032C114.552 82.0576 113.717 82.5736 112.922 83.1474C111.359 84.2802 109.919 85.5723 108.624 87.0029C107.958 87.7135 107.338 88.4408 106.765 89.1846C106.176 89.9318 105.596 90.6691 104.956 91.3664C103.699 92.7782 102.303 94.0599 100.788 95.1921C102.386 94.1651 103.876 92.9802 105.236 91.6554C105.926 90.9978 106.575 90.2805 107.235 89.5832C107.895 88.8858 108.524 88.2083 109.234 87.5906C110.576 86.2955 112.05 85.1435 113.632 84.1536C114.411 83.6649 115.227 83.2353 116.071 82.8684C116.903 82.5064 117.761 82.21 118.64 81.9817L118.15 80.4475Z" fill="#240046"/>
<path d="M79.7886 116.562C79.9547 116.262 80.1383 115.973 80.3383 115.695L80.6581 115.266L81.008 114.828C81.2379 114.539 81.4877 114.26 81.7276 113.981C81.9675 113.702 82.2274 113.413 82.4773 113.144C83.4768 112.029 84.5563 110.943 85.6258 109.867L88.8542 106.599L90.4635 104.985L91.2531 104.158L91.6329 103.74L92.0027 103.301L91.6029 103.7L91.1831 104.088L90.3335 104.846C89.7538 105.334 89.1741 105.842 88.5943 106.31L85.096 109.299C83.9366 110.295 82.7771 111.291 81.6477 112.288C81.3678 112.547 81.0879 112.806 80.8081 113.085C80.5282 113.364 80.2583 113.613 79.9885 113.902L79.5786 114.32L79.1888 114.778C78.9147 115.094 78.661 115.427 78.4292 115.774L79.7886 116.562Z" fill="#240046"/>
<path d="M95.3809 97.2941L92.4324 99.8146L90.963 101.06C90.4733 101.478 89.9635 101.897 89.4937 102.305L88.0145 103.541L86.5352 104.776L85.0459 106.011C84.5461 106.42 84.0463 106.818 83.5166 107.197C84.1223 106.959 84.7045 106.665 85.2558 106.32C85.8155 105.981 86.3652 105.633 86.905 105.264C87.4447 104.895 87.9545 104.507 88.4742 104.118C88.994 103.73 89.4738 103.311 89.9935 102.893C90.9914 102.063 91.9456 101.182 92.8521 100.253C93.767 99.33 94.6122 98.341 95.3809 97.2941Z" fill="#240046"/>
<path d="M74.4514 110.913C76.1481 109.905 77.7535 108.752 79.2492 107.466C80.7458 106.183 82.1675 104.816 83.5071 103.371C84.852 101.934 86.0881 100.398 87.2054 98.7786L88.015 97.5532L88.7646 96.2879L89.4543 95.0028L90.084 93.6777L89.3044 94.9131L88.4848 96.1186L87.6551 97.2742L86.7456 98.4099C85.5038 99.882 84.1683 101.273 82.7475 102.574C81.3363 103.883 79.8513 105.111 78.2996 106.25C76.7703 107.396 75.1911 108.492 73.6318 109.618L74.4514 110.913Z" fill="#240046"/>
<path d="M109.835 70.5447L97.5405 81.3341L110.804 71.7601L109.835 70.5447Z" fill="#240046"/>
<path d="M106.526 84.3826C103.777 86.3751 101.078 88.4871 98.5295 90.7387C97.2368 91.8545 95.9907 93.0201 94.7913 94.2355C94.1816 94.8532 93.6218 95.5008 93.0521 96.1284C92.4824 96.756 91.9126 97.3936 91.3429 98.0113C90.7732 98.629 90.1935 99.2666 89.5937 99.8345C89.4438 99.9739 89.2839 100.113 89.1539 100.213H89.2839C89.3648 100.229 89.4364 100.275 89.4838 100.343C89.5119 100.376 89.5354 100.413 89.5538 100.452C89.5657 100.388 89.5824 100.325 89.6037 100.263C89.7237 99.8843 89.9036 99.4957 90.0635 99.1172C90.7592 97.5871 91.5643 96.1089 92.4724 94.6938C92.7023 94.3351 92.9421 93.9964 93.202 93.6975C93.4619 93.3987 93.7318 93.05 94.0016 92.7013L95.6209 90.7088C96.1406 90.0413 96.6204 89.3638 97.1501 88.6565C97.38 88.2978 97.6199 87.9392 97.8198 87.5606C98.0307 87.1886 98.1793 86.7848 98.2596 86.3651C98.1434 86.7706 97.9611 87.1543 97.7199 87.5008C97.49 87.8595 97.2401 88.1982 96.9802 88.4971C96.4605 89.1646 95.8907 89.8022 95.321 90.4298L93.6118 92.3127C93.322 92.6316 93.0421 92.9404 92.7622 93.309C92.4824 93.6776 92.2225 93.9865 91.9726 94.3053C91.4539 95.0558 90.9768 95.834 90.5433 96.6365C90.1135 97.3837 89.7137 98.1408 89.3439 98.9179C89.1551 99.3136 88.9882 99.7194 88.8441 100.133C88.793 100.261 88.7594 100.395 88.7441 100.532V100.631C88.7441 100.631 88.7441 100.691 88.7441 100.721C88.7605 100.779 88.7877 100.833 88.8241 100.881C88.8877 100.951 88.9715 100.999 89.064 101.02H89.1939H89.3139H89.4038L89.4938 100.96C89.6831 100.826 89.8603 100.676 90.0235 100.512C90.6632 99.9142 91.243 99.2965 91.8227 98.6688C92.4024 98.0412 93.0321 97.2741 93.6518 96.6365C94.2715 95.9989 94.7713 95.3613 95.351 94.7436C96.5004 93.5182 97.7299 92.3426 98.9693 91.177C100.209 90.0114 101.468 88.8856 102.737 87.7599C104.007 86.6341 105.246 85.5183 106.526 84.3826Z" fill="#240046"/>
<path d="M35.3392 145.005C34.2398 145.851 33.1803 146.758 32.1707 147.695C31.1612 148.631 30.1717 149.617 29.2621 150.633C28.3526 151.65 27.443 152.696 26.6134 153.782C25.7615 154.857 24.9993 156 24.3345 157.199C25.1072 156.075 25.9696 155.016 26.9132 154.031C27.8328 153.034 28.8023 152.038 29.8119 151.181C30.8214 150.325 31.8109 149.408 32.9304 148.581C34.0498 147.754 35.0993 146.987 36.2288 146.28L35.3392 145.005Z" fill="#240046"/>
<path d="M27.3241 150.833C26.3232 151.621 25.4085 152.513 24.5954 153.493C24.1756 153.971 23.7958 154.489 23.4059 154.987C23.0161 155.485 22.6763 156.033 22.3365 156.561C22.1565 156.83 21.9966 157.099 21.8367 157.378C21.6768 157.657 21.5068 157.916 21.3569 158.195L20.9071 159.042C20.7572 159.321 20.6173 159.61 20.4873 159.899C19.9328 161.042 19.4909 162.237 19.168 163.465C19.781 162.349 20.4007 161.254 21.0271 160.178C21.3469 159.64 21.6568 159.092 22.0266 158.564C22.3964 158.036 22.6763 157.498 23.0261 156.98C23.376 156.462 23.7058 155.924 24.0256 155.406C24.3455 154.888 24.7253 154.409 25.0851 153.861C25.7948 152.835 26.5444 151.839 27.3241 150.833Z" fill="#240046"/>
<path d="M20.1973 157.946C19.6907 158.506 19.2389 159.113 18.848 159.759C18.4655 160.398 18.1314 161.064 17.8484 161.752C17.5503 162.439 17.3063 163.148 17.1188 163.874C16.9122 164.593 16.7749 165.33 16.709 166.075C17.076 165.429 17.4097 164.764 17.7085 164.083C18.0084 163.415 18.2982 162.738 18.5781 162.09L19.4277 160.098C19.6876 159.4 19.9574 158.663 20.1973 157.946Z" fill="#240046"/>
<path d="M33.0508 140.472C31.0997 141.589 29.2203 142.827 27.4235 144.178C25.6268 145.509 23.9722 147.022 22.4858 148.691C24.1364 147.217 25.9389 145.921 27.8633 144.825C29.7607 143.707 31.727 142.708 33.7505 141.837L33.0508 140.472Z" fill="#240046"/>
<path d="M11.4115 178.578C12.0203 179.269 12.507 180.057 12.8508 180.91C13.0969 181.67 13.1349 182.481 12.9608 183.261C11.2548 183.24 9.59308 183.802 8.25301 184.855C4.59475 187.764 4.48481 193.682 7.99314 198.055C11.5015 202.429 17.3187 203.634 20.9869 200.715C24.6552 197.796 24.6552 191.829 21.1369 187.445C21.1369 187.445 21.5367 186.27 21.8565 185.124C22.0759 184.37 22.2561 183.605 22.3963 182.832C23.1041 183.524 23.7716 184.256 24.3953 185.024C29.5629 191.47 29.3929 200.177 24.0155 204.461C18.6381 208.745 10.0821 206.992 4.9146 200.546C-0.252932 194.1 -0.0830163 185.403 5.29442 181.109C7.26348 179.515 8.86272 178.568 11.4115 178.578Z" fill="#FFC14D"/>
<path d="M13.6904 207.161C15.5314 207.666 17.4645 207.74 19.3389 207.377C21.2132 207.014 22.978 206.224 24.4953 205.069C30.2026 200.516 30.4325 191.311 25.0051 184.546C24.3824 183.755 23.7149 183 23.006 182.284L21.9065 181.169L21.6766 182.723C21.55 183.463 21.3798 184.195 21.1669 184.915C20.977 185.602 20.7471 186.289 20.5972 186.738C20.3972 187.365 20.3173 187.604 20.5972 187.933C22.1533 189.822 23.014 192.184 23.036 194.628C23.0654 195.67 22.8577 196.705 22.4284 197.656C21.9991 198.607 21.3594 199.448 20.5572 200.117C17.2487 202.757 11.9113 201.612 8.67284 197.577C7.12156 195.705 6.27643 193.35 6.28397 190.922C6.27017 189.882 6.49011 188.851 6.92768 187.907C7.36524 186.962 8.00935 186.127 8.81277 185.463C10.013 184.519 11.5024 184.016 13.0308 184.038H13.6405L13.7804 183.45C13.9975 182.516 13.9491 181.539 13.6405 180.631C13.2649 179.685 12.7271 178.812 12.0512 178.05L11.8213 177.811H11.4815C8.77279 177.811 6.99364 178.808 4.84466 180.521C-0.862617 185.064 -1.09251 194.269 4.3349 201.044C6.69636 204.05 9.9835 206.199 13.6904 207.161ZM22.8761 184.436C23.1759 184.775 23.4758 185.114 23.7856 185.512C28.6833 191.609 28.5633 199.838 23.5257 203.853C18.4881 207.868 10.412 206.165 5.53433 200.058C0.656653 193.951 0.756608 185.731 5.79421 181.717C7.66331 180.232 9.03267 179.435 11.1017 179.365C11.549 179.916 11.9096 180.53 12.1712 181.189C12.3186 181.614 12.3731 182.066 12.3311 182.514C10.6841 182.624 9.10911 183.228 7.81325 184.247C6.83248 185.055 6.04462 186.071 5.50692 187.22C4.96922 188.37 4.69519 189.624 4.70473 190.892C4.69668 193.681 5.66127 196.385 7.43342 198.543C11.2116 203.256 17.5286 204.521 21.5167 201.323C22.4893 200.506 23.2642 199.48 23.7834 198.322C24.3026 197.165 24.5528 195.905 24.5153 194.638C24.5025 191.98 23.614 189.401 21.9865 187.296V187.236C22.1264 186.797 22.3663 186.06 22.5662 185.343C22.6462 185.031 22.7361 184.729 22.8361 184.436H22.8761Z" fill="#240046"/>
<path d="M9.32275 202.12C10.4553 202.977 11.717 203.649 13.061 204.112C13.734 204.348 14.4263 204.524 15.13 204.64C15.4806 204.7 15.8344 204.74 16.1895 204.76H16.7292H17.269C17.9909 204.74 18.7084 204.64 19.4079 204.461C19.7479 204.377 20.0819 204.271 20.4075 204.142C20.5774 204.082 20.7373 203.993 20.9072 203.923C21.0751 203.857 21.2386 203.78 21.397 203.694C21.7197 203.523 22.0303 203.33 22.3266 203.116C22.6315 202.91 22.922 202.684 23.1961 202.439C23.7359 201.942 24.2186 201.387 24.6355 200.785C25.4525 199.558 26.0102 198.179 26.2747 196.73C26.5246 195.279 26.5246 193.797 26.2747 192.347C25.748 189.427 24.3796 186.723 22.3366 184.566L21.2171 185.652C23.1668 187.528 24.5249 189.931 25.1252 192.566C25.4047 193.875 25.4588 195.223 25.2851 196.551C25.1044 197.888 24.6484 199.173 23.9458 200.327C23.5982 200.905 23.1784 201.437 22.6964 201.911C22.4565 202.151 22.1992 202.375 21.9267 202.578C21.6613 202.788 21.3806 202.977 21.0871 203.146C20.9427 203.238 20.7925 203.322 20.6374 203.395C20.4774 203.465 20.3375 203.554 20.1776 203.614C19.8537 203.755 19.5196 203.872 19.1781 203.963C18.5287 204.166 17.8579 204.293 17.179 204.341H16.6593H16.1395C15.7897 204.341 15.4498 204.341 15.14 204.272C14.4629 204.189 13.7941 204.049 13.1409 203.853C11.7856 203.477 10.4974 202.892 9.32275 202.12Z" fill="#240046"/>
<path d="M15.2095 184.526C15.5419 184.26 15.8058 183.918 15.9791 183.53C16.1678 183.164 16.3282 182.784 16.4589 182.394C16.7133 181.624 16.9038 180.834 17.0286 180.033C17.1585 179.238 17.2386 178.436 17.2685 177.632C17.3117 176.827 17.285 176.021 17.1885 175.221C16.9686 175.998 16.8087 176.785 16.6688 177.572C16.5289 178.359 16.3889 179.136 16.259 179.913C16.129 180.69 16.0091 181.467 15.8692 182.245C15.7992 182.623 15.7292 183.012 15.6293 183.39C15.5469 183.788 15.4054 184.17 15.2095 184.526Z" fill="#240046"/>
<path d="M5.27441 174.524C6.09326 173.497 6.83493 172.411 7.49336 171.276C7.66328 170.997 7.8232 170.718 7.97312 170.429C8.12305 170.14 8.28298 169.851 8.4329 169.552C8.73276 168.974 9.00263 168.377 9.2825 167.789C9.56236 167.201 9.80225 166.583 10.0521 165.986C10.302 165.388 10.5319 164.77 10.7518 164.163C10.9717 163.555 11.2016 162.947 11.4515 162.349C11.6718 161.741 11.9673 161.162 12.331 160.626C11.8379 161.07 11.4254 161.596 11.1116 162.18C10.7718 162.748 10.4719 163.336 10.1921 163.923C9.9122 164.511 9.64233 165.109 9.37246 165.697L8.57284 167.47C8.31296 168.068 8.04309 168.656 7.77322 169.233C7.50335 169.811 7.22349 170.409 6.95361 170.997C6.40388 172.172 5.82415 173.348 5.27441 174.524Z" fill="#240046"/>
<path d="M10.2918 169.443C10.008 169.659 9.75568 169.914 9.5422 170.2C9.33337 170.484 9.14627 170.784 8.98247 171.097C8.81413 171.415 8.67689 171.748 8.57266 172.093C8.45344 172.414 8.37617 172.748 8.34277 173.089C8.56192 172.816 8.7591 172.526 8.93249 172.222C9.1124 171.923 9.28232 171.625 9.44225 171.316C9.60217 171.007 9.7421 170.698 9.89203 170.389C10.042 170.08 10.1719 169.781 10.2918 169.443Z" fill="#240046"/>
<path d="M171.545 44.6814L158.442 28.3378L160.675 26.559C161.984 25.5165 163.654 25.035 165.319 25.2202C166.984 25.4055 168.507 26.2425 169.553 27.547L174.776 34.0611C175.819 35.3659 176.299 37.0298 176.112 38.6875C175.925 40.3452 175.086 41.8612 173.779 42.9026L171.514 44.7063L171.545 44.6814Z" fill="#FFC14D"/>
<path d="M171.424 45.7579L175.202 42.7692C175.812 42.2846 176.32 41.685 176.698 41.0046C177.075 40.3242 177.314 39.5764 177.401 38.8039C177.489 38.0313 177.422 37.2492 177.206 36.5023C176.99 35.7553 176.628 35.0581 176.142 34.4505L169.465 26.1318C168.473 24.9191 167.042 24.1427 165.482 23.9695C163.921 23.7963 162.355 24.2399 161.119 25.2052L157.341 28.194L171.424 45.7579ZM165.877 25.5739C166.815 25.7979 167.65 26.3316 168.246 27.0882L174.922 35.4069C175.646 36.3125 175.979 37.467 175.85 38.6174C175.721 39.7677 175.139 40.8201 174.233 41.5438L171.674 43.5363L159.53 28.4431L162.099 26.4007C162.547 26.0414 163.062 25.7744 163.614 25.6153C164.167 25.4563 164.746 25.4083 165.317 25.4742C165.506 25.4929 165.693 25.5262 165.877 25.5739Z" fill="#240046"/>
<path d="M169.754 47.6805L155.09 29.3913L157.354 27.5876C158.663 26.5451 160.334 26.0635 161.999 26.2488C163.664 26.4341 165.187 27.271 166.233 28.5756L172.997 37.012C174.043 38.3165 174.526 39.9817 174.34 41.6412C174.154 43.3008 173.315 44.8188 172.006 45.8613L169.741 47.665L169.754 47.6805Z" fill="#FFC14D"/>
<path d="M169.615 48.8164L173.394 45.8276C174.61 44.8383 175.389 43.4129 175.563 41.8575C175.737 40.3021 175.292 38.7407 174.323 37.5089L166.127 27.1977C165.136 25.9835 163.707 25.2052 162.146 25.0301C160.585 24.855 159.018 25.297 157.781 26.2612L154.003 29.2499L169.615 48.8164ZM162.509 26.6896C163.449 26.9152 164.287 27.4483 164.888 28.2039L173.104 38.4553C173.465 38.9021 173.734 39.4156 173.895 39.9664C174.057 40.5172 174.107 41.0943 174.044 41.6646C173.981 42.235 173.805 42.7872 173.527 43.2896C173.249 43.792 172.874 44.2347 172.424 44.5922L169.855 46.6346L156.192 29.5189L158.751 27.4766C159.275 27.0595 159.888 26.7681 160.543 26.6247C161.198 26.4813 161.878 26.4899 162.529 26.6497L162.509 26.6896Z" fill="#240046"/>
<path d="M86.5947 118.146C87.4943 119.67 83.946 121.832 83.3463 121.892C82.3467 123.515 80.7475 125.04 79.2282 124.801C77.9788 127.082 75.7599 128.786 74.0607 128.626C73.2311 130.28 68.8032 132.312 68.8032 132.312C68.8032 132.312 66.3044 135.221 64.1554 135.441C64.0221 135.913 63.7273 136.324 63.3221 136.602C62.9168 136.88 62.4267 137.009 61.9365 136.965C61.1269 138.18 58.2082 139.266 58.2082 139.266C57.0388 141.109 54.2101 141.597 54.2101 141.597C54.2101 141.597 52.2111 143.72 50.352 143.431C49.6787 144.187 48.8586 144.799 47.9412 145.231C47.0238 145.662 46.0282 145.904 45.0145 145.941C44.4122 146.861 43.4719 147.508 42.3958 147.744C41.5002 149.065 40.1542 150.018 38.6076 150.424C35.609 149.647 30.3715 142.743 31.1611 138.758C31.7609 137.832 34.1597 136.198 35.1592 136.337C35.8189 135.122 38.7175 133.837 39.1573 133.767C40.378 132.57 41.8847 131.702 43.5352 131.246C43.5352 130.35 44.9746 129.254 48.203 127.879C49.0026 127.879 50.402 127.102 50.412 126.704C50.422 126.305 52.8508 124.462 54.6399 123.784C54.6399 122.928 58.638 120.218 59.9574 120.128C60.847 119.022 63.2658 116.861 64.3653 116.89C64.9576 115.936 65.8503 115.204 66.9041 114.808C67.6537 113.633 70.2725 111.411 71.5719 111.092C72.3515 109.478 74.3605 107.326 75.3501 107.037C75.8498 109.678 79.0883 115.565 86.5947 118.146Z" fill="#FFC14D"/>
<path d="M85.4661 119.042L81.9378 117.269C81.2186 117.588 80.4055 117.627 79.6589 117.379C80.0551 118.091 80.5276 118.76 81.0682 119.371C80.2791 120.109 79.2884 120.597 78.221 120.775C77.1537 120.952 76.0576 120.81 75.0711 120.367L77.26 123.097C77.26 123.097 70.7431 124.97 67.9645 121.473L66.9649 122.151L70.6632 126.524L69.2438 126.843L67.7446 126.036C66.6963 127.135 65.3595 127.918 63.8864 128.297C62.7259 128.438 61.5567 128.495 60.3881 128.467L63.5266 130.698L61.0777 132.352C61.0777 132.352 58.6189 133.926 54.4009 131.356L57.6993 134.504L55.3904 135.122L55.7803 136.118C55.7803 136.118 53.5413 137.981 49.8531 135.69L51.6123 138.848L49.3633 138.35C49.3633 138.35 46.5846 140.143 44.1458 138.579C44.8454 139.261 45.6278 139.853 46.4747 140.342C45.6434 140.939 44.7717 141.479 43.8659 141.956C42.1468 142.952 40.7574 141.578 40.5275 141.737C40.4576 141.737 42.6165 143.44 42.5266 143.49C40.6575 144.805 38.6884 145.961 37.1691 146.11C35.6499 146.26 33.9607 143.54 33.9007 143.61C32.1915 145.602 38.3886 149 38.3886 149L49.963 142.265L55.4804 139.834L59.8583 136.995L64.746 134.006L68.984 130.957L74.7112 127.331L77.4899 125.339L80.4885 122.918L84.4866 119.929L85.4661 119.042Z" fill="#240046"/>
<path d="M77.8996 125.986L78.7092 124.661C75.5607 122.758 70.773 114.858 71.4527 111.77L69.9234 111.441C69.0938 115.227 74.1514 123.715 77.8996 125.986Z" fill="#FEF7FF"/>
<path d="M74.5205 110.066C74.0224 110.615 73.5958 111.224 73.2511 111.879C73.1362 112.124 72.9682 112.341 72.759 112.513C72.5498 112.685 72.3048 112.809 72.0417 112.875C70.662 113.587 69.4492 114.582 68.4834 115.794C68.249 116.155 67.8954 116.423 67.4838 116.552C66.9421 116.774 66.4571 117.114 66.0645 117.548C65.9339 117.868 65.7136 118.143 65.4299 118.341C65.1462 118.539 64.8113 118.651 64.4653 118.664C63.2911 119.327 62.248 120.198 61.3867 121.234C61.2336 121.425 61.0428 121.583 60.8262 121.697C60.6097 121.812 60.3718 121.882 60.1273 121.902C58.7328 122.46 57.4599 123.282 56.3791 124.322C56.2938 124.578 56.1527 124.811 55.966 125.006C55.7794 125.201 55.5518 125.352 55.2996 125.448C54.1318 125.946 53.0466 126.618 52.0812 127.441C51.5414 128.686 49.8023 129.433 48.6928 129.593C46.204 130.659 45.5043 131.326 45.3444 131.515C45.2731 131.889 45.0864 132.231 44.8104 132.494C44.5344 132.756 44.1829 132.926 43.8051 132.98C42.6306 133.362 41.5483 133.983 40.6266 134.803C40.3575 135.153 39.9705 135.393 39.5371 135.48C38.5051 135.849 37.5546 136.414 36.7385 137.144C36.5735 137.448 36.3251 137.698 36.0223 137.866C35.7195 138.033 35.375 138.111 35.0293 138.091C34.2321 138.414 33.5031 138.884 32.8803 139.475C33.0423 141.395 33.7534 143.227 34.9293 144.756C35.8718 146.256 37.1345 147.532 38.6276 148.492C39.5188 148.157 40.286 147.559 40.8265 146.778C40.9487 146.565 41.1155 146.381 41.3156 146.238C41.5157 146.096 41.7444 145.998 41.986 145.951C42.5341 145.833 43.0248 145.531 43.3753 145.094C43.5359 144.781 43.7834 144.521 44.0882 144.345C44.393 144.168 44.7423 144.082 45.0945 144.098C46.6014 143.991 48.0054 143.296 49.0026 142.165C49.2042 141.945 49.458 141.778 49.7409 141.681C50.0238 141.583 50.3267 141.558 50.6219 141.607C51.4961 141.446 52.2892 140.993 52.8708 140.322C53.1391 140.043 53.4888 139.855 53.8703 139.784C54.9492 139.606 55.9358 139.069 56.669 138.26C56.883 137.928 57.1983 137.673 57.5685 137.533C58.61 137.191 59.5743 136.649 60.4072 135.939C60.5972 135.651 60.8655 135.424 61.1805 135.282C61.4956 135.141 61.8445 135.092 62.1864 135.142C62.259 135.1 62.3262 135.05 62.3863 134.992C62.4718 134.626 62.6701 134.296 62.9532 134.048C63.2364 133.799 63.5903 133.645 63.9655 133.607C64.965 133.508 66.5942 132.053 67.4139 131.107C67.5835 130.907 67.795 130.748 68.0336 130.639C70.0326 129.722 72.1216 128.367 72.4315 127.779C72.593 127.454 72.8492 127.185 73.1667 127.007C73.4841 126.83 73.8479 126.751 74.2106 126.783C74.9403 126.843 76.5895 125.787 77.619 123.894C77.7995 123.567 78.0768 123.304 78.4131 123.14C78.7494 122.976 79.1283 122.919 79.4981 122.977C79.8779 123.037 80.9074 122.33 81.787 120.905C81.915 120.698 82.0837 120.519 82.283 120.379C82.4822 120.238 82.7079 120.14 82.9464 120.088C83.4432 119.842 83.9067 119.534 84.3258 119.172C81.4877 117.949 78.968 116.095 76.9593 113.752C75.989 112.618 75.1662 111.366 74.5105 110.026L74.5205 110.066ZM75.39 107.077C75.8498 109.717 79.0883 115.625 86.5947 118.185C87.4943 119.71 83.946 121.872 83.3463 121.931C82.3467 123.555 80.7475 125.08 79.2282 124.84C77.9788 127.122 75.7599 128.825 74.0607 128.666C73.2311 130.32 68.8032 132.352 68.8032 132.352C68.8032 132.352 66.3044 135.261 64.1554 135.48C64.0221 135.953 63.7273 136.364 63.3221 136.642C62.9168 136.92 62.4267 137.049 61.9365 137.005C61.1269 138.22 58.2082 139.306 58.2082 139.306C57.0388 141.149 54.2101 141.637 54.2101 141.637C54.2101 141.637 52.2111 143.759 50.352 143.47C49.6787 144.227 48.8586 144.839 47.9412 145.27C47.0238 145.702 46.0282 145.944 45.0145 145.981C44.4122 146.901 43.4719 147.548 42.3958 147.784C41.5002 149.105 40.1542 150.057 38.6076 150.464C35.609 149.687 30.3715 142.783 31.1611 138.798C31.7609 137.871 34.1597 136.238 35.1592 136.377C35.8189 135.162 38.7175 133.876 39.1573 133.807C40.378 132.609 41.8847 131.742 43.5352 131.286C43.5352 130.39 44.9746 129.294 48.203 127.919C49.0026 127.919 50.402 127.142 50.412 126.743C50.422 126.345 52.8508 124.502 54.6399 123.824C54.6399 122.968 58.638 120.258 59.9574 120.168C60.847 119.062 63.2658 116.9 64.3653 116.93C64.9576 115.976 65.8503 115.244 66.9041 114.848C67.6537 113.672 70.2725 111.451 71.5719 111.132C72.3515 109.518 74.3605 107.366 75.3501 107.077H75.39Z" fill="#FEF7FF"/>
<path d="M82.2173 123.017L83.2168 121.802C81.1578 120.188 75.6404 112.118 75.5505 107.536H73.9912C74.0612 112.746 79.8784 121.184 82.2173 123.017Z" fill="#FEF7FF"/>
<path d="M79.1884 125.239L80.128 123.685C76.7496 121.643 72.3117 113.782 72.9314 110.943L71.1622 110.584C70.3126 114.38 75.4102 122.948 79.1884 125.239Z" fill="#FEF7FF"/>
<path d="M49.8831 142.972C49.2625 142.993 48.6449 142.877 48.074 142.634C47.4445 142.371 46.8475 142.036 46.2948 141.637C45.7215 141.231 45.1802 140.781 44.6756 140.292C44.1538 139.808 43.6662 139.289 43.2163 138.738C43.5661 139.367 43.9567 139.973 44.3858 140.551C44.8107 141.145 45.2819 141.705 45.7951 142.225C46.3155 142.768 46.8994 143.246 47.5343 143.65C48.2202 144.094 48.994 144.386 49.8032 144.506L49.8831 142.972Z" fill="#FEF7FF"/>
<path d="M55.2102 140.472C54.6345 139.978 54.0966 139.442 53.6009 138.868C53.0632 138.266 52.5561 137.637 52.0817 136.985C51.5919 136.317 51.0822 135.63 50.6923 134.923C50.2327 134.214 49.8283 133.471 49.4829 132.701C49.5402 133.566 49.7081 134.419 49.9827 135.241C50.2562 136.072 50.5903 136.881 50.9822 137.662C51.3586 138.46 51.8104 139.221 52.3316 139.934C52.8809 140.695 53.5904 141.327 54.4106 141.787L55.2102 140.472Z" fill="#FEF7FF"/>
<path d="M58.4688 139.475L59.2384 138.13C57.4093 137.134 56.1099 133.647 56.3798 131.675L54.8305 131.465C54.5006 133.906 56.0399 138.041 58.4688 139.475Z" fill="#FEF7FF"/>
<path d="M76.03 122.619C75.818 122.651 75.6023 122.651 75.3903 122.619C75.1459 122.604 74.9024 122.578 74.6606 122.539C74.1227 122.424 73.5921 122.278 73.0714 122.101C72.5417 121.931 72.0219 121.732 71.5022 121.513C70.9762 121.302 70.4623 121.063 69.9629 120.796C70.3926 121.172 70.843 121.525 71.3122 121.852C71.772 122.19 72.2518 122.509 72.7416 122.848C73.2426 123.154 73.7598 123.434 74.2908 123.685C74.5708 123.811 74.8578 123.921 75.1504 124.014L75.3903 124.093H75.6402C75.8217 124.128 76.0054 124.151 76.1899 124.163L76.03 122.619Z" fill="#FEF7FF"/>
<path d="M73.5518 128.905C73.8802 128.989 74.2142 129.049 74.5513 129.084C74.7855 129.113 75.0216 129.048 75.2086 128.905C75.3955 128.761 75.5184 128.55 75.5508 128.317C75.5757 128.092 75.5159 127.865 75.383 127.681C75.2501 127.497 75.0535 127.369 74.8311 127.321C72.2524 126.833 67.4347 121.344 65.8354 116.213L64.0963 116.741C65.1034 119.733 66.6854 122.501 68.754 124.89C65.4356 123.007 62.1272 120.507 61.3276 119.232L59.7783 120.228C61.3076 122.539 69.0139 127.799 73.5518 128.905Z" fill="#FEF7FF"/>
<path d="M72.2023 129.832C72.5307 129.916 72.8647 129.975 73.2018 130.011C73.3996 130.028 73.5965 129.97 73.7524 129.847C73.9083 129.725 74.0114 129.547 74.0407 129.352C74.07 129.156 74.0233 128.957 73.9102 128.794C73.797 128.631 73.6259 128.518 73.4317 128.477C70.813 127.979 65.9553 122.449 64.366 117.279L62.8768 117.727C63.9582 120.935 65.6976 123.883 67.9843 126.385C64.446 124.452 60.7278 121.702 59.8682 120.327L58.5488 121.154C60.0281 123.535 67.6645 128.736 72.2023 129.832Z" fill="#FEF7FF"/>
<path d="M65.236 134.185C64.6225 133.922 64.0421 133.587 63.5068 133.189C62.9367 132.782 62.3987 132.333 61.8976 131.844C61.395 131.348 60.9306 130.815 60.5082 130.25C60.0769 129.68 59.7735 129.024 59.6187 128.327C59.651 129.063 59.8419 129.784 60.1784 130.439C60.4965 131.106 60.8746 131.743 61.3078 132.342C61.7362 132.952 62.2107 133.528 62.7272 134.066C63.2627 134.631 63.8594 135.136 64.5063 135.57L65.236 134.185Z" fill="#FEF7FF"/>
<path d="M62.227 137.204H62.3869L62.7068 135.69C59.0785 134.913 53.5312 128.238 51.712 125.727L50.4526 126.644C50.6725 127.052 57.2994 135.999 62.227 137.204Z" fill="#FEF7FF"/>
<path d="M57.1495 140.472L57.9291 139.127C56.09 138.081 54.8006 134.644 55.0605 132.671L53.5212 132.462C53.1814 134.952 54.7306 139.087 57.1495 140.472Z" fill="#FEF7FF"/>
<path d="M51.3425 141.946C50.6325 141.835 49.9312 141.676 49.2435 141.468C48.8936 141.368 48.5538 141.239 48.244 141.119C47.9341 141 47.5543 140.85 47.2444 140.691C46.5595 140.397 45.8921 140.065 45.2454 139.695C44.6032 139.313 43.9886 138.887 43.4062 138.419C43.9072 138.985 44.4448 139.518 45.0155 140.013C45.5958 140.511 46.2031 140.977 46.8346 141.408C47.1445 141.627 47.4743 141.827 47.8341 142.026C48.194 142.225 48.5038 142.414 48.8337 142.584C49.5332 142.942 50.2581 143.248 51.0026 143.5L51.3425 141.946Z" fill="#FEF7FF"/>
<path d="M45.2352 145.991L45.625 146.071L45.8949 144.546C42.4465 143.929 37.7788 139.027 36.5294 135.58L35.0601 136.108C36.2895 139.475 41.0272 144.965 45.2352 145.991Z" fill="#FEF7FF"/>
<path d="M69.3235 130.639C69.1405 130.686 68.9527 130.713 68.7637 130.718C68.5307 130.733 68.297 130.733 68.064 130.718C67.5662 130.671 67.072 130.591 66.5848 130.479C65.5709 130.25 64.5699 129.968 63.5862 129.632C62.5867 129.304 61.5871 128.935 60.5876 128.537C59.6053 128.146 58.6444 127.704 57.709 127.212C58.5704 127.836 59.4645 128.415 60.3877 128.945C61.3073 129.483 62.2468 129.991 63.2064 130.469C64.1826 130.959 65.1834 131.398 66.2049 131.784C66.7287 131.979 67.2626 132.145 67.8042 132.282C68.4218 132.453 69.0658 132.507 69.7033 132.442L69.3235 130.639Z" fill="#FEF7FF"/>
<path d="M68.2438 132.711C68.0547 132.735 67.8632 132.735 67.6741 132.711C67.4642 132.711 67.2343 132.631 66.9944 132.561C66.5123 132.422 66.0384 132.256 65.5751 132.063C64.615 131.659 63.6774 131.203 62.7664 130.698C61.8469 130.2 60.9373 129.702 60.0377 129.104C59.141 128.545 58.2737 127.939 57.439 127.291C58.1761 128.056 58.9535 128.781 59.7679 129.463C60.5775 130.16 61.4171 130.828 62.2767 131.456C63.1412 132.105 64.0386 132.711 64.9654 133.269C65.4469 133.552 65.9441 133.808 66.4547 134.036C67.03 134.318 67.6544 134.487 68.2938 134.534L68.2438 132.711Z" fill="#FEF7FF"/>
<path d="M54.1208 141.996C53.5427 141.505 53.0047 140.968 52.5116 140.392C51.9918 139.794 51.5121 139.167 50.9923 138.499C50.4726 137.832 49.9928 137.154 49.593 136.437C49.1404 135.729 48.7395 134.99 48.3936 134.225C48.4508 135.09 48.6187 135.944 48.8933 136.766C49.1688 137.592 49.5028 138.398 49.8928 139.177C50.2669 139.979 50.7189 140.743 51.2422 141.458C51.7919 142.216 52.5015 142.845 53.3212 143.301L54.1208 141.996Z" fill="#FEF7FF"/>
<path d="M49.8029 139.475C49.969 139.527 50.1444 139.543 50.317 139.52C50.4896 139.498 50.6553 139.439 50.8025 139.346L49.9928 138.021C50.0536 137.977 50.1279 137.956 50.2027 137.961C49.3831 137.852 46.2046 134.654 43.7358 131.755L42.5464 132.751C42.5464 132.751 44.0956 134.574 45.7649 136.268C47.8139 138.479 49.0033 139.316 49.8029 139.475Z" fill="#FEF7FF"/>
<path d="M38.3983 151.181C38.5164 151.211 38.6401 151.211 38.7581 151.181C40.4037 150.751 41.8529 149.774 42.8662 148.412C43.8769 148.124 44.7739 147.533 45.4349 146.718C47.4114 146.527 49.2563 145.645 50.6425 144.228C52.1405 144.083 53.5356 143.404 54.5706 142.315C56.186 141.999 57.6474 141.15 58.7186 139.904C60.0333 139.421 61.2441 138.694 62.2869 137.762C62.7948 137.734 63.2855 137.569 63.7062 137.284C64.1354 136.988 64.4799 136.587 64.7058 136.118C66.7048 135.63 68.7039 133.548 69.2436 132.95C70.0632 132.561 73.2417 130.957 74.4511 129.403C76.2303 129.284 78.2893 127.779 79.6287 125.608C81.2679 125.538 82.8171 124.073 83.8167 122.549C85.2052 121.961 86.3853 120.972 87.205 119.71C87.3805 119.407 87.4729 119.063 87.4729 118.714C87.4729 118.364 87.3805 118.02 87.205 117.717C87.1056 117.558 86.9536 117.438 86.7752 117.379C79.0889 114.758 76.4202 108.761 76.0903 106.868C76.0707 106.76 76.0285 106.657 75.9665 106.566C75.9046 106.475 75.8242 106.398 75.7305 106.34C75.6361 106.286 75.5318 106.251 75.4237 106.237C75.3156 106.223 75.2058 106.231 75.1008 106.26C73.8614 106.619 71.9023 108.761 70.9928 110.425C69.1968 111.308 67.6197 112.577 66.375 114.141C65.3666 114.569 64.4904 115.257 63.8362 116.133C62.3569 116.522 60.3478 118.425 59.5182 119.371C57.959 119.75 54.8105 121.732 54.0109 123.147C52.7115 123.735 50.0128 125.359 49.6529 126.415C49.2265 126.758 48.7158 126.981 48.1736 127.062C48.0707 127.07 47.9695 127.093 47.8738 127.132C44.8752 128.377 43.3259 129.463 42.8762 130.569C41.3202 131.092 39.8929 131.937 38.6882 133.05C37.1798 133.56 35.8111 134.412 34.6901 135.54C33.0092 135.984 31.5141 136.951 30.4221 138.3C30.3684 138.381 30.3342 138.473 30.3221 138.569C29.4226 143.072 35.0199 150.295 38.3183 151.142L38.3983 151.181ZM83.2369 121.124C83.1246 121.141 83.0173 121.181 82.9223 121.243C82.8274 121.305 82.7471 121.387 82.6872 121.483C81.8276 122.888 80.4583 124.213 79.3488 124.034C79.1905 124.009 79.0283 124.034 78.885 124.105C78.7416 124.177 78.6242 124.291 78.5492 124.432C77.4497 126.425 75.4706 127.959 74.1313 127.849C73.9758 127.834 73.8195 127.867 73.6836 127.944C73.5476 128.02 73.4387 128.137 73.3716 128.278C72.8519 129.274 70.0932 130.868 68.474 131.615C68.3712 131.657 68.2815 131.726 68.2141 131.814C67.5744 132.551 65.5853 134.514 64.0761 134.664C63.9098 134.68 63.7535 134.751 63.6308 134.864C63.5082 134.977 63.4259 135.127 63.3964 135.291C63.3027 135.585 63.1033 135.833 62.8367 135.989C62.7341 136.072 62.6159 136.135 62.4889 136.172C62.3619 136.21 62.2287 136.222 62.097 136.208C61.9445 136.173 61.7849 136.186 61.64 136.244C61.4951 136.303 61.3719 136.405 61.2874 136.536C60.3322 137.439 59.1888 138.119 57.939 138.529C57.782 138.588 57.6486 138.696 57.5592 138.838C56.5596 140.362 54.0808 140.83 54.0508 140.83C53.8849 140.854 53.7327 140.935 53.621 141.059C53.1413 141.558 51.622 142.843 50.4625 142.653C50.3352 142.634 50.2051 142.646 50.0833 142.688C49.9615 142.729 49.8516 142.8 49.7629 142.893C49.1644 143.563 48.4382 144.108 47.6266 144.496C46.8151 144.884 45.9342 145.108 45.0351 145.154C44.8848 145.147 44.7356 145.183 44.6059 145.259C44.4762 145.335 44.3718 145.448 44.3055 145.582C43.8045 146.29 43.0554 146.784 42.2065 146.967C42.1035 146.991 42.0064 147.035 41.9206 147.097C41.8348 147.158 41.7621 147.236 41.7067 147.326C40.9654 148.425 39.8625 149.232 38.5882 149.607C35.9695 148.711 31.3417 142.584 31.8814 139.057C32.7226 138.097 33.8277 137.405 35.0599 137.065C35.2168 137.089 35.3773 137.063 35.519 136.992C35.6606 136.92 35.7762 136.806 35.8495 136.666C36.3293 135.799 38.8481 134.594 39.3279 134.494C39.4252 134.479 39.5186 134.445 39.6026 134.393C39.6866 134.342 39.7597 134.275 39.8176 134.195C40.9094 133.171 42.2226 132.411 43.6558 131.974C43.8364 131.95 44.0036 131.866 44.1306 131.736C44.2576 131.606 44.3368 131.437 44.3555 131.256C44.3555 131.157 44.5254 130.26 48.4235 128.606C49.3631 128.517 50.9423 127.779 51.2022 126.903C52.2942 125.874 53.5641 125.05 54.9504 124.472C55.0793 124.422 55.1931 124.34 55.2807 124.234C55.3682 124.127 55.4266 124 55.4502 123.864C55.82 123.117 59.0285 120.875 60.048 120.875C60.1541 120.87 60.2579 120.842 60.3525 120.794C60.4472 120.746 60.5308 120.679 60.5977 120.596C61.6672 119.281 63.7862 117.608 64.3859 117.608C64.5438 117.608 64.6983 117.562 64.8299 117.475C64.9615 117.388 65.0644 117.265 65.1256 117.12C65.6186 116.395 66.3135 115.831 67.1246 115.496C67.3034 115.437 67.4579 115.321 67.5644 115.167C68.6667 113.721 70.1035 112.562 71.7524 111.79C71.8645 111.762 71.9691 111.71 72.0589 111.638C72.1487 111.566 72.2215 111.475 72.2722 111.371C72.9255 110.155 73.7999 109.071 74.8509 108.173C75.9104 111.411 79.4387 116.332 85.9156 118.684C85.904 118.741 85.8873 118.798 85.8657 118.853C85.2272 119.847 84.3144 120.635 83.2369 121.124ZM49.6729 126.614C49.6729 126.614 49.6729 126.614 49.6729 126.674C49.6729 126.733 49.6729 126.634 49.6729 126.614Z" fill="#240046"/>
<path d="M82.867 122.539L83.8665 121.324C81.8674 119.71 76.2901 111.64 76.2101 107.057H74.6509C74.7109 112.228 80.5181 120.666 82.867 122.539Z" fill="#240046"/>
<path d="M78.8292 125.468L79.6288 124.143C76.4903 122.24 71.6926 114.35 72.3723 111.262L70.853 110.923C70.0134 114.709 75.081 123.207 78.8292 125.468Z" fill="#240046"/>
<path d="M72.9719 129.214C73.3001 129.298 73.6342 129.358 73.9714 129.393C74.1676 129.406 74.3616 129.345 74.5144 129.222C74.6672 129.098 74.7676 128.922 74.7954 128.728C74.8232 128.534 74.7764 128.336 74.6644 128.175C74.5524 128.014 74.3834 127.901 74.1913 127.859C71.5725 127.361 66.7148 121.882 65.1356 116.661L63.6463 117.109C64.728 120.315 66.4636 123.263 68.7439 125.767C65.2056 123.834 61.4873 121.085 60.6377 119.71L59.3184 120.537C60.8076 122.888 68.464 128.118 72.9719 129.214Z" fill="#240046"/>
<path d="M68.664 131.505C68.2382 131.588 67.8004 131.588 67.3746 131.505C66.8809 131.418 66.3934 131.298 65.9153 131.147C64.924 130.84 63.9498 130.481 62.9967 130.071C61.9972 129.662 61.0776 129.224 60.1381 128.746C59.1985 128.268 58.269 127.75 57.3794 127.212C58.199 127.879 59.0686 128.497 59.9482 129.085C60.8277 129.672 61.7273 130.23 62.6469 130.768C63.5664 131.306 64.516 131.764 65.5055 132.243C66.0109 132.464 66.5281 132.656 67.0548 132.82C67.6449 133.026 68.2697 133.114 68.8939 133.079L68.664 131.505Z" fill="#240046"/>
<path d="M61.6669 137.682H61.8269L62.1467 136.168H62.0268C58.3985 135.291 52.9511 128.716 51.132 126.205L49.8726 127.122C50.1024 127.52 56.6693 136.487 61.6669 137.682Z" fill="#240046"/>
<path d="M57.8281 139.934L58.5977 138.589C56.7686 137.543 55.4693 134.106 55.7391 132.133L54.1899 131.924C53.86 134.414 55.3993 138.549 57.8281 139.934Z" fill="#240046"/>
<path d="M44.5554 146.639L44.8552 146.698L45.1451 145.174C41.6967 144.517 37.1489 139.535 35.8995 136.088L34.4302 136.596C35.6196 140.013 40.3374 145.612 44.5554 146.639Z" fill="#240046"/>
<path d="M41.8167 148.282L42.9362 147.206C42.4064 146.658 41.4169 144.556 41.5768 143.939L40.0676 143.56C39.6777 144.955 41.1371 147.585 41.8167 148.282Z" fill="#240046"/>
<path d="M50.5025 142.663C49.8144 142.566 49.1423 142.378 48.5034 142.105C47.8393 141.816 47.1949 141.483 46.5743 141.109C45.9446 140.731 45.3349 140.322 44.7252 139.894C44.1155 139.465 43.5358 139.007 42.9761 138.529C43.4459 139.097 43.9756 139.655 44.4754 140.183C44.9981 140.728 45.5486 141.247 46.1246 141.737C46.7014 142.241 47.3162 142.701 47.9637 143.112C48.64 143.558 49.3727 143.913 50.1427 144.168L50.5025 142.663Z" fill="#240046"/>
<path d="M38.4282 133.857C38.5573 134.33 38.7669 134.778 39.0479 135.182C39.286 135.548 39.5499 135.898 39.8376 136.228C40.3966 136.865 40.9977 137.464 41.6367 138.021C41.2078 137.313 40.8271 136.578 40.4972 135.819C40.3466 135.451 40.2165 135.076 40.1074 134.693C40.0057 134.371 39.9585 134.035 39.9675 133.697L38.4282 133.857Z" fill="#240046"/>
<path d="M54.6106 140.94C54.0349 140.449 53.497 139.917 53.0013 139.346C52.4816 138.748 52.0018 138.121 51.4721 137.453C50.9423 136.786 50.4725 136.098 50.0827 135.391C49.6281 134.681 49.2271 133.938 48.8833 133.169C48.9361 134.033 49.1007 134.887 49.3731 135.71C49.6466 136.54 49.9807 137.349 50.3726 138.131C50.748 138.931 51.2034 139.692 51.7319 140.402C52.2812 141.163 52.9908 141.796 53.8109 142.255L54.6106 140.94Z" fill="#240046"/>
<path d="M50.2926 138.479C50.4493 138.526 50.6144 138.539 50.7765 138.516C50.9387 138.494 51.094 138.437 51.2321 138.35L50.4225 137.025C50.4896 136.987 50.5652 136.966 50.6424 136.965C49.8228 136.855 46.6443 133.667 44.1655 130.758L42.9761 131.754C42.9761 131.754 44.5353 133.588 46.2045 135.281C48.3035 137.413 49.493 138.27 50.2926 138.479Z" fill="#240046"/>
<path d="M49.1931 132.502C48.9384 131.76 48.8002 130.984 48.7833 130.2C48.7632 129.822 48.7632 129.443 48.7833 129.065C48.7961 128.881 48.8195 128.698 48.8532 128.517C48.8476 128.434 48.8476 128.351 48.8532 128.268V128.168V128.108L47.334 127.76C47.334 127.839 47.334 127.919 47.334 127.989V128.178C47.334 128.297 47.334 128.417 47.334 128.527C47.334 128.636 47.4039 128.955 47.4539 129.164C47.5595 129.569 47.6862 129.968 47.8337 130.36C48.1668 131.143 48.626 131.866 49.1931 132.502Z" fill="#240046"/>
<path d="M64.526 134.753C63.9303 134.484 63.3779 134.128 62.8867 133.697C62.3543 133.243 61.8596 132.747 61.4074 132.213C60.9519 131.672 60.5408 131.096 60.178 130.489C59.7961 129.877 59.5255 129.203 59.3784 128.497C59.4036 129.231 59.5557 129.956 59.8282 130.639C60.1 131.332 60.4346 131.999 60.8277 132.631C61.1986 133.283 61.6232 133.903 62.0971 134.484C62.5934 135.111 63.1833 135.659 63.8463 136.108L64.526 134.753Z" fill="#240046"/>
<path d="M53.9102 123.944C54.0521 124.269 54.237 124.574 54.4599 124.851C54.6644 125.091 54.8848 125.317 55.1196 125.528C55.565 125.924 56.0469 126.278 56.5589 126.584C56.2444 126.104 55.9735 125.597 55.7493 125.07C55.645 124.825 55.5614 124.571 55.4994 124.313C55.4423 124.088 55.422 123.856 55.4394 123.625L53.9102 123.944Z" fill="#240046"/>
<path d="M66.1748 114.908C66.4103 115.64 66.791 116.318 67.2943 116.9C67.7625 117.45 68.3079 117.93 68.9135 118.325C68.5137 117.768 68.1941 117.157 67.964 116.512C67.7545 115.921 67.6728 115.293 67.7241 114.669L66.1748 114.908Z" fill="#240046"/>
<path d="M76.9601 122.101C76.7485 122.138 76.5321 122.138 76.3204 122.101C76.0615 122.083 75.8043 122.047 75.5508 121.991C75.0138 121.876 74.4834 121.733 73.9615 121.563C73.4318 121.384 72.902 121.184 72.3823 120.975C71.8625 120.766 71.3828 120.517 70.853 120.248C71.2728 120.626 71.7326 120.975 72.1924 121.314C72.6522 121.653 73.1319 121.961 73.6317 122.31C74.1303 122.621 74.6478 122.9 75.181 123.147C75.4612 123.275 75.7481 123.388 76.0406 123.486L76.2704 123.555H76.5203C76.7045 123.595 76.8918 123.618 77.0801 123.625L76.9601 122.101Z" fill="#240046"/>
<path d="M159.191 54.794C158.102 57.4341 152.284 61.5187 151.195 61.1501C150.585 62.8039 147.197 65.4738 146.297 65.6133C145.298 67.6058 140.18 71.1624 139.241 71.2421C139.241 72.2384 134.023 76.064 133.093 76.2234C132.094 78.1163 127.706 81.2047 126.986 81.3242C126.757 82.5596 124.148 84.6716 122.988 84.9805C120.27 85.6778 104.647 74.211 108.485 68.4327C110.174 65.8723 113.823 63.4514 114.982 63.8499C116.781 60.7615 123.468 55.9895 124.188 55.8799C125.597 52.7218 132.184 47.2324 134.793 46.1664C136.451 44.2138 138.59 42.724 141 41.8427C142.734 39.7752 145.022 38.2413 147.597 37.4193C149.296 37.0208 159.191 54.794 159.191 54.794Z" fill="#FFC14D"/>
<path d="M156.132 51.8051C153.523 55.9395 151.754 57.0852 149.135 56.3579L146.996 57.3542C146.996 57.3542 146.746 59.8747 141.049 63.6007C140.049 64.5969 135.052 68.3727 134.472 68.4126C134.012 69.4088 129.285 73.3939 128.475 73.3939C128.135 74.2407 124.697 76.542 124.097 76.6416C124.097 76.6416 123.417 68.313 123.907 66.2408C122.781 69.0389 122.416 72.0836 122.848 75.0676C123.015 75.8599 123.055 76.6736 122.968 77.4785C123.118 78.943 118.64 82.6889 118.64 82.6889L123.078 84.1335L125.476 81.6428L129.145 78.4349L133.992 74.4499L139.76 69.7775L146.117 64.4874L151.684 59.7751L156.791 56.1985L157.971 54.6045L156.132 51.8051Z" fill="#240046"/>
<path d="M128.285 80.0688C127.337 79.4078 126.518 78.5808 125.867 77.628C125.19 76.6314 124.642 75.5536 124.237 74.42C124.413 75.6505 124.749 76.8529 125.237 77.9966C125.722 79.198 126.427 80.2993 127.316 81.2444L128.285 80.0688Z" fill="#FEF7FF"/>
<path d="M147.347 39.352C145.472 40.1234 143.803 41.3169 142.469 42.8389L142.049 43.4167L141.369 43.5462C139.413 44.3328 137.67 45.5684 136.282 47.1527L135.972 47.5811L135.482 47.7803C133.223 48.7168 126.996 53.967 125.857 56.5573L125.467 57.434L124.697 57.5735C123.478 58.2111 117.961 62.3156 116.561 64.7266L115.832 65.9819L114.642 65.6431C112.771 66.451 111.161 67.7617 109.994 69.4289C109.844 69.658 109.385 70.3454 109.994 71.9893C110.794 73.9818 112.993 76.582 115.902 79.0328C117.841 80.7701 120.075 82.1498 122.498 83.1074H122.598C123.621 82.5667 124.507 81.8 125.187 80.8659L125.417 79.5807L126.576 79.4612C127.576 78.9929 130.784 76.5322 131.464 75.2769L131.884 74.4998L132.644 74.3803C134.377 73.3889 135.973 72.1765 137.391 70.7738V69.5185L138.921 69.399C140.07 68.9407 143.978 66.0616 144.648 64.7465L145.068 63.9196L145.877 63.7901C147.306 62.9635 148.531 61.8302 149.466 60.4726L150.085 58.8188L151.385 59.2571C152.496 58.7232 153.537 58.0539 154.483 57.2646C155.444 56.5338 156.307 55.6834 157.052 54.7342C156.272 53.3593 154.683 50.5897 152.954 47.7604C149.496 42.0419 147.956 40.0593 147.297 39.3819L147.347 39.352ZM147.736 37.3595C149.775 37.8576 159.191 54.7939 159.191 54.7939C158.111 57.4141 152.394 61.4389 151.245 61.16C150.605 62.8038 147.247 65.4738 146.317 65.6132C145.318 67.6057 140.2 71.1624 139.26 71.2421C139.26 72.2383 134.043 76.0639 133.113 76.2233C132.114 78.1162 127.726 81.2046 127.006 81.3241C126.776 82.5595 124.168 84.6716 123.008 84.9804C122.711 85.0275 122.407 85.007 122.119 84.9206C117.891 83.9244 104.987 73.8024 108.485 68.4924C110.154 65.9619 113.743 63.6108 114.942 63.8997C116.741 60.8113 123.428 56.0392 124.148 55.9297C125.557 52.7715 132.144 47.2822 134.753 46.2162C136.416 44.2397 138.57 42.7318 141 41.8426C142.734 39.7752 145.022 38.2412 147.596 37.4193C147.642 37.4048 147.691 37.4048 147.736 37.4193V37.3595Z" fill="#FEF7FF"/>
<path d="M126.146 81.0552C125.2 80.3629 124.452 79.4354 123.977 78.3653C123.459 77.2264 123.083 76.0286 122.857 74.7987C122.831 76.0844 122.958 77.3687 123.237 78.6243C123.396 79.2757 123.627 79.9073 123.927 80.5072C124.235 81.1373 124.639 81.7155 125.126 82.2208L126.146 81.0552Z" fill="#FEF7FF"/>
<path d="M140.12 69.5484C139.012 69.5334 137.916 69.3243 136.881 68.9308C135.797 68.5446 134.826 67.8979 134.053 67.0479C134.651 68.0942 135.499 68.9771 136.522 69.6182C137.561 70.3069 138.715 70.8061 139.93 71.0926L140.12 69.5484Z" fill="#FEF7FF"/>
<path d="M138.321 70.7838C137.816 70.8229 137.31 70.7444 136.841 70.5547C136.323 70.3475 135.838 70.0656 135.402 69.7178C134.478 68.9698 133.693 68.0662 133.083 67.0479C133.479 68.2187 134.078 69.3112 134.852 70.2757C135.269 70.7783 135.758 71.2179 136.301 71.5808C136.899 71.9856 137.584 72.245 138.301 72.338L138.321 70.7838Z" fill="#FEF7FF"/>
<path d="M146.836 63.5908C145.297 63.6472 143.759 63.4417 142.289 62.9831C141.527 62.7622 140.779 62.496 140.05 62.1861C139.311 61.8851 138.596 61.5287 137.911 61.1201C138.542 61.6386 139.21 62.1114 139.91 62.5348C140.585 62.9831 141.286 63.3922 142.009 63.7602C143.511 64.5055 145.13 64.9906 146.796 65.1948L146.836 63.5908Z" fill="#FEF7FF"/>
<path d="M145.337 65.5535C143.85 65.1675 142.412 64.6161 141.049 63.9097C140.363 63.5524 139.695 63.16 139.05 62.7341C138.72 62.5149 138.4 62.2958 138.05 62.0567C137.736 61.8226 137.438 61.5662 137.161 61.2896C137.389 61.6117 137.643 61.9149 137.92 62.1961C138.19 62.495 138.47 62.764 138.76 63.043C139.35 63.5809 139.969 64.0392 140.609 64.5672C141.907 65.5448 143.316 66.3673 144.807 67.018L145.337 65.5535Z" fill="#FEF7FF"/>
<path d="M133.932 74.4101C133.412 74.4557 132.887 74.4323 132.373 74.3404C131.835 74.2489 131.306 74.1089 130.794 73.9219C129.729 73.5382 128.765 72.9182 127.975 72.1088C128.592 73.119 129.433 73.9745 130.434 74.6094C130.944 74.9443 131.487 75.228 132.053 75.4562C132.639 75.7012 133.254 75.8719 133.882 75.9643L133.932 74.4101Z" fill="#FEF7FF"/>
<path d="M132.334 75.9642C131.853 76.041 131.361 75.9679 130.924 75.755C130.402 75.5264 129.917 75.2208 129.485 74.8484C129.027 74.4616 128.612 74.0274 128.246 73.5533C127.852 73.0765 127.516 72.5548 127.246 71.9991C127.39 72.6064 127.605 73.1948 127.886 73.7526C128.158 74.329 128.493 74.8736 128.885 75.3765C129.284 75.9113 129.762 76.3817 130.305 76.7712C130.918 77.2222 131.652 77.4791 132.414 77.5084L132.334 75.9642Z" fill="#FEF7FF"/>
<path d="M121.548 62.4351C121.206 63.06 120.957 63.7312 120.809 64.4276C120.66 65.1266 120.567 65.8361 120.529 66.5496C120.479 67.2594 120.479 67.9718 120.529 68.6816C120.584 69.394 120.715 70.0986 120.918 70.7837C121.028 70.0763 121.088 69.369 121.138 68.6716C121.188 67.9742 121.228 67.2868 121.268 66.5894L121.378 64.5073C121.448 63.8398 121.498 63.1524 121.548 62.4351Z" fill="#240046"/>
<path d="M121.939 85.6081C122.351 85.7292 122.786 85.7497 123.208 85.6678C125.077 84.9403 126.639 83.5974 127.636 81.8622C129.95 80.5902 131.989 78.8734 133.633 76.8111C134.825 76.1862 135.956 75.4525 137.011 74.6194C138.14 73.8752 139.114 72.9214 139.88 71.81C141.629 71.0927 145.617 68.1437 146.877 66.211C148.838 65.1861 150.511 63.6897 151.744 61.8574C153.206 61.3885 154.563 60.6445 155.743 59.6656C156.742 58.8985 159.221 56.906 159.991 55.043L160.14 54.6943L159.951 54.3656C159.951 54.3656 157.442 49.8725 154.773 45.5188C153.204 42.9585 151.884 40.9261 150.835 39.4815C148.956 36.8813 148.216 36.4928 147.516 36.6223C144.846 37.4624 142.459 39.0206 140.62 41.1254C138.211 42.0694 136.065 43.5761 134.363 45.5188C131.544 46.804 125.367 51.9945 123.698 55.2622C121.899 56.1489 116.581 60.2435 114.702 63.0529C112.763 63.1924 109.465 65.7328 107.965 68.0342C107.046 69.4289 106.556 71.9096 109.385 75.8249C112.313 80.029 118.69 84.8111 121.939 85.6081ZM126.936 80.4973L126.387 80.5571L126.287 81.1249C126.127 81.9618 123.808 83.9144 122.858 84.1137C121.639 84.4325 114.292 80.0091 110.554 74.8386C109.285 73.0752 108.005 70.5945 109.175 68.8611C110.824 66.3505 114.102 64.4476 114.802 64.5971L115.392 64.7764L115.702 64.2384C117.361 61.3792 123.588 56.9459 124.408 56.6071L124.777 56.5374L124.947 56.1688C126.217 53.2896 132.614 47.8899 135.132 46.8538L135.342 46.7741L135.472 46.5848C137.022 44.8105 138.985 43.4422 141.189 42.5998L141.489 42.54L141.669 42.3009C143.264 40.4276 145.336 39.0167 147.666 38.2163C149.026 39.0532 154.083 47.1826 158.381 54.8139C157.112 57.1252 152.434 60.3032 151.465 60.3829L150.815 60.1638L150.545 60.8711C150.025 62.2659 146.887 64.6967 146.247 64.8561L145.857 64.9258L145.687 65.2745C144.798 67.0279 140.07 70.3156 139.23 70.475L138.511 70.5348V71.1823C138.091 72.059 133.893 75.2271 132.993 75.4662L132.624 75.526L132.454 75.8547C131.514 77.4587 127.636 80.2582 126.896 80.4973H126.936Z" fill="#240046"/>
<path d="M150.834 61.7677L151.604 60.4128C147.486 58.0716 140.489 48.2585 141.769 41.9423L140.24 41.6334C139.36 45.9671 141.789 50.9085 143.318 53.4689C145.527 57.175 148.476 60.4327 150.834 61.7677Z" fill="#240046"/>
<path d="M134.073 45.8278C133.518 47.43 133.116 49.0812 132.874 50.7592C132.628 52.4085 132.501 54.0732 132.494 55.7405C132.482 57.4081 132.605 59.074 132.864 60.7217C133.101 62.3632 133.58 63.961 134.283 65.4639C133.713 63.9248 133.377 62.3098 133.284 60.6719C133.149 59.0442 133.149 57.4081 133.284 55.7803C133.423 54.1579 133.673 52.5468 134.033 50.9585C134.384 49.3909 134.883 47.8599 135.523 46.3857L134.073 45.8278Z" fill="#240046"/>
<path d="M123.418 55.7902C123.393 56.1517 123.393 56.5145 123.418 56.8761V57.3941L123.508 57.8923C123.508 58.0616 123.558 58.231 123.588 58.3904L123.708 58.8785C123.768 59.2073 123.858 59.5261 123.948 59.8748C124.298 61.14 124.718 62.3754 125.187 63.5908C125.657 64.8063 126.187 65.9918 126.757 67.1574C127.31 68.3303 127.98 69.445 128.756 70.4849C128.088 69.3852 127.536 68.2201 127.107 67.008C126.657 65.8025 126.267 64.5771 125.917 63.3418C125.572 62.1152 125.292 60.8715 125.077 59.6158C125.028 59.3069 124.978 58.9981 124.938 58.6893L124.878 58.221V57.7627V57.3045V56.7864C124.885 56.503 124.908 56.2203 124.948 55.9396L123.418 55.7902Z" fill="#240046"/>
<path d="M114.212 63.7601C114.104 64.9773 114.158 66.2033 114.372 67.4064C114.566 68.5704 114.843 69.719 115.202 70.8435C115.559 71.959 115.979 73.0533 116.461 74.1212C116.935 75.1826 117.486 76.2081 118.11 77.1896C117.603 76.1527 117.172 75.0806 116.821 73.9817C116.471 72.8897 116.184 71.7787 115.961 70.6542C115.739 69.5431 115.596 68.4179 115.531 67.2869C115.462 66.1927 115.536 65.0942 115.751 64.0192L114.212 63.7601Z" fill="#240046"/>
<path d="M146.387 64.7564C145.586 64.7366 144.792 64.6059 144.028 64.3678C143.225 64.1239 142.443 63.8175 141.689 63.4513C140.138 62.745 138.683 61.8444 137.361 60.7714C138.523 62.0726 139.846 63.2209 141.299 64.1885C142.043 64.6749 142.822 65.1077 143.628 65.4836C144.468 65.8876 145.359 66.1758 146.277 66.3404L146.387 64.7564Z" fill="#240046"/>
<path d="M139.35 70.4252C138.52 70.3708 137.711 70.147 136.971 69.7677C136.188 69.3762 135.478 68.854 134.872 68.2235C133.631 66.8888 132.724 65.2811 132.224 63.5311C132.486 65.4059 133.192 67.1917 134.283 68.7415C134.862 69.5146 135.564 70.1877 136.362 70.734C137.204 71.3147 138.156 71.718 139.16 71.9196L139.35 70.4252Z" fill="#240046"/>
<path d="M133.134 75.3865C132.482 75.4019 131.836 75.2546 131.255 74.9581C130.6 74.6505 129.988 74.2586 129.436 73.7925C128.868 73.3117 128.356 72.7705 127.906 72.1785C127.45 71.5724 127.09 70.9005 126.837 70.186C126.97 70.95 127.219 71.6891 127.577 72.3778C127.939 73.0874 128.378 73.7555 128.886 74.3703C129.398 74.9742 129.986 75.51 130.635 75.9643C131.345 76.4928 132.177 76.8353 133.054 76.9606L133.134 75.3865Z" fill="#240046"/>
<path d="M127.516 80.6966C126.545 79.9282 125.756 78.9552 125.207 77.8473C124.654 76.6873 124.276 75.4517 124.088 74.1811C123.885 72.8624 123.785 71.5301 123.788 70.1961C123.788 68.8611 123.868 67.5361 123.978 66.2111C123.434 68.8312 123.213 71.5076 123.318 74.1811C123.389 75.5656 123.665 76.932 124.138 78.2358C124.655 79.578 125.46 80.7917 126.496 81.7925L127.516 80.6966Z" fill="#240046"/>
<path d="M142.099 61.2696C141.211 60.8378 140.381 60.2955 139.63 59.6557C138.88 59.038 138.151 58.3805 137.451 57.6632C136.751 56.9459 136.072 56.2983 135.402 55.5909C134.732 54.8836 134.073 54.1563 133.403 53.4291L132.463 54.3257C133.203 55.0032 133.933 55.6507 134.692 56.3182C135.452 56.9857 136.212 57.5835 136.991 58.1812C137.771 58.779 138.57 59.3667 139.4 59.9047C140.236 60.4747 141.144 60.9335 142.099 61.2696Z" fill="#240046"/>
<path d="M150.554 60.094C150.235 60.2107 149.895 60.2648 149.555 60.2534C149.153 60.2487 148.752 60.2154 148.355 60.1538C147.527 60.0249 146.709 59.8385 145.907 59.5959C145.087 59.3568 144.277 59.0778 143.478 58.779C142.678 58.4801 141.879 58.1414 141.109 57.7827C141.816 58.2805 142.55 58.7394 143.308 59.1575C144.067 59.5859 144.837 59.9844 145.627 60.3531C146.425 60.7426 147.25 61.0755 148.096 61.3493C148.536 61.4917 148.987 61.5984 149.445 61.6681C149.964 61.7619 150.495 61.7619 151.014 61.6681L150.554 60.094Z" fill="#240046"/>
<path d="M123.178 84.1634C122.548 84.045 121.954 83.7861 121.439 83.4063C120.854 82.9922 120.315 82.518 119.83 81.9916C119.324 81.4588 118.862 80.8857 118.45 80.278C118.019 79.6672 117.682 78.9956 117.451 78.2855C117.567 79.0328 117.796 79.7583 118.13 80.4374C118.443 81.1314 118.815 81.7979 119.24 82.4299C119.662 83.0916 120.155 83.7062 120.709 84.263C121.297 84.8958 122.026 85.3806 122.838 85.6777L123.178 84.1634Z" fill="#240046"/>
<path d="M148.836 53.2298C148.476 52.6918 148.126 52.1738 147.786 51.6457L146.787 50.0816C146.447 49.5636 146.107 49.0356 145.787 48.5175C145.467 47.9995 145.057 47.5213 144.638 46.9833C144.773 47.6148 144.977 48.2295 145.247 48.8164C145.507 49.4 145.811 49.9629 146.157 50.5C146.504 51.0418 146.899 51.5519 147.336 52.0243C147.768 52.504 148.274 52.9111 148.836 53.2298Z" fill="#240046"/>
<path d="M136.771 62.2858C136.412 62.0584 136.077 61.7946 135.772 61.4987C135.467 61.1884 135.186 60.8553 134.932 60.5025C134.682 60.1538 134.442 59.7951 134.192 59.4265C134.069 59.228 133.932 59.0383 133.783 58.8587C133.593 58.6296 133.354 58.4457 133.083 58.3207L132.763 59.3169C132.904 59.3529 133.034 59.4211 133.143 59.5162C133.3 59.6441 133.45 59.7804 133.593 59.9246C133.903 60.2335 134.212 60.5523 134.592 60.8512C134.918 61.1601 135.273 61.437 135.652 61.6781C136.004 61.9175 136.379 62.1211 136.771 62.2858Z" fill="#240046"/>
<path d="M151.514 56.7864C150.274 56.6697 149.054 56.3917 147.886 55.9595C146.661 55.5205 145.463 55.0116 144.298 54.4353C143.128 53.8574 141.969 53.2198 140.839 52.5424C139.71 51.8649 138.6 51.1476 137.531 50.3606C138.53 51.2771 139.53 52.1439 140.529 52.9708C141.529 53.7977 142.658 54.5847 143.768 55.3319C144.892 56.0852 146.06 56.7706 147.266 57.3842C148.529 58.0418 149.873 58.5309 151.264 58.8387L151.514 56.7864Z" fill="#240046"/>
<path d="M208.727 78.704C207.742 80.1964 206.671 81.6301 205.519 82.9978L202.52 82.0016L203.969 84.8309C195.284 94.6739 174.843 112.427 143.228 108.034L149.475 97.583C149.475 97.583 181.88 86.1858 157.831 54.3356C150.665 44.9708 148.836 33.5339 139.78 29.1304C130.724 24.727 111.324 37.5587 111.324 37.5587L108.845 30.7443C113.057 23.2267 118.823 16.6869 125.762 11.5584C132.702 6.42982 140.655 2.8296 149.096 0.996216C148.316 12.0546 155.003 23.2924 165.738 37.9174C176.472 52.5424 191.605 72.4475 208.727 78.704Z" fill="#FEF7FF"/>
<path d="M141.929 108.592L143.089 108.751C156.574 110.772 170.355 108.558 182.52 102.415C190.861 98.1328 198.32 92.3269 204.509 85.2992L204.859 84.9007L204.03 83.2669L205.779 83.8347L206.119 83.4163C207.291 82.028 208.379 80.5709 209.377 79.0527L209.897 78.2358L208.987 77.907C192.725 71.9893 178.452 53.8973 166.358 37.3994C155.363 22.3958 149.116 11.6263 149.865 0.996253L149.935 0L148.936 0.219176C136.982 2.81649 126.069 8.89099 117.581 17.6735C113.82 21.4332 110.635 25.723 108.125 30.4057L107.985 30.6946L110.904 38.7443L111.734 38.1964C111.923 38.0668 130.904 25.6535 139.42 29.8179C144.848 32.4679 147.546 37.7879 150.675 43.8352C152.508 47.6783 154.689 51.3465 157.192 54.7939C164.758 64.8162 167.417 73.7227 165.108 81.3939C161.82 92.273 149.326 96.8059 149.196 96.8458L148.936 96.9355L141.929 108.592ZM203 84.6815C193.784 94.9828 174.264 111.042 144.478 107.386L149.975 98.1907C151.974 97.4435 163.299 92.6914 166.587 81.8323C169.056 73.7028 166.308 64.2783 158.421 53.8375C155.976 50.4616 153.845 46.8701 152.054 43.1079C148.936 37.0307 145.987 31.2824 140.06 28.4032C131.724 24.3285 115.542 33.9025 111.654 36.3732L109.655 30.7942C112.115 26.3766 115.165 22.3115 118.72 18.7096C126.76 10.4326 137.015 4.63038 148.266 1.99251C147.936 12.752 154.263 23.5614 165.108 38.3856C177.102 54.7541 191.256 72.6866 207.538 79.0826C207.068 79.7501 206.308 80.7962 205.259 82.0714L200.951 80.6965L203 84.6815Z" fill="#240046"/>
<path d="M114.981 27.4467C123.652 16.6764 135.737 9.1624 149.255 6.13684L114.981 27.4467Z" fill="#FEF7FF"/>
<path d="M114.981 27.4468C117.193 24.8355 119.61 22.4037 122.208 20.1741C124.802 17.9551 127.577 15.9557 130.504 14.1966C131.254 13.7682 131.983 13.3398 132.723 12.9314L134.992 11.7558L137.311 10.6998C137.691 10.5105 138.1 10.371 138.49 10.2116L139.63 9.75331C142.802 8.55031 146.064 7.59436 149.385 6.89407L149.045 5.37976C145.679 6.22192 142.384 7.32446 139.19 8.67736L138 9.20537C137.611 9.3847 137.211 9.5441 136.821 9.74335L134.552 10.9588L132.293 12.224C131.554 12.6723 130.824 13.1406 130.094 13.5989C127.209 15.4807 124.484 17.5966 121.948 19.9251C119.43 22.2451 117.101 24.7602 114.981 27.4468Z" fill="#240046"/>
<path d="M201.451 75.1772C195.344 82.689 179.841 98.37 155.373 100.881L201.451 75.1772Z" fill="#FEF7FF"/>
<path d="M200.841 74.719C197.956 78.1177 194.808 81.2855 191.426 84.1934C188.053 87.0932 184.435 89.6965 180.611 91.9741C176.751 94.2435 172.68 96.1384 168.457 97.6328C166.348 98.38 164.189 99.0076 162.01 99.5556C159.831 100.104 157.602 100.492 155.373 100.841C157.631 100.685 159.879 100.416 162.11 100.034C164.341 99.6201 166.55 99.0914 168.727 98.4497C170.913 97.8157 173.06 97.0505 175.154 96.1584C177.257 95.2772 179.309 94.2794 181.301 93.1696L182.79 92.3327L184.259 91.456L185.709 90.5395L187.128 89.5432C189.007 88.2581 190.816 86.8534 192.555 85.3889C194.295 83.9244 195.964 82.4001 197.553 80.7264C198.343 79.9095 199.122 79.0726 199.872 78.2059C200.621 77.3391 201.351 76.4824 202.051 75.5758L200.841 74.719Z" fill="#240046"/>
<path d="M112.613 31.392L108.955 29.9773L108.685 31.5016L112.613 31.392Z" fill="#240046"/>
<path d="M113.473 31.2823L114.772 35.4367C120.769 31.9996 133.103 25.8727 139.76 29.1204C148.756 33.5239 150.645 44.9609 157.812 54.3256C181.72 85.9965 149.815 97.4435 149.465 97.583C170.266 103.919 200.841 75.9244 200.841 75.9244L201.121 74.978C187.128 66.5397 174.853 50.3207 165.748 37.8974C156.642 25.4742 150.455 15.5316 149.256 6.01733C148.836 6.12692 148.416 6.25643 147.976 6.40587C128.046 12.9513 113.473 31.2823 113.473 31.2823Z" fill="#240046"/>
<path d="M187.527 79.9992C186.463 79.5748 185.375 79.2122 184.269 78.9133C183.169 78.6044 182.07 78.3355 180.95 78.1063C179.831 77.8772 178.721 77.6779 177.592 77.5185C176.456 77.3518 175.311 77.2553 174.164 77.2296C175.228 77.6525 176.316 78.0151 177.422 78.3155C178.522 78.6244 179.631 78.8934 180.74 79.1225C181.85 79.3516 182.969 79.5509 184.099 79.7003C185.235 79.8654 186.38 79.9652 187.527 79.9992Z" fill="#FFC14D"/>
<path d="M165.807 92.5618C165.93 92.0393 166.023 91.5104 166.087 90.9777C166.147 90.4497 166.197 89.9117 166.217 89.3837C166.237 88.8557 166.217 88.3177 166.217 87.7797C166.212 87.2431 166.172 86.7073 166.097 86.1758C165.965 86.6962 165.872 87.2257 165.817 87.7598C165.757 88.2978 165.707 88.8258 165.677 89.3538C165.647 89.8818 165.677 90.4198 165.677 90.9578C165.686 91.4947 165.729 92.0305 165.807 92.5618Z" fill="#FFC14D"/>
<path d="M194.434 73.3342C192.335 72.7464 190.216 72.2582 188.087 71.8C187.027 71.5609 185.958 71.3616 184.898 71.1424L181.69 70.5447L178.481 70.0067C177.402 69.8374 176.333 69.658 175.253 69.5186C173.104 69.2097 170.945 68.9407 168.766 68.7714C170.865 69.3691 172.984 69.8573 175.113 70.3156C176.173 70.5547 177.242 70.7539 178.302 70.9731L181.51 71.5609L184.729 72.1088C185.798 72.2682 186.867 72.4475 187.947 72.597C190.106 72.8959 192.265 73.1648 194.434 73.3342Z" fill="#FFC14D"/>
<path d="M188.707 69.7378C187.495 69.2766 186.261 68.8776 185.008 68.5423C183.759 68.2035 182.5 67.8947 181.23 67.6357C179.961 67.3766 178.701 67.1375 177.422 66.9483C176.137 66.7466 174.843 66.6103 173.544 66.5398C174.757 67.0055 175.995 67.4046 177.252 67.7353C178.502 68.084 179.761 68.3829 181.02 68.6419C182.28 68.9009 183.559 69.14 184.839 69.3293C186.12 69.5304 187.411 69.6668 188.707 69.7378Z" fill="#FFC14D"/>
<path d="M186.947 66.47C185.568 66.6294 184.218 66.8984 182.879 67.1873C181.54 67.4762 180.21 67.8149 178.881 68.1835C177.552 68.5521 176.252 68.9606 174.953 69.399C173.654 69.8373 172.374 70.3255 171.115 70.9033C172.484 70.7439 173.833 70.4749 175.183 70.186C176.532 69.8971 177.842 69.5484 179.181 69.1897C180.52 68.8311 181.81 68.4226 183.109 67.9743C184.408 67.526 185.688 67.0478 186.947 66.47Z" fill="#FFC14D"/>
<path d="M187.877 66.6892C186.518 66.9084 185.168 67.1973 183.879 67.5061L181.88 68.0043L179.881 68.5323L177.882 69.1101C177.232 69.3193 176.572 69.5086 175.883 69.7278C174.583 70.1562 173.284 70.6045 172.015 71.1325C173.374 70.9133 174.713 70.6244 176.013 70.3156L178.012 69.8174L180.011 69.2795L182.01 68.7116C182.67 68.5024 183.319 68.3131 184.009 68.0939C185.308 67.6655 186.608 67.2172 187.877 66.6892Z" fill="#FFC14D"/>
<path d="M172.974 83.9742C173.634 84.6417 171.925 86.3453 170.615 85.2793C171.615 85.0003 172.514 83.506 172.974 83.9742Z" fill="#FFC14D"/>
<path d="M178.171 62.3256C177.732 62.1861 178.171 61.8673 178.111 61.5585C178.051 61.2496 178.111 61.0504 178.341 61.0305C178.571 61.0105 178.601 61.429 178.551 61.7378C178.501 62.0467 178.381 62.3953 178.171 62.3256Z" fill="#FFC14D"/>
<path d="M141.739 25.6536C140.74 25.2551 139.74 24.9164 138.74 24.6075C138.241 24.4481 137.741 24.3186 137.231 24.1692L135.702 23.7707C134.702 23.5216 133.703 23.3024 132.633 23.1032C131.599 22.8962 130.555 22.7432 129.505 22.6449C130.504 23.0534 131.504 23.3821 132.503 23.691C133.503 23.9998 134.502 24.2788 135.502 24.5278L137.031 24.8865C137.541 24.9861 138.031 25.1056 138.571 25.1953C139.618 25.4037 140.676 25.5567 141.739 25.6536Z" fill="#FFC14D"/>
<path d="M144.438 18.6398C143.489 18.5851 142.538 18.5851 141.589 18.6398C140.65 18.6398 139.7 18.7395 138.76 18.8291C137.821 18.9188 136.891 19.0383 135.952 19.1878C135.012 19.3311 134.081 19.5274 133.163 19.7756C134.112 19.8253 135.063 19.8253 136.012 19.7756C137.011 19.7756 137.901 19.6759 138.84 19.5763C139.78 19.4767 140.719 19.3671 141.649 19.2177C142.588 19.0749 143.519 18.8821 144.438 18.6398Z" fill="#FFC14D"/>
<path d="M150.315 16.7371C150.34 17.1551 150.34 17.5743 150.315 17.9923C150.315 18.4008 150.235 18.8093 150.175 19.2177C150.115 19.6262 150.045 20.0347 149.955 20.4431C149.876 20.8561 149.766 21.2625 149.625 21.6586C149.947 21.3497 150.193 20.9714 150.345 20.5527C150.508 20.1493 150.622 19.7279 150.684 19.2974C150.744 18.8611 150.744 18.4187 150.684 17.9824C150.658 17.5446 150.531 17.1187 150.315 16.7371Z" fill="#FFC14D"/>
<path d="M145.278 12.1344C145.947 12.8816 143.668 13.7483 142.839 13.4893C144.498 12.503 144.808 11.5964 145.278 12.1344Z" fill="#FFC14D"/>
<path d="M126.746 27.0881C126.746 27.8652 125.746 27.4866 125.407 27.7656C125.067 28.0445 125.147 28.5526 124.767 28.6223C124.387 28.6921 124.027 27.8752 125.147 27.0981C126.266 26.321 126.756 26.8988 126.746 27.0881Z" fill="#FFC14D"/>
<path d="M135.262 15.2028C135.832 15.4219 135.132 16.5676 134.722 16.2588C134.312 15.95 135.052 15.1231 135.262 15.2028Z" fill="#FFC14D"/>
<path d="M146.62 41.1995L157.18 54.4409C158.819 56.4966 161.82 56.8384 163.883 55.2044L172.209 48.6076C174.272 46.9736 174.615 43.9825 172.975 41.9267L162.416 28.6853C160.776 26.6296 157.775 26.2878 155.713 27.9218L147.386 34.5186C145.324 36.1526 144.981 39.1438 146.62 41.1995Z" fill="#240046"/>
<path d="M155.283 26.8391L145.557 34.58C144.75 35.2253 144.232 36.1636 144.118 37.189C144.003 38.2144 144.302 39.2431 144.948 40.0494L149.445 45.6583C148.8 44.852 148.501 43.8233 148.616 42.7979C148.73 41.7725 149.248 40.8342 150.055 40.1889L156.162 35.3272L156.062 35.2475C155.822 35.0482 155.573 34.839 155.323 34.6497C155.256 34.6108 155.207 34.5477 155.186 34.4737C155.165 34.3996 155.173 34.3203 155.209 34.2522C155.245 34.1842 155.306 34.1326 155.38 34.1083C155.453 34.084 155.533 34.0888 155.603 34.1217L156.532 34.4704L157.012 34.6497L158.451 35.1777C158.469 35.1809 158.487 35.1788 158.503 35.1718C158.519 35.1647 158.533 35.1529 158.543 35.138C158.553 35.1231 158.558 35.1056 158.557 35.0878C158.557 35.0701 158.551 35.0528 158.541 35.0382C158.241 34.7493 157.941 34.4505 157.612 34.1715L157.432 34.0221C157.192 33.8129 156.952 33.6136 156.692 33.4144C156.625 33.3754 156.576 33.3124 156.555 33.2383C156.534 33.1643 156.542 33.085 156.579 33.0169C156.615 32.9488 156.676 32.8973 156.749 32.8729C156.822 32.8486 156.902 32.8534 156.972 32.8863C157.282 33.0059 157.592 33.1155 157.901 33.245L158.511 33.4642L159.88 33.8926C159.898 33.8957 159.916 33.8937 159.932 33.8866C159.949 33.8795 159.963 33.8678 159.972 33.8528C159.982 33.8379 159.987 33.8204 159.987 33.8027C159.986 33.7849 159.981 33.7676 159.97 33.7531C159.691 33.4841 159.411 33.2251 159.121 32.976L159.021 32.8863L158.281 32.2886C158.215 32.2497 158.166 32.1866 158.144 32.1126C158.123 32.0385 158.132 31.9592 158.168 31.8911C158.204 31.8231 158.265 31.7715 158.338 31.7472C158.411 31.7228 158.491 31.7276 158.561 31.7606C158.868 31.8735 159.177 31.993 159.491 32.1192L159.97 32.2985C160.55 32.5177 161.24 32.7568 161.85 33.0059C161.867 33.0142 161.886 33.0161 161.905 33.0113C161.923 33.0064 161.939 32.9952 161.95 32.9795C161.961 32.9639 161.966 32.9449 161.964 32.926C161.962 32.9071 161.953 32.8895 161.94 32.8764C161.58 32.4978 161.19 32.1292 160.79 31.7805C160.73 31.7805 160.67 31.6709 160.61 31.6311C160.37 31.4218 160.12 31.2226 159.87 31.0233C159.804 30.9844 159.755 30.9214 159.734 30.8473C159.713 30.7733 159.721 30.6939 159.757 30.6259C159.793 30.5578 159.854 30.5062 159.927 30.4819C160.001 30.4576 160.081 30.4624 160.15 30.4953C160.464 30.6016 160.773 30.7211 161.08 30.854C161.5 31.0233 161.92 31.2027 162.329 31.4119C163.025 31.3816 163.716 31.5399 164.328 31.8702L160.79 27.4568C160.47 27.0546 160.073 26.7194 159.623 26.4705C159.172 26.2217 158.677 26.064 158.165 26.0066C157.653 25.9492 157.135 25.9932 156.641 26.1361C156.146 26.2789 155.684 26.5178 155.283 26.8391Z" fill="#FEF7FF"/>
<path d="M155.623 53.3094L156.732 54.6942C157.379 55.4991 158.321 56.0152 159.35 56.1291C160.378 56.2431 161.41 55.9455 162.219 55.3019L171.935 47.561C172.744 46.9171 173.264 45.9795 173.38 44.9541C173.496 43.9286 173.199 42.8991 172.554 42.0916L171.445 40.7068C172.091 41.5131 172.389 42.5418 172.275 43.5672C172.161 44.5926 171.643 45.5309 170.835 46.1762L161.11 53.9171C160.71 54.2371 160.25 54.4752 159.758 54.6179C159.265 54.7605 158.749 54.8049 158.24 54.7484C157.73 54.692 157.236 54.5358 156.787 54.2889C156.338 54.0419 155.942 53.7091 155.623 53.3094Z" fill="#FEF7FF"/>
<path d="M158.621 56.7865C159.311 56.9492 160.029 56.9539 160.722 56.8003C161.414 56.6468 162.063 56.3389 162.619 55.8998L172.334 48.159C173.303 47.3844 173.925 46.2588 174.064 45.0285C174.202 43.7981 173.847 42.5631 173.074 41.5936L161.37 26.9686C160.986 26.4903 160.511 26.0921 159.973 25.7966C159.434 25.5012 158.843 25.3144 158.232 25.2468C157.621 25.1793 157.003 25.2323 156.413 25.403C155.823 25.5737 155.272 25.8585 154.793 26.2414L145.077 33.9723C144.108 34.7468 143.486 35.8724 143.348 37.1028C143.209 38.3331 143.565 39.5681 144.338 40.5376L156.072 55.1726C156.72 55.9755 157.616 56.5428 158.621 56.7865ZM158.461 26.8989C159.131 27.0605 159.729 27.4388 160.16 27.9749L171.894 42.6198C172.41 43.2651 172.647 44.0877 172.556 44.9074C172.464 45.727 172.05 46.4771 171.405 46.9933L161.689 54.7342C161.368 54.9901 161 55.1804 160.605 55.2943C160.211 55.4082 159.797 55.4435 159.389 55.3982C158.981 55.3529 158.585 55.2278 158.225 55.0301C157.865 54.8324 157.548 54.566 157.291 54.2461L145.557 39.5712C145.3 39.2514 145.109 38.8843 144.995 38.4909C144.881 38.0974 144.845 37.6854 144.891 37.2784C144.936 36.8713 145.062 36.4772 145.26 36.1184C145.459 35.7597 145.726 35.4435 146.047 35.1877L155.762 27.4468C156.14 27.1563 156.58 26.9559 157.048 26.861C157.516 26.766 157.999 26.779 158.461 26.8989Z" fill="#240046"/>
<path d="M159.901 39.1328C159.557 38.9194 159.156 38.8152 158.751 38.8339C158.332 38.8525 157.926 38.9795 157.572 39.2026C157.205 39.4421 156.907 39.7732 156.707 40.1629C156.508 40.5526 156.414 40.9874 156.436 41.4243C156.457 41.8612 156.592 42.2849 156.828 42.6536C157.064 43.0223 157.393 43.3231 157.782 43.5263C158.146 43.7192 158.557 43.8064 158.969 43.7783C159.38 43.7501 159.776 43.6076 160.11 43.3669C159.77 43.4517 159.416 43.4627 159.071 43.3991C158.726 43.3355 158.399 43.1988 158.111 42.9983C157.853 42.8121 157.64 42.5704 157.487 42.2911C157.335 42.0117 157.248 41.7019 157.232 41.3844C157.215 41.0661 157.271 40.7483 157.396 40.4549C157.521 40.1615 157.711 39.9002 157.951 39.6907C158.218 39.4644 158.529 39.2975 158.865 39.2012C159.202 39.105 159.555 39.0817 159.901 39.1328Z" fill="#FEF7FF"/>
<path d="M163.299 43.6458C163.512 43.4636 163.685 43.2398 163.809 42.9883C163.928 42.7387 164.012 42.4739 164.058 42.2013C164.098 41.9304 164.098 41.6552 164.058 41.3843C164.025 41.106 163.933 40.8378 163.789 40.5973C163.729 40.8762 163.689 41.1253 163.649 41.3744L163.539 42.1216L163.409 42.8588C163.379 43.1178 163.329 43.3669 163.299 43.6458Z" fill="#FEF7FF"/>
<path d="M169.116 42.2711C168.889 42.5138 168.682 42.7736 168.496 43.0482C168.316 43.3172 168.136 43.5762 167.966 43.8552C167.797 44.1341 167.647 44.4031 167.497 44.692C167.342 44.9824 167.205 45.2818 167.087 45.5886C167.367 45.4065 167.617 45.1812 167.827 44.9212C168.256 44.4225 168.594 43.8526 168.826 43.2375C168.963 42.9289 169.061 42.6042 169.116 42.2711Z" fill="#FEF7FF"/>
<path d="M161.009 50.1314C160.815 50.0701 160.613 50.0365 160.41 50.0318C160.22 50.0169 160.03 50.0169 159.84 50.0318C159.654 50.0539 159.47 50.0906 159.29 50.1414C159.093 50.1992 158.905 50.2829 158.73 50.3905C158.916 50.4791 159.116 50.5331 159.32 50.5499C159.516 50.5748 159.714 50.5748 159.91 50.5499C160.101 50.5316 160.29 50.4881 160.47 50.4204C160.665 50.3553 160.847 50.2576 161.009 50.1314Z" fill="#FEF7FF"/>
</svg>
