<svg width="212" height="205" viewBox="0 0 212 205" fill="none" xmlns="http://www.w3.org/2000/svg">
<path d="M65.5483 39.9796L60.7006 46.2859L58.7016 48.9559L53.4341 55.8001C53.4341 55.8001 88.2075 83.1074 97.623 92.6615C106.479 101.628 133.606 128.447 167.32 144.795C174.585 148.271 180.54 153.976 184.312 161.074C185.198 162.746 185.976 164.473 186.641 166.245C189.639 174.215 188.78 179.535 191.208 185.034C193.497 190.215 201.394 192.596 207.081 185.901C208.717 184.134 209.914 182.01 210.577 179.698C211.24 177.387 211.35 174.952 210.899 172.591C208.68 159.46 190.539 142.484 178.215 136.457C163.362 129.194 138.054 119.152 114.805 80.0489L65.5483 39.9796ZM205.901 180.162C204.652 182.783 202.183 184.237 200.404 183.39C198.625 182.543 198.205 179.734 199.454 177.104C200.704 174.474 203.163 173.029 204.952 173.876C206.741 174.723 207.191 177.532 205.901 180.162Z" fill="#7B2CBF"/>
<path d="M201.494 190.484C200.224 190.824 198.897 190.902 197.596 190.713C196.043 190.498 194.569 189.895 193.311 188.962C192.053 188.029 191.052 186.794 190.399 185.373C189.315 182.669 188.605 179.83 188.29 176.935C187.846 173.394 187.015 169.913 185.812 166.554C185.155 164.811 184.39 163.111 183.523 161.463C179.825 154.532 174.015 148.951 166.931 145.523C152.467 138.549 137.555 128.766 122.632 116.631C113.673 109.307 105.124 101.498 97.0239 93.2393C87.7383 83.7948 53.2547 56.6868 52.9049 56.3779L52.3052 55.9097L65.4189 38.8738L115.395 79.5408L115.465 79.6504C136.985 115.844 160.054 126.893 175.317 134.205C176.436 134.743 177.525 135.261 178.555 135.769C184.972 138.908 192.548 144.736 198.895 151.321C206.092 158.843 210.62 166.344 211.659 172.461C212.799 179.226 210.07 183.48 207.561 186.409C206.009 188.358 203.89 189.782 201.494 190.484ZM54.4741 55.6706C59.1419 59.3468 89.4575 83.3366 98.1333 92.1534C120.253 114.649 144.931 133.089 167.62 144.128C175.002 147.7 181.057 153.515 184.912 160.735C185.81 162.442 186.602 164.202 187.281 166.006C188.521 169.466 189.379 173.05 189.84 176.695C190.141 179.456 190.813 182.163 191.839 184.745C192.385 185.926 193.22 186.951 194.268 187.726C195.317 188.501 196.543 189 197.836 189.178C200.934 189.617 203.983 188.292 206.412 185.433C207.994 183.756 209.158 181.731 209.81 179.523C210.461 177.314 210.581 174.984 210.16 172.72C207.941 159.56 189.57 142.833 177.905 137.154L174.677 135.6C159.264 128.218 135.975 117.07 114.236 80.567L65.6788 41.0855L54.4741 55.6706ZM202.554 184.277C201.744 184.506 200.879 184.439 200.115 184.088C199.543 183.79 199.056 183.354 198.698 182.819C198.34 182.285 198.123 181.669 198.066 181.029C197.878 179.567 198.132 178.082 198.795 176.765C200.255 173.707 203.123 172.133 205.322 173.169C207.521 174.205 208.101 177.433 206.642 180.491C206.269 181.375 205.712 182.17 205.007 182.823C204.302 183.476 203.466 183.971 202.554 184.277ZM203.293 174.494C202.602 174.746 201.971 175.137 201.438 175.642C200.905 176.148 200.481 176.757 200.195 177.433C199.673 178.474 199.468 179.644 199.605 180.8C199.629 181.187 199.749 181.562 199.955 181.89C200.161 182.219 200.446 182.492 200.784 182.683C202.144 183.331 204.193 182.025 205.242 179.824C206.292 177.622 206.022 175.221 204.653 174.573C204.223 174.389 203.742 174.361 203.293 174.494Z" fill="#240046"/>
<path d="M205.203 174.006C203.423 173.169 200.965 174.613 199.715 177.233C198.466 179.854 198.886 182.683 200.665 183.52C202.444 184.357 204.903 182.922 206.162 180.292C207.421 177.662 206.982 174.852 205.203 174.006ZM204.203 179.605C203.313 181.468 201.564 182.504 200.295 181.896C199.025 181.288 198.716 179.296 199.615 177.423C200.515 175.55 202.254 174.514 203.523 175.121C204.793 175.729 205.133 177.732 204.233 179.605H204.203Z" fill="#240046"/>
<path d="M170.419 140.661C177.661 144.151 183.597 149.854 187.361 156.94C188.499 159.011 189.53 161.139 190.45 163.316C193.448 171.286 192.858 175.161 194.907 181.916C196.407 186.897 203.713 188.242 209.311 182.653C208.648 183.821 207.867 184.92 206.982 185.931C201.294 192.626 193.398 190.245 191.109 185.064C188.68 179.565 189.52 174.245 186.541 166.275C185.875 164.501 185.097 162.77 184.213 161.094C180.438 154.001 174.483 148.3 167.221 144.825C133.557 128.477 106.38 101.698 97.5239 92.6914C88.1084 83.1074 53.335 55.83 53.335 55.83L56.5134 51.6956C57.7529 52.6918 91.4268 79.1523 100.672 88.5569C109.578 97.5431 136.745 124.312 170.419 140.661Z" fill="#240046"/>
<path d="M99.0625 91.2468C90.7065 82.7488 63.3095 60.9906 56.2829 55.4415L58.7217 52.2734C58.0442 52.0251 57.4891 51.5253 57.1725 50.8787L53.3843 55.8002C53.3843 55.8002 88.1577 83.1074 97.5732 92.6615C106.429 101.628 133.556 128.447 167.27 144.795C174.535 148.271 180.49 153.976 184.262 161.074C185.148 162.746 185.926 164.473 186.591 166.245C189.589 174.215 188.73 179.535 191.159 185.034C193.448 190.215 201.344 192.596 207.031 185.901C207.301 185.582 207.591 185.233 207.871 184.905L207.941 184.815C207.593 184.719 207.272 184.545 207.002 184.307C206.732 184.068 206.52 183.772 206.381 183.44L206.231 183.639C205.992 183.948 205.742 184.247 205.452 184.636C203.323 187.146 200.694 188.312 198.055 187.933C196.98 187.791 195.958 187.381 195.084 186.74C194.21 186.099 193.513 185.248 193.058 184.267C192.082 181.79 191.446 179.193 191.169 176.546C190.698 172.808 189.817 169.133 188.54 165.587C187.842 163.732 187.027 161.922 186.101 160.168C182.123 152.697 175.864 146.682 168.23 142.992C153.966 136.068 139.243 126.454 124.48 114.43C115.586 107.174 107.101 99.4348 99.0625 91.2468Z" fill="#E0AAFF"/>
<path d="M205.362 184.566C205.931 183.69 206.442 182.778 206.892 181.836C207.316 180.919 207.621 179.951 207.801 178.957C208.112 176.972 208.064 174.948 207.661 172.979C207.272 170.954 206.682 168.972 205.902 167.062C205.102 165.132 204.204 163.243 203.213 161.403C204.582 163.027 205.765 164.798 206.742 166.683C207.742 168.585 208.482 170.612 208.941 172.71C209.454 174.845 209.454 177.071 208.941 179.206C208.647 180.269 208.185 181.278 207.571 182.195C206.949 183.084 206.206 183.882 205.362 184.566Z" fill="#240046"/>
<path d="M201.494 190.484C200.224 190.824 198.897 190.902 197.596 190.713C196.043 190.498 194.569 189.895 193.311 188.962C192.053 188.029 191.052 186.794 190.399 185.373C189.315 182.669 188.605 179.83 188.29 176.935C187.846 173.394 187.015 169.913 185.812 166.554C185.155 164.811 184.39 163.111 183.523 161.463C179.825 154.532 174.015 148.951 166.931 145.523C152.467 138.549 137.555 128.766 122.632 116.631C113.673 109.307 105.124 101.498 97.0239 93.2393C87.7383 83.7948 53.2547 56.6868 52.9049 56.3779L52.3052 55.9097L65.4189 38.8738L115.395 79.5408L115.465 79.6504C136.985 115.844 160.054 126.893 175.317 134.205C176.436 134.743 177.525 135.261 178.555 135.769C184.972 138.908 192.548 144.736 198.895 151.321C206.092 158.843 210.62 166.344 211.659 172.461C212.799 179.226 210.07 183.48 207.561 186.409C206.009 188.358 203.89 189.782 201.494 190.484ZM54.4741 55.6706C59.1419 59.3468 89.4575 83.3366 98.1333 92.1534C120.253 114.649 144.931 133.089 167.62 144.128C175.002 147.7 181.057 153.515 184.912 160.735C185.81 162.442 186.602 164.202 187.281 166.006C188.521 169.466 189.379 173.05 189.84 176.695C190.141 179.456 190.813 182.163 191.839 184.745C192.385 185.926 193.22 186.951 194.268 187.726C195.317 188.501 196.543 189 197.836 189.178C200.934 189.617 203.983 188.292 206.412 185.433C207.994 183.756 209.158 181.731 209.81 179.523C210.461 177.314 210.581 174.984 210.16 172.72C207.941 159.56 189.57 142.833 177.905 137.154L174.677 135.6C159.264 128.218 135.975 117.07 114.236 80.567L65.6788 41.0855L54.4741 55.6706ZM202.554 184.277C201.744 184.506 200.879 184.439 200.115 184.088C199.543 183.79 199.056 183.354 198.698 182.819C198.34 182.285 198.123 181.669 198.066 181.029C197.878 179.567 198.132 178.082 198.795 176.765C200.255 173.707 203.123 172.133 205.322 173.169C207.521 174.205 208.101 177.433 206.642 180.491C206.269 181.375 205.712 182.17 205.007 182.823C204.302 183.476 203.466 183.971 202.554 184.277ZM203.293 174.494C202.602 174.746 201.971 175.137 201.438 175.642C200.905 176.148 200.481 176.757 200.195 177.433C199.673 178.474 199.468 179.644 199.605 180.8C199.629 181.187 199.749 181.562 199.955 181.89C200.161 182.219 200.446 182.492 200.784 182.683C202.144 183.331 204.193 182.025 205.242 179.824C206.292 177.622 206.022 175.221 204.653 174.573C204.223 174.389 203.742 174.361 203.293 174.494Z" fill="#240046"/>
<path d="M97.7332 73.7029C97.9531 73.8324 98.1031 73.942 98.273 74.0615C98.4429 74.1811 98.6028 74.3106 98.7528 74.4401C99.0726 74.6892 99.3725 74.9582 99.6623 75.2271C100.232 75.7733 100.769 76.3521 101.272 76.9606C101.401 77.1101 101.521 77.2595 101.641 77.4189L101.991 77.8672C102.211 78.1561 102.461 78.4351 102.701 78.724C103.201 79.2819 103.7 79.8298 104.25 80.3778C105.32 81.4637 106.419 82.5197 107.489 83.6056C108.574 84.674 109.576 85.823 110.487 87.0427C109.467 85.9134 108.365 84.8611 107.189 83.8946C106.029 82.8983 104.84 81.902 103.68 80.9058C103.101 80.3977 102.521 79.9095 101.961 79.3516C101.681 79.0826 101.401 78.8137 101.132 78.5148L100.742 78.0964C100.622 77.9569 100.492 77.8274 100.362 77.6879C99.8574 77.1946 99.3234 76.7321 98.7627 76.3031C98.4729 76.074 98.183 75.8548 97.8832 75.6555L97.4334 75.3068L96.9536 75.0678L97.7332 73.7029Z" fill="#240046"/>
<path d="M91.7763 79.7501C92.7211 80.0488 93.643 80.415 94.535 80.846C95.4102 81.2877 96.255 81.787 97.0638 82.3404C98.6464 83.4495 100.113 84.7144 101.442 86.1162C102.101 86.8036 102.731 87.5209 103.341 88.2581C103.95 88.9954 104.54 89.7127 105.19 90.4001C106.481 91.783 107.903 93.0375 109.438 94.146C107.828 93.1405 106.325 91.9756 104.95 90.6691C104.24 90.0315 103.581 89.3241 102.951 88.6765C102.321 88.029 101.642 87.3216 100.952 86.684C99.5641 85.4006 98.0505 84.2591 96.4341 83.2769C95.6327 82.8289 94.8049 82.4297 93.9552 82.0814C93.1162 81.7536 92.2543 81.4873 91.3765 81.2844L91.7763 79.7501Z" fill="#240046"/>
<path d="M130.868 115.057C130.699 114.762 130.508 114.479 130.298 114.211L129.968 113.772L129.618 113.354C129.378 113.065 129.128 112.796 128.879 112.517C128.629 112.238 128.369 111.959 128.109 111.69C127.109 110.604 125.99 109.538 124.9 108.482L121.602 105.334L119.943 103.75L119.143 102.943L118.743 102.524L118.374 102.096L118.783 102.495L119.203 102.873L120.073 103.61L121.842 105.045L125.4 107.904C126.58 108.9 127.749 109.837 128.899 110.893C129.188 111.142 129.478 111.401 129.758 111.67C130.038 111.939 130.328 112.188 130.598 112.467L131.008 112.885C131.147 113.025 131.277 113.184 131.417 113.324C131.695 113.639 131.952 113.972 132.187 114.32L130.868 115.057Z" fill="#240046"/>
<path d="M114.885 96.1285C115.885 96.9455 116.884 97.7724 117.884 98.5893L119.373 99.8047C119.873 100.213 120.373 100.622 120.882 101.02C121.392 101.419 121.882 101.827 122.382 102.226L123.891 103.431L125.4 104.627C125.91 105.035 126.4 105.424 126.959 105.792C126.345 105.565 125.753 105.281 125.19 104.945C124.621 104.627 124.071 104.288 123.531 103.949C122.991 103.61 122.462 103.212 121.932 102.833C121.402 102.455 120.932 102.046 120.393 101.638C119.393 100.821 118.394 99.9741 117.474 99.0575C116.543 98.1436 115.677 97.1648 114.885 96.1285Z" fill="#240046"/>
<path d="M136.096 109.329C134.378 108.353 132.749 107.23 131.228 105.972C129.704 104.727 128.252 103.396 126.88 101.987C125.51 100.575 124.243 99.0671 123.092 97.4735L122.262 96.2282L121.483 94.9829L120.763 93.7077L120.113 92.4026L120.913 93.618L121.762 94.8036L122.652 95.9492L123.582 97.0551C124.854 98.503 126.216 99.8705 127.66 101.15C129.1 102.421 130.609 103.615 132.178 104.726C133.737 105.842 135.326 106.908 136.915 107.994L136.096 109.329Z" fill="#240046"/>
<path d="M99.8924 69.688L112.396 80.2184L98.9429 70.9134L99.8924 69.688Z" fill="#240046"/>
<path d="M103.48 83.4562C106.269 85.3989 109.008 87.4412 111.627 89.6329C112.959 90.7288 114.229 91.8745 115.435 93.07C116.054 93.6678 116.634 94.3054 117.214 94.9231C117.794 95.5407 118.373 96.1584 118.963 96.7661C119.553 97.3738 120.133 97.9915 120.742 98.5494C120.882 98.6845 121.032 98.8078 121.192 98.918H121.062C120.979 98.936 120.905 98.9817 120.852 99.0475C120.824 99.083 120.804 99.1237 120.792 99.1671C120.791 99.1837 120.791 99.2003 120.792 99.2169C120.777 99.1492 120.757 99.0827 120.732 99.0177C120.602 98.649 120.422 98.2605 120.252 97.8819C119.526 96.3663 118.691 94.9047 117.754 93.5084C117.514 93.1597 117.264 92.821 117.004 92.5121C116.744 92.2033 116.454 91.8745 116.184 91.5159C115.635 90.8683 115.075 90.2307 114.525 89.5234C113.975 88.816 113.456 88.1983 112.956 87.5308C112.707 87.1844 112.477 86.8252 112.266 86.4549C112.042 86.0864 111.883 85.6819 111.797 85.2594C111.917 85.6688 112.11 86.0534 112.366 86.3951C112.596 86.7438 112.856 87.0726 113.116 87.3914C113.656 88.0389 114.235 88.6666 114.815 89.2843L116.604 91.2469C116.904 91.5557 117.184 91.8646 117.474 92.2431C117.76 92.5616 118.03 92.8941 118.283 93.2394C118.799 93.9302 119.276 94.6486 119.713 95.3913C120.153 96.1285 120.572 96.8757 120.952 97.6428C121.153 98.0337 121.33 98.4362 121.482 98.8483C121.533 98.9761 121.567 99.1101 121.582 99.2468C121.587 99.2798 121.587 99.3134 121.582 99.3464C121.582 99.3464 121.582 99.4062 121.582 99.4361C121.567 99.4894 121.543 99.5398 121.512 99.5855C121.452 99.6615 121.367 99.7143 121.272 99.735H121.142H121.022H120.932H120.842C120.649 99.6012 120.466 99.4547 120.292 99.2966C119.653 98.7088 119.053 98.1011 118.463 97.4834C117.874 96.8657 117.294 96.2381 116.714 95.6105C116.134 94.9828 115.505 94.2356 114.945 93.5781C113.766 92.3726 112.516 91.2269 111.257 90.0912C109.997 88.9555 108.708 87.8497 107.409 86.7438C106.109 85.638 104.78 84.5521 103.48 83.4562Z" fill="#240046"/>
<path d="M175.916 142.614C177.045 143.441 178.115 144.317 179.144 145.234C180.174 146.15 181.143 147.107 182.143 148.113C183.142 149.119 183.992 150.105 184.851 151.211C185.722 152.267 186.507 153.39 187.2 154.569C186.4 153.468 185.518 152.429 184.562 151.46C183.612 150.464 182.623 149.558 181.563 148.671C180.504 147.784 179.474 146.937 178.395 146.14C177.315 145.343 176.186 144.586 175.036 143.899L175.916 142.614Z" fill="#240046"/>
<path d="M184.022 148.272C185.041 149.039 185.976 149.911 186.811 150.873C187.241 151.351 187.631 151.869 188.031 152.347C188.43 152.825 188.78 153.343 189.14 153.901L189.65 154.698C189.82 154.967 189.99 155.236 190.15 155.515L190.609 156.342C190.769 156.621 190.909 156.91 191.049 157.189C191.626 158.324 192.091 159.511 192.438 160.735C191.809 159.63 191.169 158.554 190.519 157.488C190.18 156.96 189.86 156.422 189.52 155.894C189.18 155.366 188.84 154.897 188.52 154.33C188.2 153.762 187.821 153.333 187.461 152.785C187.101 152.237 186.731 151.789 186.371 151.251C185.602 150.245 184.832 149.259 184.022 148.272Z" fill="#240046"/>
<path d="M191.309 155.246C191.824 155.79 192.283 156.384 192.678 157.019C193.085 157.654 193.439 158.32 193.738 159.012C194.048 159.693 194.308 160.396 194.518 161.114C194.728 161.831 194.878 162.564 194.967 163.306C194.578 162.658 194.258 161.991 193.968 161.313C193.678 160.636 193.358 159.978 193.058 159.321L192.169 157.328C191.909 156.631 191.559 156.003 191.309 155.246Z" fill="#240046"/>
<path d="M178.096 138.011C180.066 139.09 181.969 140.287 183.793 141.597C185.606 142.895 187.28 144.374 188.791 146.011C187.109 144.576 185.284 143.317 183.343 142.255C181.405 141.184 179.402 140.232 177.346 139.406L178.096 138.011Z" fill="#240046"/>
<path d="M200.514 175.689C199.913 176.386 199.44 177.181 199.115 178.04C198.883 178.808 198.862 179.623 199.055 180.402C200.758 180.348 202.43 180.875 203.792 181.896C207.511 184.735 207.79 190.643 204.322 195.096C200.854 199.55 195.116 200.855 191.398 198.015C187.68 195.176 187.55 189.208 190.978 184.755C190.978 184.755 190.549 183.58 190.209 182.444C189.971 181.695 189.778 180.934 189.629 180.162C188.944 180.869 188.3 181.614 187.7 182.394C182.702 188.949 183.012 197.647 188.48 201.821C193.947 205.995 202.473 204.073 207.471 197.517C212.468 190.962 212.158 182.275 206.691 178.1C204.682 176.546 203.053 175.63 200.514 175.689Z" fill="#00CAFF"/>
<path d="M198.905 204.312C197.073 204.852 195.141 204.965 193.258 204.64C191.376 204.315 189.593 203.562 188.05 202.439C182.253 198.005 181.843 188.81 187.131 181.926C187.753 181.125 188.42 180.36 189.13 179.634L190.209 178.499L190.459 180.033C190.609 180.769 190.796 181.497 191.019 182.215C191.229 182.902 191.469 183.58 191.629 184.038C191.839 184.656 191.919 184.885 191.629 185.223C190.111 187.144 189.3 189.524 189.33 191.968C189.32 193.01 189.547 194.04 189.993 194.983C190.44 195.925 191.095 196.754 191.909 197.408C195.277 199.978 200.594 198.733 203.743 194.628C205.257 192.724 206.052 190.352 205.992 187.923C205.986 186.883 205.747 185.858 205.292 184.922C204.837 183.986 204.178 183.163 203.363 182.514C202.141 181.599 200.642 181.127 199.115 181.179H198.505L198.346 180.601C198.11 179.668 198.137 178.689 198.425 177.771C198.788 176.819 199.312 175.936 199.975 175.161L200.195 174.912H200.534C203.233 174.852 205.032 175.809 207.231 177.483C213.029 181.906 213.438 191.111 208.151 197.985C205.852 201.052 202.602 203.276 198.905 204.312ZM189.25 181.776C188.96 182.115 188.67 182.474 188.36 182.872C183.603 189.069 183.882 197.298 189 201.203C194.118 205.109 202.164 203.196 206.931 197.049C211.699 190.902 211.409 182.623 206.292 178.708C204.393 177.263 203.003 176.496 200.934 176.466C200.51 177.027 200.173 177.648 199.935 178.309C199.794 178.736 199.746 179.188 199.795 179.634C201.442 179.713 203.028 180.286 204.343 181.278C205.343 182.065 206.154 183.064 206.716 184.204C207.278 185.343 207.577 186.594 207.591 187.863C207.662 190.651 206.753 193.375 205.022 195.565C201.344 200.357 195.027 201.731 191.029 198.633C190.029 197.843 189.222 196.837 188.668 195.691C188.114 194.546 187.828 193.29 187.831 192.018C187.793 189.358 188.628 186.759 190.209 184.616V184.546C190.049 184.108 189.8 183.38 189.58 182.673C189.37 182.364 189.28 182.065 189.2 181.776H189.25Z" fill="#240046"/>
<path d="M199.115 177.263C200.802 177.333 202.448 177.802 203.917 178.632C205.386 179.462 206.635 180.628 207.561 182.035C208.006 182.726 208.362 183.469 208.621 184.247C208.88 185.017 209.037 185.818 209.09 186.628C209.179 188.227 208.968 189.828 208.471 191.35C208.838 189.817 208.912 188.229 208.691 186.668C208.471 185.145 207.862 183.704 206.922 182.484C205.993 181.289 204.794 180.33 203.423 179.684C202.078 179.054 200.6 178.757 199.115 178.818V177.263Z" fill="#240046"/>
<path d="M203.073 199.191C201.96 200.064 200.715 200.757 199.385 201.243C198.717 201.492 198.028 201.682 197.326 201.811C196.976 201.861 196.616 201.931 196.267 201.951C196.087 201.951 195.907 201.951 195.727 201.951H195.187C194.101 201.933 193.025 201.745 191.999 201.393C191.829 201.333 191.659 201.253 191.489 201.183C191.32 201.119 191.156 201.043 190.999 200.954C190.655 200.793 190.321 200.61 190 200.406C189.695 200.207 189.404 199.988 189.13 199.749C188.573 199.265 188.076 198.717 187.651 198.115C186.814 196.916 186.229 195.56 185.931 194.13C185.642 192.686 185.601 191.204 185.812 189.746C186.276 186.818 187.589 184.09 189.59 181.896L190.729 182.952C188.823 184.865 187.515 187.287 186.961 189.926C186.711 191.241 186.688 192.588 186.891 193.911C187.103 195.244 187.582 196.522 188.3 197.667C188.662 198.237 189.096 198.759 189.59 199.221C189.833 199.456 190.094 199.672 190.369 199.868C190.641 200.071 190.925 200.258 191.219 200.426C191.368 200.511 191.522 200.587 191.679 200.655C191.829 200.725 191.979 200.815 192.139 200.875C192.464 201.006 192.798 201.116 193.138 201.203C193.79 201.389 194.46 201.503 195.137 201.542H195.657C195.837 201.542 196.007 201.542 196.177 201.542C196.511 201.531 196.845 201.501 197.176 201.452C197.855 201.353 198.523 201.196 199.175 200.984C200.562 200.597 201.878 199.991 203.073 199.191Z" fill="#240046"/>
<path d="M196.837 181.717C196.503 181.464 196.23 181.141 196.037 180.77C195.844 180.407 195.677 180.031 195.537 179.644C195.266 178.883 195.062 178.1 194.927 177.303C194.776 176.51 194.679 175.708 194.638 174.902C194.573 174.1 194.573 173.294 194.638 172.491C194.877 173.268 195.057 174.045 195.217 174.823C195.377 175.6 195.527 176.387 195.667 177.164C195.807 177.941 195.947 178.708 196.107 179.485C196.187 179.864 196.267 180.252 196.377 180.621C196.472 181.008 196.627 181.377 196.837 181.717Z" fill="#240046"/>
<path d="M206.551 171.515C205.717 170.503 204.958 169.431 204.282 168.307C204.103 168.038 203.933 167.749 203.773 167.47C203.613 167.191 203.453 166.892 203.303 166.603C202.993 166.036 202.703 165.448 202.413 164.86C202.123 164.272 201.864 163.664 201.614 163.067C201.364 162.469 201.104 161.871 200.874 161.264C200.644 160.656 200.394 160.058 200.134 159.46C199.9 158.857 199.591 158.285 199.215 157.757C199.722 158.19 200.148 158.71 200.474 159.291C200.837 159.848 201.171 160.423 201.474 161.014C201.774 161.592 202.043 162.18 202.333 162.768L203.163 164.521L204.003 166.275C204.282 166.862 204.572 167.44 204.862 168.018C205.382 169.184 205.992 170.329 206.551 171.515Z" fill="#240046"/>
<path d="M201.434 166.524C201.726 166.734 201.986 166.985 202.204 167.271C202.421 167.55 202.615 167.847 202.783 168.158C202.952 168.478 203.096 168.811 203.213 169.154C203.339 169.474 203.423 169.809 203.463 170.15C203.239 169.877 203.035 169.587 202.853 169.283C202.663 168.994 202.494 168.696 202.334 168.397C202.174 168.098 202.014 167.789 201.864 167.48C201.714 167.171 201.564 166.862 201.434 166.524Z" fill="#240046"/>
<path d="M34.1807 34.4833L39.269 27.8643C40.2879 26.5387 41.7935 25.671 43.4543 25.4519C45.1152 25.2327 46.7954 25.6802 48.1253 26.6959L50.4261 28.453L37.6599 45.0599L35.359 43.3027C34.0291 42.2871 33.1585 40.7865 32.9387 39.131C32.7188 37.4756 33.1678 35.8009 34.1868 34.4754L34.1807 34.4833Z" fill="#00CAFF"/>
<path d="M37.8021 46.1564L33.9839 43.2274C33.3641 42.7553 32.8438 42.1661 32.4525 41.4934C32.0613 40.8208 31.8069 40.0779 31.7039 39.3072C31.6008 38.5365 31.6512 37.7531 31.852 37.0018C32.0529 36.2505 32.4003 35.546 32.8744 34.9286L39.3614 26.4904C39.8341 25.8729 40.4244 25.3545 41.0984 24.9647C41.7724 24.5749 42.5169 24.3213 43.2893 24.2186C44.0617 24.1159 44.8469 24.166 45.5998 24.3661C46.3528 24.5661 47.0588 24.9122 47.6774 25.3845L51.5156 28.3235L37.8021 46.1564ZM42.9796 25.8627C42.0458 26.1078 41.2198 26.6543 40.6307 27.4169L34.1338 35.8751C33.7829 36.3292 33.5253 36.848 33.376 37.4017C33.2267 37.9553 33.1886 38.5329 33.2638 39.1012C33.339 39.6696 33.5261 40.2175 33.8144 40.7136C34.1026 41.2097 34.4863 41.6442 34.9435 41.9921L37.5522 43.9846L49.3366 28.6024L46.7378 26.6099C46.2823 26.2597 45.7612 26.0036 45.2052 25.8565C44.6491 25.7094 44.0692 25.6743 43.4994 25.7532C43.3236 25.7764 43.1498 25.813 42.9796 25.8627Z" fill="#240046"/>
<path d="M36.0405 37.4611L42.6364 28.8809C43.6554 27.5554 45.1609 26.6876 46.8218 26.4685C48.4827 26.2494 50.1629 26.6969 51.4927 27.7125L53.7936 29.4697L39.5075 48.0536L37.2067 46.2964C36.5475 45.793 35.9944 45.165 35.579 44.4483C35.1636 43.7317 34.894 42.9404 34.7857 42.1198C34.6774 41.2992 34.7324 40.4653 34.9478 39.6659C35.1631 38.8666 35.5344 38.1173 36.0405 37.4611Z" fill="#00CAFF"/>
<path d="M39.6515 49.1354L35.8133 46.2064C34.5765 45.242 33.7684 43.8326 33.5629 42.2809C33.3573 40.7291 33.7705 39.1589 34.7138 37.9076L42.71 27.4868C43.6776 26.254 45.0916 25.4486 46.6484 25.2437C48.2053 25.0388 49.7806 25.4507 51.036 26.3909L54.8742 29.3199L39.6515 49.1354ZM46.3083 26.8691C45.3732 27.1332 44.5534 27.7013 43.9794 28.4831L35.9832 38.8541C35.6322 39.3082 35.3747 39.827 35.2254 40.3806C35.0761 40.9343 35.038 41.5118 35.1132 42.0802C35.1884 42.6485 35.3755 43.1965 35.6638 43.6926C35.952 44.1887 36.3357 44.6231 36.7928 44.971L39.3916 46.9636L52.7052 29.6088L50.0965 27.6163C49.5655 27.2093 48.9473 26.9301 48.2902 26.8005C47.6331 26.6709 46.9548 26.6944 46.3083 26.8691Z" fill="#240046"/>
<path d="M124.101 116.801C123.232 118.345 126.83 120.437 127.42 120.477C128.419 122.081 130.088 123.575 131.598 123.306C132.897 125.558 135.156 127.202 136.845 127.022C137.705 128.656 142.183 130.609 142.183 130.609C142.183 130.609 144.731 133.458 146.88 133.598C147.024 134.069 147.329 134.475 147.741 134.746C148.154 135.017 148.648 135.136 149.139 135.082C149.969 136.288 152.907 137.304 152.907 137.304C154.127 139.127 156.985 139.555 156.985 139.555C156.985 139.555 159.044 141.637 160.874 141.309C161.56 142.054 162.392 142.651 163.319 143.064C164.245 143.477 165.246 143.696 166.261 143.71C166.886 144.615 167.839 145.244 168.92 145.463C169.841 146.765 171.205 147.688 172.758 148.063C175.757 147.226 180.834 140.213 179.965 136.248C179.345 135.331 176.886 133.747 175.886 133.906C175.207 132.711 172.278 131.476 171.808 131.416C170.559 130.25 169.037 129.414 167.381 128.985C167.311 128.088 165.901 126.992 162.643 125.727C161.843 125.727 160.434 124.99 160.404 124.592C160.374 124.193 157.925 122.39 156.126 121.752C156.126 120.895 152.128 118.275 150.738 118.206C149.819 117.13 147.36 115.008 146.261 115.057C145.638 114.13 144.729 113.43 143.672 113.065C142.902 111.899 140.233 109.727 138.934 109.439C138.124 107.844 136.065 105.732 135.076 105.453C134.666 108.113 131.548 114.091 124.101 116.801Z" fill="#00CAFF"/>
<path d="M125.25 117.677L128.738 115.834C129.465 116.134 130.276 116.155 131.017 115.894C130.639 116.624 130.18 117.309 129.648 117.936C130.449 118.656 131.446 119.123 132.513 119.279C133.581 119.435 134.67 119.273 135.645 118.813L133.516 121.593C133.516 121.593 140.063 123.336 142.772 119.78L143.771 120.437L140.203 124.89L141.632 125.189L143.101 124.352C144.177 125.429 145.535 126.181 147.02 126.524C148.179 126.638 149.344 126.672 150.508 126.624L147.419 128.925L149.898 130.519C149.898 130.519 152.387 132.043 156.555 129.413L153.327 132.621L155.646 133.199L155.286 134.195C155.286 134.195 157.555 136.018 161.193 133.657L159.504 136.845L161.743 136.297C161.743 136.297 164.551 138.031 166.96 136.427C166.275 137.123 165.506 137.732 164.671 138.24C165.515 138.816 166.397 139.335 167.31 139.794C169.049 140.731 170.408 139.346 170.638 139.505C170.708 139.555 168.589 141.249 168.639 141.299C170.528 142.584 172.527 143.69 174.047 143.809C175.566 143.929 177.205 141.179 177.265 141.249C179.014 143.241 172.887 146.728 172.887 146.728L161.223 140.262L155.646 137.931L151.218 135.192L146.27 132.263L141.972 129.274L136.165 125.767L133.356 123.774L130.258 121.413L126.17 118.544L125.25 117.677Z" fill="#240046"/>
<path d="M132.936 124.462L132.097 123.147C135.205 121.154 139.833 113.184 139.093 110.116L140.603 109.757C141.532 113.523 136.655 122.131 132.936 124.462Z" fill="#FEF7FF"/>
<path d="M136.005 108.472C136.521 109.009 136.961 109.612 137.315 110.265C137.429 110.512 137.599 110.73 137.81 110.903C138.021 111.075 138.269 111.198 138.534 111.262C139.932 111.946 141.168 112.917 142.163 114.111C142.397 114.468 142.751 114.729 143.162 114.848C143.714 115.063 144.207 115.404 144.601 115.844C144.741 116.159 144.967 116.428 145.254 116.621C145.54 116.813 145.875 116.92 146.221 116.93C147.409 117.57 148.472 118.417 149.359 119.431C149.517 119.617 149.71 119.77 149.928 119.879C150.146 119.989 150.385 120.053 150.628 120.069C152.031 120.608 153.32 121.406 154.427 122.42C154.515 122.673 154.66 122.903 154.851 123.093C155.041 123.283 155.272 123.427 155.526 123.516C156.709 124.008 157.808 124.681 158.785 125.508C159.354 126.743 161.103 127.441 162.223 127.59C163.463 127.982 164.614 128.612 165.611 129.443C165.688 129.815 165.88 130.153 166.159 130.411C166.439 130.668 166.793 130.831 167.171 130.878C168.353 131.236 169.448 131.833 170.389 132.631C170.664 132.975 171.054 133.209 171.489 133.289C172.531 133.639 173.495 134.187 174.327 134.903C174.499 135.2 174.752 135.442 175.056 135.603C175.36 135.763 175.703 135.835 176.046 135.809C176.859 136.101 177.608 136.544 178.255 137.114C178.114 139.042 177.42 140.889 176.256 142.434C175.344 143.951 174.109 145.25 172.638 146.24C171.737 145.93 170.957 145.344 170.409 144.566C170.279 144.359 170.107 144.181 169.904 144.044C169.701 143.906 169.471 143.813 169.23 143.769C168.678 143.664 168.18 143.372 167.82 142.942C167.661 142.626 167.412 142.364 167.105 142.187C166.798 142.01 166.445 141.926 166.091 141.946C165.335 141.914 164.593 141.734 163.907 141.416C163.221 141.098 162.605 140.649 162.093 140.093C161.884 139.878 161.626 139.717 161.34 139.625C161.054 139.533 160.75 139.512 160.454 139.565C159.581 139.415 158.783 138.981 158.185 138.33C157.916 138.054 157.566 137.873 157.185 137.812C156.104 137.654 155.108 137.138 154.357 136.347C154.132 136.019 153.811 135.768 153.437 135.63C152.39 135.308 151.416 134.787 150.568 134.096C150.375 133.811 150.103 133.588 149.786 133.452C149.469 133.316 149.12 133.273 148.779 133.329C148.7 133.298 148.629 133.25 148.569 133.189C148.477 132.824 148.272 132.497 147.983 132.254C147.694 132.011 147.337 131.864 146.96 131.834C145.961 131.755 144.301 130.34 143.462 129.413C143.291 129.213 143.075 129.056 142.832 128.955C140.833 128.078 138.704 126.763 138.374 126.186C138.214 125.857 137.957 125.585 137.637 125.407C137.317 125.229 136.95 125.153 136.585 125.189C135.856 125.269 134.176 124.193 133.107 122.38C132.921 122.055 132.638 121.795 132.298 121.636C131.958 121.478 131.577 121.428 131.208 121.493C130.838 121.563 129.788 120.875 128.879 119.501C128.747 119.297 128.576 119.121 128.375 118.984C128.174 118.847 127.948 118.752 127.709 118.704C127.205 118.472 126.735 118.174 126.31 117.817C129.125 116.539 131.608 114.634 133.567 112.248C134.514 111.095 135.31 109.826 135.935 108.472H136.005ZM135.076 105.483C134.666 108.133 131.548 114.111 124.081 116.821C123.212 118.365 126.81 120.457 127.4 120.497C128.399 122.101 130.068 123.595 131.578 123.326C132.877 125.578 135.136 127.222 136.825 127.042C137.685 128.676 142.163 130.629 142.163 130.629C142.163 130.629 144.711 133.478 146.86 133.618C147.004 134.089 147.309 134.495 147.721 134.766C148.134 135.037 148.628 135.156 149.119 135.102C149.949 136.307 152.887 137.324 152.887 137.324C154.107 139.147 156.965 139.575 156.965 139.575C156.965 139.575 159.024 141.657 160.854 141.329C161.54 142.074 162.372 142.671 163.299 143.084C164.225 143.497 165.226 143.716 166.241 143.73C166.866 144.635 167.819 145.264 168.9 145.483C169.821 146.784 171.185 147.708 172.738 148.083C175.737 147.246 180.814 140.233 179.944 136.268C179.325 135.351 176.866 133.767 175.866 133.926C175.187 132.731 172.258 131.496 171.788 131.436C170.539 130.27 169.017 129.434 167.36 129.005C167.291 128.108 165.881 127.012 162.623 125.747C161.823 125.747 160.414 125.01 160.384 124.611C160.354 124.213 157.905 122.41 156.106 121.772C156.106 120.915 152.108 118.295 150.718 118.225C149.799 117.149 147.34 115.027 146.241 115.077C145.618 114.15 144.709 113.45 143.652 113.085C142.882 111.919 140.213 109.747 138.914 109.458C138.104 107.864 136.045 105.752 135.056 105.473L135.076 105.483Z" fill="#FEF7FF"/>
<path d="M128.569 121.583L127.569 120.377C129.568 118.733 134.946 110.544 134.936 105.961H136.485C136.525 111.172 130.878 119.7 128.569 121.583Z" fill="#FEF7FF"/>
<path d="M131.647 123.735L130.647 122.21C133.986 120.088 138.264 112.138 137.584 109.319L139.343 108.891C140.293 112.706 135.375 121.374 131.647 123.735Z" fill="#FEF7FF"/>
<path d="M161.313 140.88C161.936 140.881 162.553 140.752 163.123 140.502C163.743 140.239 164.33 139.904 164.872 139.505C165.435 139.083 165.969 138.623 166.471 138.131C166.975 137.631 167.449 137.102 167.89 136.547C167.558 137.184 167.181 137.796 166.761 138.38C166.347 138.98 165.889 139.55 165.392 140.083C164.874 140.633 164.298 141.124 163.672 141.548C162.996 142.004 162.229 142.31 161.423 142.444L161.313 140.88Z" fill="#FEF7FF"/>
<path d="M152.658 137.503L151.858 136.178C153.667 135.082 154.856 131.625 154.587 129.652L156.126 129.423C156.516 131.904 155.056 136.078 152.658 137.503Z" fill="#FEF7FF"/>
<path d="M134.755 121.055C134.968 121.086 135.183 121.086 135.395 121.055C135.651 121.029 135.905 120.986 136.155 120.925C136.691 120.803 137.218 120.646 137.734 120.457C138.264 120.278 138.734 120.068 139.303 119.839C139.873 119.61 140.303 119.371 140.813 119.092C140.403 119.471 139.953 119.829 139.493 120.178C139.033 120.527 138.574 120.846 138.084 121.174C137.59 121.49 137.08 121.78 136.555 122.041C136.276 122.179 135.989 122.298 135.695 122.4L135.465 122.469L135.215 122.529C135.035 122.573 134.851 122.599 134.666 122.609L134.755 121.055Z" fill="#FEF7FF"/>
<path d="M137.355 127.291C137.027 127.381 136.693 127.448 136.355 127.491C136.127 127.512 135.899 127.446 135.717 127.306C135.535 127.166 135.413 126.963 135.375 126.738C135.337 126.512 135.386 126.28 135.512 126.089C135.638 125.898 135.832 125.762 136.055 125.707C138.624 125.159 143.322 119.58 144.791 114.41L146.54 114.908C145.587 117.92 144.06 120.721 142.042 123.157C145.321 121.164 148.579 118.634 149.359 117.349L150.918 118.275C149.469 120.676 141.932 126.116 137.355 127.291Z" fill="#FEF7FF"/>
<path d="M138.734 128.198C138.404 128.283 138.071 128.35 137.734 128.397C137.535 128.42 137.334 128.366 137.174 128.245C137.014 128.125 136.907 127.947 136.874 127.75C136.839 127.553 136.882 127.35 136.994 127.185C137.106 127.019 137.278 126.904 137.474 126.863C140.083 126.305 144.831 120.676 146.31 115.476L147.809 115.904C146.788 119.127 145.111 122.105 142.882 124.651C146.38 122.659 150.038 119.829 150.878 118.445L152.207 119.232C150.768 121.623 143.221 127.002 138.734 128.198Z" fill="#FEF7FF"/>
<path d="M145.791 132.402C146.395 132.133 146.969 131.799 147.5 131.406C148.056 130.982 148.58 130.519 149.069 130.021C149.566 129.517 150.02 128.974 150.429 128.397C150.85 127.822 151.14 127.163 151.278 126.464C151.262 127.2 151.089 127.923 150.769 128.586C150.458 129.256 150.094 129.899 149.679 130.509C149.256 131.124 148.792 131.71 148.29 132.263C147.766 132.837 147.179 133.352 146.541 133.797L145.791 132.402Z" fill="#FEF7FF"/>
<path d="M148.849 135.351H148.699L148.339 133.837C151.958 133 157.335 126.205 159.144 123.665L160.424 124.552C160.154 124.98 153.757 134.086 148.849 135.351Z" fill="#FEF7FF"/>
<path d="M153.997 138.519L153.197 137.194C155.006 136.108 156.196 132.641 155.926 130.679L157.465 130.439C157.845 132.93 156.386 137.074 153.997 138.519Z" fill="#FEF7FF"/>
<path d="M159.834 139.884C160.542 139.756 161.24 139.58 161.923 139.356C162.273 139.256 162.603 139.107 162.923 138.977C163.242 138.848 163.592 138.698 163.922 138.539C164.593 138.22 165.244 137.86 165.871 137.463C166.503 137.069 167.107 136.633 167.68 136.158C167.19 136.73 166.662 137.269 166.101 137.772C165.535 138.282 164.941 138.761 164.322 139.206C164.012 139.426 163.682 139.635 163.322 139.844C162.962 140.053 162.663 140.253 162.323 140.422C161.632 140.807 160.914 141.14 160.174 141.418L159.834 139.884Z" fill="#FEF7FF"/>
<path d="M166.021 143.799L165.631 143.889L165.331 142.365C168.769 141.677 173.327 136.676 174.517 133.219L175.996 133.717C174.827 137.074 170.209 142.683 166.021 143.799Z" fill="#FEF7FF"/>
<path d="M170.379 146.469L169.239 145.413C169.759 144.855 170.699 142.733 170.529 142.116L172.028 141.717C172.408 143.102 171.038 145.762 170.379 146.469Z" fill="#FEF7FF"/>
<path d="M141.623 128.935C141.804 128.988 141.993 129.011 142.183 129.005C142.416 129.019 142.649 129.019 142.882 129.005C143.362 128.945 143.882 128.845 144.361 128.736C145.361 128.487 146.361 128.178 147.36 127.829C148.36 127.481 149.359 127.092 150.299 126.674C151.238 126.255 152.228 125.807 153.157 125.289C152.307 125.93 151.423 126.525 150.509 127.072C149.599 127.63 148.679 128.158 147.73 128.656C146.772 129.163 145.788 129.619 144.781 130.021C144.264 130.235 143.733 130.414 143.192 130.559C142.577 130.745 141.933 130.812 141.293 130.758L141.623 128.935Z" fill="#FEF7FF"/>
<path d="M157.055 139.984C157.621 139.478 158.149 138.932 158.634 138.35C159.134 137.742 159.634 137.104 160.114 136.427C160.593 135.75 161.043 135.062 161.463 134.335C161.905 133.617 162.292 132.868 162.623 132.093C162.587 132.959 162.439 133.816 162.183 134.644C161.933 135.476 161.629 136.291 161.273 137.084C160.911 137.891 160.472 138.662 159.964 139.386C159.442 140.153 158.76 140.798 157.965 141.279L157.055 139.984Z" fill="#FEF7FF"/>
<path d="M161.323 137.413C161.159 137.468 160.984 137.487 160.811 137.468C160.639 137.449 160.472 137.393 160.324 137.304L161.103 135.959C161.033 135.932 160.954 135.932 160.883 135.959C161.703 135.829 164.882 132.571 167.23 129.622L168.44 130.619C168.44 130.619 166.931 132.482 165.291 134.205C163.292 136.317 162.113 137.204 161.323 137.413Z" fill="#FEF7FF"/>
<path d="M172.918 148.85C172.8 148.88 172.676 148.88 172.558 148.85C170.906 148.456 169.438 147.51 168.4 146.17C167.383 145.905 166.475 145.33 165.801 144.527C163.821 144.378 161.958 143.535 160.544 142.145C158.804 142.215 157.135 140.83 156.545 140.312C154.928 140.021 153.454 139.201 152.357 137.981C151.033 137.532 149.808 136.831 148.749 135.919C148.241 135.902 147.746 135.747 147.32 135.471C146.871 135.189 146.506 134.793 146.26 134.325C144.261 133.877 142.202 131.834 141.653 131.246C140.823 130.878 137.594 129.364 136.375 127.809C134.586 127.72 132.497 126.265 131.118 124.113C129.478 124.113 127.899 122.649 126.87 121.125C125.467 120.568 124.265 119.603 123.421 118.355C123.228 118.06 123.121 117.719 123.11 117.367C123.1 117.016 123.187 116.668 123.361 116.362C123.449 116.196 123.595 116.069 123.771 116.004C131.407 113.234 133.956 107.187 134.246 105.284C134.263 105.176 134.302 105.073 134.361 104.98C134.419 104.888 134.496 104.808 134.586 104.746C134.679 104.688 134.783 104.65 134.891 104.634C135 104.619 135.11 104.626 135.216 104.656C136.465 104.995 138.464 107.097 139.404 108.731C141.222 109.579 142.83 110.818 144.111 112.358C145.13 112.787 146.019 113.474 146.69 114.35C148.169 114.699 150.218 116.562 151.068 117.488C152.637 117.837 155.816 119.76 156.645 121.154C157.965 121.722 160.643 123.286 161.073 124.332C161.508 124.671 162.026 124.888 162.573 124.96C162.672 124.941 162.773 124.941 162.872 124.96C165.871 126.146 167.47 127.202 167.95 128.298C169.511 128.792 170.952 129.606 172.178 130.689C173.696 131.177 175.083 132.001 176.236 133.1C177.925 133.512 179.437 134.451 180.554 135.779C180.605 135.859 180.642 135.947 180.664 136.038C181.663 140.532 176.196 147.864 172.908 148.771L172.918 148.85ZM127.479 119.71C127.592 119.726 127.7 119.765 127.796 119.825C127.893 119.885 127.976 119.965 128.039 120.059C128.929 121.443 130.318 122.738 131.427 122.539C131.585 122.515 131.746 122.538 131.89 122.605C132.035 122.673 132.155 122.781 132.237 122.918C133.376 124.91 135.386 126.385 136.715 126.245C136.872 126.229 137.03 126.261 137.169 126.335C137.308 126.41 137.421 126.524 137.495 126.664C138.024 127.66 140.823 129.184 142.492 129.892C142.594 129.94 142.686 130.007 142.762 130.091C143.412 130.818 145.441 132.731 146.95 132.86C147.116 132.875 147.273 132.942 147.399 133.051C147.525 133.16 147.612 133.306 147.65 133.468C147.742 133.763 147.946 134.01 148.219 134.156C148.323 134.236 148.442 134.294 148.569 134.329C148.696 134.363 148.829 134.372 148.959 134.355C149.112 134.318 149.273 134.329 149.419 134.386C149.566 134.443 149.691 134.543 149.779 134.674C150.75 135.56 151.908 136.22 153.167 136.606C153.328 136.658 153.466 136.764 153.557 136.905C154.556 138.42 157.075 138.818 157.095 138.818C157.262 138.847 157.416 138.927 157.535 139.047C158.035 139.535 159.534 140.781 160.733 140.571C160.86 140.548 160.99 140.557 161.113 140.597C161.235 140.637 161.345 140.707 161.433 140.801C162.043 141.459 162.78 141.989 163.598 142.361C164.417 142.732 165.302 142.937 166.201 142.962C166.351 142.951 166.501 142.984 166.632 143.056C166.763 143.129 166.871 143.238 166.94 143.371C167.453 144.074 168.214 144.558 169.069 144.726C169.173 144.745 169.271 144.785 169.359 144.843C169.447 144.901 169.522 144.977 169.579 145.065C170.342 146.147 171.459 146.932 172.738 147.286C175.346 146.29 179.844 140.123 179.235 136.596C178.366 135.671 177.249 135.014 176.016 134.703C175.859 134.729 175.697 134.707 175.552 134.639C175.408 134.572 175.287 134.462 175.207 134.325C174.717 133.468 172.208 132.332 171.698 132.213C171.6 132.205 171.504 132.176 171.418 132.128C171.332 132.079 171.257 132.013 171.198 131.934C170.082 130.935 168.753 130.202 167.31 129.792C167.129 129.773 166.959 129.692 166.83 129.563C166.701 129.434 166.62 129.266 166.601 129.085C166.601 128.985 166.411 128.088 162.473 126.524C161.543 126.455 159.944 125.747 159.674 124.88C158.557 123.872 157.267 123.072 155.866 122.519C155.736 122.472 155.621 122.392 155.532 122.287C155.443 122.183 155.382 122.057 155.356 121.922C154.966 121.184 151.718 119.062 150.698 119.013C150.59 119.008 150.485 118.981 150.388 118.933C150.292 118.885 150.207 118.817 150.138 118.734C149.049 117.448 146.89 115.834 146.29 115.864C146.132 115.873 145.975 115.832 145.841 115.748C145.707 115.665 145.602 115.542 145.541 115.396C145.023 114.676 144.303 114.125 143.472 113.812C143.289 113.761 143.13 113.648 143.022 113.493C141.891 112.067 140.43 110.935 138.764 110.196C138.653 110.172 138.549 110.124 138.459 110.055C138.369 109.986 138.295 109.898 138.244 109.797C137.563 108.594 136.665 107.527 135.595 106.649C134.596 109.917 131.178 114.898 124.751 117.379C124.764 117.44 124.785 117.5 124.811 117.558C125.487 118.52 126.428 119.267 127.519 119.71H127.479ZM161.133 124.512C161.138 124.531 161.138 124.552 161.133 124.572C161.152 124.556 161.166 124.535 161.173 124.512H161.133Z" fill="#240046"/>
<path d="M132.017 123.964L131.188 122.649C134.286 120.656 138.924 112.686 138.184 109.628L139.703 109.259C140.603 113.025 135.715 121.623 132.017 123.964Z" fill="#240046"/>
<path d="M137.935 127.59C137.607 127.68 137.273 127.747 136.935 127.789C136.742 127.802 136.552 127.743 136.4 127.624C136.249 127.505 136.147 127.334 136.115 127.144C136.082 126.954 136.122 126.76 136.225 126.597C136.329 126.435 136.489 126.316 136.675 126.265C139.284 125.707 144.032 120.078 145.511 114.878L147.01 115.296C145.992 118.523 144.314 121.505 142.083 124.053C145.581 122.061 149.239 119.222 150.079 117.837L151.408 118.634C149.979 121.015 142.432 126.405 137.935 127.59Z" fill="#240046"/>
<path d="M149.469 135.829H149.319L148.969 134.315H149.079C152.687 133.319 158.005 126.684 159.764 124.163L161.043 125.05C160.774 125.448 154.377 134.534 149.469 135.829Z" fill="#240046"/>
<path d="M153.307 138.001L152.508 136.666C154.317 135.58 155.506 132.123 155.237 130.151L156.776 129.912C157.166 132.402 155.706 136.567 153.307 138.001Z" fill="#240046"/>
<path d="M166.711 144.427L166.421 144.497L166.091 142.982C169.529 142.255 174.017 137.184 175.147 133.697L176.626 134.175C175.506 137.622 170.919 143.321 166.711 144.427Z" fill="#240046"/>
<path d="M169.49 146.041L168.35 144.985C168.87 144.427 169.809 142.305 169.639 141.687L171.139 141.279C171.519 142.644 170.149 145.314 169.49 146.041Z" fill="#240046"/>
<path d="M160.683 140.581C161.373 140.472 162.045 140.271 162.682 139.984C163.34 139.694 163.978 139.362 164.591 138.987C165.211 138.609 165.821 138.18 166.41 137.742C167 137.304 167.59 136.835 168.14 136.337C167.68 136.925 167.14 137.483 166.67 138.031C166.161 138.583 165.624 139.108 165.061 139.605C164.494 140.123 163.889 140.599 163.252 141.03C162.579 141.481 161.854 141.849 161.093 142.126L160.683 140.581Z" fill="#240046"/>
<path d="M172.578 131.535C172.46 132.008 172.26 132.456 171.989 132.86C171.757 133.233 171.499 133.589 171.219 133.926C170.677 134.575 170.089 135.184 169.46 135.75C169.875 135.035 170.239 134.293 170.549 133.528C170.698 133.161 170.822 132.785 170.919 132.402C171.012 132.079 171.049 131.742 171.029 131.406L172.578 131.535Z" fill="#240046"/>
<path d="M160.814 136.377C160.656 136.425 160.491 136.439 160.328 136.421C160.164 136.402 160.007 136.35 159.864 136.268L160.644 134.923C160.578 134.882 160.501 134.862 160.424 134.863C161.244 134.733 164.372 131.485 166.781 128.527L167.99 129.523C167.99 129.523 166.471 131.376 164.842 133.109C162.783 135.281 161.603 136.168 160.814 136.377Z" fill="#240046"/>
<path d="M161.783 130.34C162.025 129.597 162.147 128.82 162.143 128.038C162.152 127.656 162.135 127.273 162.093 126.893C162.083 126.711 162.056 126.531 162.013 126.355C161.989 126.273 161.959 126.193 161.923 126.116V126.016V125.956L163.432 125.578C163.438 125.654 163.438 125.731 163.432 125.807V125.996V126.345C163.432 126.564 163.362 126.773 163.312 126.982C163.222 127.391 163.105 127.794 162.963 128.188C162.683 128.962 162.285 129.687 161.783 130.34Z" fill="#240046"/>
<path d="M146.51 132.95C147.099 132.672 147.642 132.306 148.119 131.864C148.643 131.399 149.127 130.893 149.569 130.35C150.015 129.798 150.416 129.212 150.768 128.596C151.133 127.981 151.387 127.307 151.518 126.604C151.514 127.339 151.379 128.068 151.118 128.756C150.624 130.165 149.901 131.484 148.979 132.661C148.49 133.293 147.91 133.85 147.26 134.315L146.51 132.95Z" fill="#240046"/>
<path d="M156.925 121.931C156.793 122.261 156.615 122.569 156.395 122.848C156.199 123.096 155.982 123.326 155.746 123.535C155.309 123.943 154.834 124.307 154.326 124.621C154.635 124.14 154.896 123.629 155.106 123.097C155.207 122.848 155.287 122.592 155.346 122.33C155.395 122.104 155.412 121.873 155.396 121.643L156.925 121.931Z" fill="#240046"/>
<path d="M144.451 113.164C144.237 113.915 143.869 114.614 143.372 115.217C142.915 115.778 142.38 116.271 141.783 116.681C142.169 116.115 142.475 115.498 142.692 114.848C142.888 114.251 142.959 113.62 142.902 112.995L144.451 113.164Z" fill="#240046"/>
<path d="M133.817 120.567C134.029 120.592 134.244 120.592 134.456 120.567C134.716 120.542 134.973 120.499 135.226 120.437C135.746 120.318 136.275 120.158 136.805 119.979C137.335 119.8 137.805 119.58 138.364 119.351C138.885 119.132 139.392 118.883 139.884 118.604C139.465 118.99 139.024 119.353 138.564 119.69C138.104 120.039 137.635 120.357 137.145 120.686C136.652 121.001 136.142 121.287 135.616 121.543C135.34 121.68 135.057 121.8 134.766 121.902L134.536 121.971L134.286 122.041C134.101 122.076 133.914 122.099 133.727 122.111L133.817 120.567Z" fill="#240046"/>
<path d="M50.2158 54.8935C51.3653 57.5137 57.2125 61.4688 58.322 61.0803C58.9716 62.7241 62.42 65.3243 63.3196 65.4439C64.3891 67.4364 69.5566 70.8734 70.4961 70.9233C70.4961 71.9693 75.8136 75.6355 76.7432 75.775C77.8127 77.648 82.2306 80.6965 82.9502 80.7563C83.2001 81.9817 85.8488 84.034 87.0183 84.3229C89.777 84.9904 105.13 73.2445 101.202 67.546C99.4623 65.0155 95.7641 62.7141 94.6147 63.0927C92.7455 60.0442 85.9588 55.3817 85.2291 55.2821C83.7698 52.1538 77.043 46.804 74.4343 45.7878C72.7375 43.8648 70.5672 42.4158 68.1373 41.5836C66.3621 39.5537 64.0476 38.0652 61.4605 37.2897C59.7413 36.961 50.2158 54.8935 50.2158 54.8935Z" fill="#00CAFF"/>
<path d="M53.2152 51.8451C55.9039 55.9297 57.703 57.0455 60.2119 56.2685L62.3808 57.2647C62.3808 57.2647 62.6807 59.7952 68.4479 63.3917C69.4475 64.3879 74.545 68.0442 75.1247 68.0741C75.6045 69.0703 80.4122 72.9159 81.1919 72.9358C81.5517 73.7826 85.03 76.0142 85.6397 76.1039C85.6397 76.1039 86.1395 67.7652 85.6397 65.693C86.827 68.4677 87.2546 71.5067 86.8791 74.4999C86.7247 75.298 86.7044 76.1161 86.8192 76.9208C86.7592 78.3753 91.277 82.0415 91.297 82.0415L86.9591 83.5459L84.4603 81.115L80.7221 77.9768L75.7944 74.1313L69.9672 69.5684L63.4703 64.4178L57.823 59.7952L52.6455 56.378L51.436 54.804L53.2152 51.8451Z" fill="#240046"/>
<path d="M81.6406 79.5808C82.5595 78.8984 83.3454 78.0543 83.9595 77.0901C84.6191 76.082 85.1465 74.9939 85.5288 73.8523C85.396 75.0845 85.1003 76.2939 84.6492 77.4488C84.1884 78.6564 83.5111 79.7705 82.6501 80.7364L81.6406 79.5808Z" fill="#FEF7FF"/>
<path d="M61.7403 39.2623C63.6327 40.0042 65.3264 41.174 66.688 42.6794L67.1278 43.2473L67.8074 43.3569C69.7799 44.1042 71.5472 45.3058 72.965 46.8637L73.2848 47.2921L73.7746 47.4814C76.0535 48.368 82.3905 53.4589 83.5899 56.0491L83.9897 56.9159L84.7593 57.0454C85.9988 57.6531 91.5961 61.6481 93.0454 64.0192L93.805 65.2545L94.9545 64.876C96.8393 65.6454 98.4726 66.9216 99.6722 68.5621C99.8322 68.7912 100.302 69.4786 99.6722 71.1324C98.9526 73.1747 96.8436 75.7849 93.955 78.2955C92.055 80.0751 89.8514 81.5022 87.4481 82.5096H87.3381C86.3 81.9836 85.3998 81.2227 84.7094 80.288L84.4395 79.0128L83.2801 78.9231C82.2805 78.4748 79.0221 76.0738 78.2824 74.8385L77.8426 74.0714L77.083 73.9618C75.3294 73.0091 73.7095 71.83 72.2653 70.455V69.1798L70.736 69.0901C69.5766 68.6518 65.6085 65.8622 64.9088 64.5572L64.469 63.7402L63.6694 63.6306C62.2153 62.8449 60.9527 61.7497 59.9712 60.4227L59.3215 58.7789L58.0321 59.2471C56.9384 58.7277 55.9115 58.0787 54.9735 57.3144C53.9974 56.6068 53.1172 55.7764 52.3548 54.8437C53.1044 53.4489 54.6337 50.6495 56.3529 47.7504C59.7013 41.9621 61.2206 39.9497 61.8403 39.2623H61.7403ZM61.3105 37.2698C59.3115 37.8078 50.2158 54.8636 50.2158 54.8636C51.3553 57.4539 57.1525 61.3691 58.292 61.0603C58.9716 62.6942 62.42 65.2944 63.2896 65.4139C64.3591 67.4064 69.5266 70.8435 70.4662 70.8933C70.4662 71.9394 75.7836 75.6056 76.7132 75.7451C77.7827 77.618 82.2006 80.6666 82.9202 80.7263C83.1701 81.9517 85.8188 84.004 86.9883 84.2929C87.2864 84.3344 87.59 84.3107 87.8779 84.2232C92.0859 83.1074 104.78 72.7563 101.172 67.516C99.4523 65.0154 95.8241 62.734 94.6246 63.0528C92.7455 60.0441 85.9588 55.3817 85.2291 55.282C83.7698 52.1538 77.043 46.8039 74.4343 45.7877C72.7375 43.8647 70.5672 42.4157 68.1373 41.5836C66.3621 39.5537 64.0476 38.0652 61.4605 37.2897L61.3105 37.2698Z" fill="#FEF7FF"/>
<path d="M83.79 80.5172C84.7467 79.8188 85.4961 78.8756 85.959 77.7874C86.437 76.6368 86.7726 75.4324 86.9585 74.2009C87.0122 75.4868 86.9115 76.7744 86.6587 78.0365C86.5168 78.6892 86.3023 79.3241 86.019 79.9294C85.714 80.5628 85.3203 81.1499 84.8495 81.6728L83.79 80.5172Z" fill="#FEF7FF"/>
<path d="M69.5874 69.3293C70.6951 69.2942 71.788 69.0649 72.8159 68.6518C73.8953 68.2257 74.853 67.5414 75.6045 66.6593C75.035 67.7338 74.2074 68.6511 73.1957 69.3293C72.1682 70.0359 71.0249 70.5584 69.8173 70.8735L69.5874 69.3293Z" fill="#FEF7FF"/>
<path d="M71.4165 70.4949C71.919 70.5261 72.4219 70.4409 72.8858 70.2458C73.3981 70.0261 73.8761 69.7342 74.3051 69.3791C75.2174 68.6139 75.9857 67.6929 76.574 66.6593C76.2045 67.8384 75.6256 68.9418 74.8649 69.917C74.4604 70.4288 73.986 70.8815 73.4555 71.262C72.8585 71.6735 72.1745 71.9428 71.4565 72.049L71.4165 70.4949Z" fill="#FEF7FF"/>
<path d="M62.75 63.4913C64.2916 63.5094 65.8254 63.2703 67.2878 62.784C68.043 62.5477 68.7839 62.2683 69.5068 61.9471C70.2392 61.6267 70.9474 61.2538 71.6258 60.8313C71.0179 61.3608 70.3733 61.8469 69.6967 62.2858C69.018 62.7371 68.3102 63.1432 67.5777 63.5013C66.092 64.2813 64.4825 64.8003 62.82 65.0355L62.75 63.4913Z" fill="#FEF7FF"/>
<path d="M64.2896 65.414C65.0234 65.2117 65.7443 64.9655 66.4485 64.6768C67.1582 64.3879 67.8578 64.0492 68.5375 63.6806C69.2245 63.3066 69.8918 62.8976 70.5366 62.4552C70.8564 62.236 71.1663 62.0069 71.4761 61.7578C71.7889 61.5255 72.08 61.2654 72.3457 60.9807C72.1252 61.3094 71.8778 61.6193 71.6061 61.9072C71.3462 62.1961 71.0663 62.4851 70.7765 62.754C70.2022 63.317 69.5983 63.849 68.9673 64.348C67.6889 65.3506 66.2967 66.1999 64.8193 66.8785L64.2896 65.414Z" fill="#FEF7FF"/>
<path d="M75.874 74.0416C76.3963 74.073 76.9205 74.0362 77.4333 73.932C77.9567 73.8337 78.469 73.6835 78.9625 73.4837C80.0215 73.0816 80.9725 72.4405 81.7412 71.6107C81.1478 72.6357 80.3231 73.5089 79.3324 74.1611C78.8323 74.5066 78.3001 74.8036 77.7431 75.0478C77.1572 75.3016 76.5432 75.4855 75.914 75.5957L75.874 74.0416Z" fill="#FEF7FF"/>
<path d="M77.503 75.556C78.0036 75.6237 78.5129 75.5368 78.9624 75.3069C79.4831 75.048 79.9616 74.7121 80.3817 74.3106C80.828 73.9137 81.2331 73.4732 81.5911 72.9956C81.9651 72.5094 82.2804 71.9811 82.5306 71.4215C82.3942 72.0321 82.1932 72.6265 81.9309 73.1948C81.6542 73.775 81.3194 74.3257 80.9314 74.8387C80.5395 75.399 80.0604 75.8934 79.5121 76.3032C78.9088 76.7717 78.1767 77.0463 77.4131 77.0902L77.503 75.556Z" fill="#FEF7FF"/>
<path d="M88.0078 61.8076C88.3674 62.4286 88.6302 63.1004 88.7874 63.8001C88.9532 64.494 89.0602 65.2005 89.1073 65.9122C89.1623 66.6218 89.1623 67.3346 89.1073 68.0442C89.0698 68.7582 88.9558 69.4663 88.7674 70.1562C88.6375 69.4489 88.5675 68.7515 88.4976 68.0541C88.4276 67.3567 88.3776 66.6594 88.3277 65.972L88.1777 63.8898C88.1377 63.2223 88.0778 62.5249 88.0078 61.8076Z" fill="#240046"/>
<path d="M88.0879 84.9904C87.6804 85.1165 87.2487 85.1438 86.8285 85.0701C84.9453 84.3789 83.3551 83.068 82.3206 81.354C79.9821 80.1311 77.9098 78.4584 76.2236 76.4325C75.0181 75.8368 73.8733 75.1262 72.8052 74.3105C71.658 73.5895 70.6632 72.6521 69.8766 71.5509C68.1074 70.8735 64.0593 68.0142 62.79 66.1014C60.7964 65.1177 59.0791 63.656 57.7923 61.8474C56.3391 61.4029 54.9828 60.6898 53.7942 59.7453C52.7947 58.9882 50.2659 57.0455 49.4563 55.2024L49.2964 54.8637L49.4763 54.5349C49.4763 54.5349 51.8951 49.982 54.4739 45.5686C55.9932 42.9784 57.2726 40.9161 58.2921 39.4516C60.1212 36.8116 60.8509 36.3832 61.5505 36.5226C64.2427 37.3044 66.6647 38.8149 68.5472 40.8862C70.9988 41.7731 73.1999 43.2357 74.9641 45.1502C77.8128 46.3856 84.1098 51.4465 85.839 54.6843C87.6481 55.5312 93.0455 59.4664 95.0446 62.2858C96.9836 62.3953 100.332 64.866 101.871 67.1076C102.871 68.4725 103.371 70.9432 100.612 74.9182C97.6034 79.2221 91.3363 84.1336 88.0879 84.9904ZM83.0903 80.0091H83.63L83.75 80.577C83.9199 81.4039 86.2788 83.3167 87.2383 83.5657C88.4577 83.8646 95.7143 79.2818 99.3425 74.0415C100.582 72.2483 101.811 69.7377 100.602 67.9843C98.9027 65.5136 95.6043 63.6705 94.8946 63.83L94.3049 64.0292L93.9551 63.5012C92.2359 60.6718 85.9589 56.358 85.0893 56.0492L84.7195 55.9894L84.5496 55.6109C83.2102 52.7616 76.7033 47.5014 74.1745 46.5151L73.9646 46.4154L73.8247 46.2262C72.2259 44.4667 70.2131 43.1315 67.9675 42.3408H67.6576L67.4777 42.1017C65.8508 40.2593 63.7597 38.8836 61.4206 38.1166C60.0713 38.9834 55.1836 47.1826 51.0556 54.9334C52.3649 57.2148 57.1027 60.3032 58.0522 60.363L58.7019 60.1239L58.9818 60.8312C59.5315 62.216 62.72 64.5771 63.3597 64.7066L63.7495 64.7664L63.9294 65.1151C64.859 66.8386 69.6467 70.0366 70.4963 70.186H71.2159V70.8336C71.6457 71.7003 75.9137 74.8186 76.8133 74.9979L77.1831 75.0577L77.363 75.3765C78.3525 77.0403 82.3007 79.76 83.0403 79.9792L83.0903 80.0091Z" fill="#240046"/>
<path d="M58.7223 61.7477L57.9727 60.4227C61.9708 57.9918 68.7875 48.0293 67.3782 41.7529L68.8974 41.4341C69.897 45.7379 67.5381 50.7291 66.0588 53.3194C63.9698 57.0454 61.0512 60.3629 58.7223 61.7477Z" fill="#240046"/>
<path d="M75.1542 45.489C75.74 47.0815 76.1718 48.7261 76.4435 50.4005C76.736 52.0465 76.9096 53.7111 76.9633 55.3818C77.0082 57.0468 76.918 58.7126 76.6934 60.3631C76.4875 62.009 76.0431 63.6164 75.3741 65.1351C75.9069 63.597 76.2099 61.9891 76.2736 60.3631C76.3687 58.7287 76.3286 57.0893 76.1537 55.4615C75.9866 53.8459 75.7027 52.2444 75.3041 50.6695C74.9176 49.1092 74.3855 47.5882 73.7148 46.1266L75.1542 45.489Z" fill="#240046"/>
<path d="M85.9592 55.1726C85.9839 55.5342 85.9839 55.897 85.9592 56.2585V56.7865L85.8792 57.2847C85.8631 57.4522 85.8364 57.6186 85.7992 57.7828L85.6993 58.271C85.6393 58.5997 85.5593 58.9185 85.4794 59.2672C85.1562 60.5355 84.7658 61.7859 84.3099 63.0131C83.8602 64.2385 83.3704 65.434 82.8107 66.6096C82.2885 67.7987 81.6383 68.9277 80.8716 69.9769C81.5264 68.8579 82.0592 67.6723 82.4608 66.4402C82.8906 65.2248 83.2604 63.9994 83.5803 62.7541C83.8977 61.5192 84.1512 60.269 84.3399 59.0082C84.3899 58.6993 84.4399 58.3905 84.4599 58.0717V57.6134C84.4599 57.454 84.4599 57.3046 84.4599 57.1452V56.6869V56.2386C84.4764 55.9532 84.4764 55.6672 84.4599 55.3818L85.9592 55.1726Z" fill="#240046"/>
<path d="M95.3644 62.9534C95.5035 64.1668 95.4765 65.3934 95.2844 66.5997C95.1178 67.7692 94.8639 68.9248 94.5248 70.0567C94.1926 71.1649 93.7955 72.2526 93.3353 73.3144C92.8818 74.3843 92.3506 75.4198 91.7461 76.4128C92.2309 75.3793 92.6353 74.3101 92.9555 73.2148C93.2867 72.1187 93.5537 71.0043 93.7551 69.8773C93.9584 68.7619 94.0787 67.6331 94.115 66.5C94.162 65.4062 94.0645 64.3108 93.8251 63.2423L95.3644 62.9534Z" fill="#240046"/>
<path d="M63.2305 64.6768C64.0303 64.635 64.8206 64.4841 65.5794 64.2284C66.3768 63.956 67.152 63.623 67.8982 63.2322C69.4364 62.4748 70.8707 61.5239 72.1662 60.4028C71.0287 61.7252 69.7292 62.9 68.2981 63.8997C67.5786 64.4414 66.8165 64.9245 66.0191 65.3442C65.1895 65.7692 64.3049 66.0777 63.3904 66.2608L63.2305 64.6768Z" fill="#240046"/>
<path d="M70.377 70.1562C71.2072 70.0937 72.0147 69.8559 72.7458 69.4589C73.518 69.0521 74.2144 68.5163 74.8048 67.8748C76.022 66.5157 76.8959 64.8865 77.3536 63.1227C77.1291 64.9877 76.4646 66.7733 75.4145 68.3331C74.8674 69.1318 74.192 69.8353 73.4155 70.4153C72.5881 71.0174 71.6459 71.4445 70.6468 71.6705L70.377 70.1562Z" fill="#240046"/>
<path d="M76.6934 74.998C77.3488 74.9978 77.9941 74.837 78.5725 74.5297C79.2199 74.2101 79.8189 73.8009 80.3516 73.3143C80.9148 72.8273 81.418 72.2755 81.8509 71.6705C82.2827 71.0602 82.6197 70.3885 82.8504 69.678C82.7282 70.4405 82.4888 71.1798 82.1408 71.8697C81.8005 72.5807 81.3778 73.2494 80.8814 73.8622C80.3761 74.4928 79.7877 75.0524 79.1322 75.526C78.4271 76.05 77.6031 76.3922 76.7333 76.5222L76.6934 74.998Z" fill="#240046"/>
<path d="M82.4209 80.1785C83.3686 79.3902 84.1355 78.4084 84.6698 77.2993C85.1824 76.1226 85.5191 74.8773 85.6693 73.6032C85.8507 72.283 85.9242 70.9503 85.8892 69.6182C85.8892 68.2832 85.7593 66.9582 85.6194 65.6332C86.2203 68.2463 86.4989 70.9228 86.449 73.6032C86.4062 74.9872 86.1569 76.3571 85.7093 77.6679C85.2349 79.0232 84.4671 80.2579 83.4604 81.2843L82.4209 80.1785Z" fill="#240046"/>
<path d="M67.4385 61.0603C68.3106 60.6054 69.1174 60.0357 69.8373 59.3667C70.577 58.7291 71.2866 58.0616 71.9763 57.3742C72.666 56.6868 73.3257 55.9695 73.9754 55.2522C74.6251 54.5349 75.2747 53.7977 75.8844 53.0604L76.884 53.9371C76.1643 54.6245 75.4347 55.2821 74.695 55.9296C73.9554 56.5772 73.2057 57.2248 72.4361 57.8424C71.6665 58.4601 70.8768 59.0579 70.0672 59.6058C69.2611 60.2071 68.3768 60.6964 67.4385 61.0603Z" fill="#240046"/>
<path d="M58.9718 60.0641C59.2942 60.1684 59.6325 60.2157 59.9713 60.2035C60.3735 60.1923 60.7743 60.1524 61.1707 60.084C61.9958 59.9332 62.8104 59.7302 63.6096 59.4763C64.4192 59.2172 65.2288 58.9184 66.0284 58.5996C66.8271 58.2872 67.6079 57.9314 68.3673 57.5336C67.6707 58.0441 66.9466 58.5163 66.1983 58.9483C65.4487 59.3866 64.6891 59.805 63.8994 60.1936C63.1073 60.5817 62.289 60.9146 61.4506 61.1898C61.0134 61.3388 60.5657 61.4553 60.1112 61.5385C59.5925 61.6334 59.0607 61.6334 58.542 61.5385L58.9718 60.0641Z" fill="#240046"/>
<path d="M86.8184 83.5657C87.4491 83.4435 88.0418 83.1738 88.5475 82.7787C89.1263 82.3537 89.659 81.8695 90.1368 81.3341C90.6247 80.7858 91.0723 80.2032 91.4761 79.5907C91.9089 78.9809 92.246 78.3091 92.4757 77.5981C92.3704 78.345 92.1583 79.073 91.846 79.76C91.5381 80.449 91.1806 81.1149 90.7765 81.7525C90.3644 82.4227 89.8819 83.0472 89.3372 83.6155C88.7544 84.2537 88.0233 84.7395 87.2082 85.0302L86.8184 83.5657Z" fill="#240046"/>
<path d="M60.541 53.1601L61.5405 51.5661L62.5401 49.9821C62.8599 49.4441 63.1898 48.9161 63.5396 48.3881C63.8813 47.8538 64.2516 47.3383 64.6491 46.8439C64.526 47.4736 64.335 48.0882 64.0793 48.677C63.8301 49.2745 63.5326 49.8509 63.1898 50.4005C62.8566 50.9535 62.4717 51.4738 62.0403 51.9547C61.6097 52.4351 61.1033 52.8423 60.541 53.1601Z" fill="#240046"/>
<path d="M72.7852 61.9769C73.147 61.7453 73.4822 61.4747 73.7847 61.17C74.0851 60.8611 74.3593 60.5279 74.6043 60.1737C74.8542 59.825 75.0841 59.4664 75.3239 59.0878C75.4471 58.8916 75.5805 58.7021 75.7238 58.5199C75.907 58.283 76.1431 58.092 76.4134 57.962L76.7533 58.9583C76.6164 59.0008 76.4902 59.0721 76.3834 59.1675C76.2237 59.2997 76.0734 59.4429 75.9337 59.5959C75.6338 59.9047 75.3239 60.2335 74.9941 60.5423C74.6725 60.8406 74.3283 61.1137 73.9646 61.3593C73.5921 61.6021 73.1971 61.8089 72.7852 61.9769Z" fill="#240046"/>
<path d="M57.9727 56.7367C59.21 56.5927 60.423 56.2879 61.5809 55.8301C62.7991 55.373 63.9875 54.8406 65.1392 54.2361C66.2987 53.6383 67.4381 52.9808 68.5576 52.2435C69.6771 51.5063 70.7666 50.799 71.8161 49.9821C70.8865 50.9783 69.887 51.8052 68.8175 52.662C67.748 53.5188 66.7385 54.3855 65.639 55.1227C64.53 55.8986 63.3751 56.6072 62.1806 57.2447C60.9485 57.9267 59.6309 58.4427 58.2625 58.779L57.9727 56.7367Z" fill="#240046"/>
<path d="M1.17969 79.8298C2.19943 81.2979 3.30062 82.7081 4.47811 84.0539L7.47669 83.0576L6.09734 85.877C14.9831 95.5307 35.7832 112.866 67.2982 107.795L60.8412 97.5133C60.8412 97.5133 28.2168 86.7836 51.5956 54.4452C58.5923 44.941 60.2015 33.4641 69.1273 28.8714C78.053 24.2787 97.7536 36.7219 97.7536 36.7219L100.083 29.8677C95.7122 22.441 89.8084 16.0248 82.7624 11.044C75.7164 6.06317 67.689 2.6315 59.212 0.976318C60.2115 12.0148 53.7646 23.3821 43.3296 38.2362C32.8946 53.0903 18.1716 73.2445 1.17969 79.8298Z" fill="#FEF7FF"/>
<path d="M68.5873 108.412L67.4278 108.592C53.988 110.891 40.1634 108.958 27.8767 103.062C19.4439 98.9528 11.8595 93.3026 5.51737 86.405L5.16754 86.0165L5.99714 84.3627L4.25797 84.9605L3.91813 84.562C2.70974 83.2013 1.57852 81.7744 0.529747 80.288L0 79.4512L0.899571 79.1025C16.9919 72.856 30.9852 54.4751 42.6896 37.7381C53.3945 22.5054 59.4017 11.6163 58.4321 0.996253L58.3422 0L59.3417 0.199251C71.3485 2.54155 82.3888 8.37994 91.0666 16.9762C94.8973 20.6512 98.1702 24.8631 100.782 29.4791L100.932 29.778L98.1732 37.8775L97.3436 37.3495C97.1437 37.23 77.9128 25.1952 69.4869 29.5389C64.1094 32.2985 61.4907 37.6185 58.4921 43.7853C56.7423 47.6659 54.6377 51.3777 52.2051 54.8736C44.8486 65.0354 42.3698 74.0415 44.8386 81.623C48.3669 92.4722 60.9709 96.7362 61.0809 96.776L61.3507 96.8657L68.5873 108.412ZM6.99666 85.7375C16.4322 95.8396 36.2727 111.501 65.9686 107.237L60.2813 98.1608C58.2822 97.4535 46.8477 92.9305 43.2894 82.1411C40.7506 74.0615 43.2994 64.5871 50.9757 53.987C53.3515 50.5644 55.409 46.933 57.1228 43.1378C60.1213 36.9909 62.94 31.1827 68.7772 28.194C77.0233 23.9499 93.4055 33.1752 97.3436 35.5662L99.2527 29.9474C96.7077 25.5758 93.5808 21.5677 89.9571 18.0322C81.7492 9.90842 71.3722 4.30639 60.0614 1.89288C60.6111 12.6425 54.534 23.5913 43.979 38.6347C32.3046 55.2422 18.5312 73.5036 2.38886 80.1785C2.86863 80.836 3.65826 81.8621 4.73774 83.1672L8.99571 81.6728L6.99666 85.7375Z" fill="#240046"/>
<path d="M93.8653 26.6997C84.9722 16.1081 72.7318 8.84338 59.1519 6.09717L93.8653 26.6997Z" fill="#FEF7FF"/>
<path d="M93.8655 26.6997C91.5975 24.1366 89.1311 21.7549 86.489 19.5765C83.8473 17.4162 81.0288 15.48 78.0631 13.7883C77.3134 13.3798 76.5738 12.9614 75.8241 12.5629L73.5252 11.4371L71.1863 10.4409C70.8065 10.2615 70.3967 10.1221 69.9969 9.97262L68.8075 9.55419C65.6044 8.4009 62.316 7.49822 58.9722 6.85435L59.282 5.33008C62.6637 6.1014 65.9791 7.13739 69.1973 8.42843L70.3967 8.92655C70.7965 9.10588 71.1963 9.25532 71.5862 9.4446L73.965 10.5504L76.2439 11.7758C76.9936 12.2042 77.7332 12.6625 78.4729 13.1009C81.3972 14.9221 84.1653 16.9814 86.7489 19.2577C89.3124 21.5494 91.6918 24.0377 93.8655 26.6997Z" fill="#240046"/>
<path d="M8.396 76.1835C14.653 83.5657 30.4655 98.9279 54.9838 100.93L8.396 76.1835Z" fill="#FEF7FF"/>
<path d="M8.9963 75.6854C11.9523 79.0204 15.1637 82.1215 18.6017 84.9605C22.0387 87.8043 25.7175 90.3443 29.5965 92.552C33.4957 94.7477 37.5956 96.5691 41.8406 97.9915C43.9696 98.6989 46.1386 99.2867 48.3376 99.7848C50.5365 100.283 52.7554 100.642 54.9944 100.93C52.7321 100.83 50.4766 100.611 48.2376 100.273C45.9984 99.9063 43.7798 99.4241 41.5908 98.8284C39.3932 98.235 37.2336 97.5097 35.1238 96.6566C33.0026 95.8202 30.9274 94.8725 28.9068 93.8172L27.4075 93.0003L25.9182 92.1535L24.4489 91.2469L22.9896 90.3403C21.088 89.0774 19.2531 87.7173 17.4923 86.2656C15.7231 84.831 14.0239 83.2769 12.3947 81.7128C11.5851 80.9058 10.8054 80.0789 10.0358 79.242C9.26617 78.4052 8.51653 77.5385 7.79688 76.6518L8.9963 75.6854Z" fill="#240046"/>
<path d="M96.3145 30.595L99.9427 29.1006L100.233 30.6249L96.3145 30.595Z" fill="#240046"/>
<path d="M95.4547 30.4754L94.2353 34.6497C88.1482 31.3621 75.7041 25.4942 69.1273 28.8715C60.2015 33.4642 58.5723 44.941 51.5956 54.4453C28.3467 86.5944 60.4714 97.3938 60.8312 97.5133C40.1611 104.278 8.99592 76.9108 8.99592 76.9108L8.70605 75.9743C22.5095 67.2571 34.4538 50.789 43.3096 38.1864C52.1653 25.5838 58.1525 15.5316 59.162 6.00745L60.4414 6.3661C80.4918 12.4333 95.4547 30.4754 95.4547 30.4754Z" fill="#240046"/>
<path d="M22.4097 80.7165C23.4643 80.2739 24.542 79.8881 25.6381 79.5608C26.7276 79.2321 27.8371 78.9432 28.9366 78.6941C30.036 78.445 31.1655 78.2159 32.285 78.0366C33.417 77.8531 34.5581 77.7301 35.7033 77.668C34.6506 78.1182 33.5727 78.5074 32.4749 78.8336C31.3821 79.159 30.2826 79.4479 29.1764 79.7003C28.067 79.9494 26.9475 80.1686 25.828 80.3479C24.6973 80.5412 23.5557 80.6643 22.4097 80.7165Z" fill="#00CAFF"/>
<path d="M44.3794 92.8409C44.242 92.3167 44.1386 91.7843 44.0695 91.2469C43.9895 90.7189 43.9396 90.1909 43.8996 89.6529C43.8596 89.115 43.8496 88.5869 43.8496 88.0589C43.8587 87.5221 43.9021 86.9863 43.9795 86.455C44.1164 86.9759 44.2199 87.505 44.2894 88.039C44.3694 88.567 44.4193 89.095 44.4593 89.633C44.4993 90.171 44.5093 90.699 44.5093 91.227C44.501 91.7672 44.4576 92.3063 44.3794 92.8409Z" fill="#00CAFF"/>
<path d="M15.3628 74.201C17.4518 73.5634 19.5608 73.0353 21.6798 72.5372C22.6793 72.2782 23.7988 72.0491 24.8583 71.81L28.0467 71.1524L31.2452 70.5447C32.3147 70.3554 33.3842 70.1562 34.4637 69.9868C36.6127 69.6381 38.7616 69.3293 40.9306 69.1101C38.8416 69.7477 36.7326 70.2857 34.6236 70.7838C33.5641 71.0428 32.5046 71.262 31.4451 71.5011L28.2466 72.1586L25.0482 72.7664C23.9787 72.9556 22.9092 73.1549 21.8297 73.3243C19.6907 73.673 17.5318 73.9818 15.3628 74.201Z" fill="#00CAFF"/>
<path d="M20.9897 70.5049C22.1968 70.0209 23.4278 69.5986 24.678 69.2396C25.9174 68.871 27.1668 68.5522 28.4262 68.2434C29.6856 67.9345 30.945 67.6954 32.2244 67.4762C33.5048 67.2513 34.7958 67.0917 36.0925 66.998C34.8951 67.5092 33.6705 67.9549 32.4243 68.333C31.1849 68.7016 29.9355 69.0204 28.6761 69.3293C27.4167 69.6381 26.1573 69.8772 24.8779 70.0964C23.5897 70.2986 22.2919 70.4349 20.9897 70.5049Z" fill="#00CAFF"/>
<path d="M22.7095 67.1774C24.079 67.3194 25.4402 67.5322 26.7875 67.815C28.1369 68.084 29.4663 68.3928 30.7856 68.7315C32.105 69.0703 33.4244 69.4488 34.7337 69.8673C36.0546 70.2834 37.3525 70.7689 38.6219 71.3218C37.2425 71.1823 35.8832 70.9432 34.5438 70.6842C33.2045 70.4252 31.8651 70.1064 30.5457 69.7676C29.2264 69.4289 27.897 69.0404 26.5976 68.6219C25.2982 68.2035 23.9889 67.7253 22.7095 67.1774Z" fill="#00CAFF"/>
<path d="M21.7793 67.4165C23.1486 67.6058 24.498 67.8648 25.8374 68.1537C26.507 68.2932 27.1767 68.4526 27.8364 68.612L29.8355 69.1002L31.8345 69.6381C32.4942 69.8274 33.1539 70.0068 33.8335 70.216C35.1429 70.6145 36.4523 71.0329 37.7417 71.531C36.3723 71.3517 35.023 71.0827 33.6836 70.7938C33.0139 70.6643 32.3443 70.4949 31.6846 70.3455L29.6855 69.8573L27.6865 69.3193C27.0268 69.1301 26.3671 68.9507 25.6874 68.7415C24.3781 68.3331 23.0687 67.9146 21.7793 67.4165Z" fill="#00CAFF"/>
<path d="M37.0425 84.3927C36.3928 85.0801 38.132 86.7439 39.4314 85.648C38.4019 85.389 37.4823 83.9245 37.0425 84.3927Z" fill="#00CAFF"/>
<path d="M31.3951 62.8637C31.8249 62.7043 31.3951 62.4054 31.445 62.0866C31.495 61.7678 31.3951 61.5885 31.2052 61.5586C31.0153 61.5287 30.9453 61.967 31.0053 62.2858C31.0652 62.6046 31.1852 62.9334 31.3951 62.8637Z" fill="#00CAFF"/>
<path d="M67.0684 25.4941C68.0679 25.0657 69.0674 24.717 70.0669 24.3882C70.5667 24.2189 71.0665 24.0694 71.5662 23.92L73.0455 23.5016C74.045 23.2226 75.0446 22.9835 76.1041 22.7643C77.1635 22.5452 78.1731 22.3559 79.2226 22.2363C78.223 22.6647 77.2235 23.0234 76.224 23.3521C75.2245 23.6809 74.225 23.9798 73.2254 24.2488L71.7061 24.6373C71.1864 24.7469 70.7066 24.8764 70.1669 24.976C69.1574 25.1454 68.1179 25.3347 67.0684 25.4941Z" fill="#00CAFF"/>
<path d="M64.2197 18.5204C65.167 18.4393 66.1181 18.4127 67.0684 18.4407C68.0679 18.4407 68.9575 18.5004 69.907 18.5801C70.8566 18.6598 71.7861 18.7495 72.7257 18.879C73.6679 19.002 74.6022 19.1783 75.5243 19.407C74.5771 19.488 73.626 19.5146 72.6757 19.4867C71.7261 19.4867 70.7866 19.4269 69.847 19.3472C68.9075 19.2675 67.9579 19.1779 67.0284 19.0384C66.0829 18.9197 65.1452 18.7468 64.2197 18.5204Z" fill="#00CAFF"/>
<path d="M58.3124 16.7073C58.2869 17.1253 58.2869 17.5445 58.3124 17.9626C58.3124 18.381 58.4124 18.7795 58.4723 19.1879C58.5323 19.5964 58.6223 20.0049 58.7222 20.4034C58.805 20.8142 58.9221 21.2174 59.0721 21.6088C58.7555 21.3054 58.5187 20.9291 58.3824 20.513C58.1986 20.1183 58.0611 19.7037 57.9726 19.2776C57.9225 18.8407 57.9225 18.3995 57.9726 17.9626C57.9952 17.5248 58.1111 17.0969 58.3124 16.7073Z" fill="#00CAFF"/>
<path d="M63.2499 12.005C62.6002 12.7721 64.8991 13.589 65.7187 13.3101C64.0395 12.3636 63.7097 11.457 63.2499 12.005Z" fill="#00CAFF"/>
<path d="M82.0915 26.5801C82.1414 27.3472 83.091 26.9586 83.4408 27.2276C83.7907 27.4966 83.7207 28.0047 84.1005 28.0744C84.4803 28.1442 84.8302 27.3073 83.6907 26.5502C82.5513 25.793 82.0815 26.341 82.0915 26.5801Z" fill="#00CAFF"/>
<path d="M73.3247 14.8742C72.765 15.1033 73.4846 16.2291 73.8944 15.8704C74.3042 15.5118 73.5346 14.7845 73.3247 14.8742Z" fill="#00CAFF"/>
<path d="M37.1835 41.8215L47.5789 28.2988C48.3496 27.2962 49.4883 26.6399 50.7444 26.4742C52.0006 26.3085 53.2714 26.6469 54.2772 27.4151L62.7587 33.8924C63.7652 34.6611 64.4247 35.7965 64.5924 37.0493C64.7601 38.3021 64.4223 39.57 63.6532 40.5749L53.2578 54.0976C52.4855 55.1022 51.3445 55.7599 50.0857 55.926C48.8269 56.0921 47.5534 55.7529 46.5455 54.9832L38.0641 48.5058C37.0561 47.736 36.3963 46.5987 36.2297 45.344C36.063 44.0893 36.4033 42.8201 37.1756 41.8154L37.1835 41.8215Z" fill="#240046"/>
<path d="M53.5544 26.9188L63.4297 34.4604C63.8379 34.7695 64.1808 35.156 64.4386 35.5977C64.6964 36.0393 64.864 36.5274 64.9318 37.0339C64.9997 37.5404 64.9663 38.0552 64.8337 38.5488C64.7011 39.0424 64.4719 39.505 64.1593 39.9099L59.7714 45.6085C60.0846 45.2042 60.3145 44.7421 60.4478 44.2489C60.5812 43.7557 60.6154 43.241 60.5485 42.7346C60.4817 42.2281 60.315 41.7399 60.0581 41.2979C59.8012 40.8558 59.4592 40.4688 59.0517 40.159L52.8547 35.4567L52.9447 35.377C53.1845 35.1678 53.4244 34.9586 53.6743 34.7593C53.7333 34.7162 53.7744 34.6532 53.79 34.582C53.8056 34.5108 53.7945 34.4364 53.7589 34.3727C53.7233 34.3091 53.6656 34.2606 53.5966 34.2364C53.5277 34.2122 53.4522 34.2139 53.3844 34.2413C53.0746 34.3509 52.7647 34.4804 52.4549 34.6099L51.9751 34.7593C51.5253 34.9386 51.0256 35.118 50.5458 35.3172C50.5283 35.3204 50.5102 35.3183 50.4938 35.3113C50.4775 35.3042 50.4636 35.2924 50.454 35.2775C50.4443 35.2626 50.4394 35.2451 50.4397 35.2273C50.44 35.2096 50.4457 35.1923 50.4558 35.1777C50.7457 34.8789 51.0456 34.58 51.3654 34.2911L51.5353 34.1317C51.7752 33.9225 52.0151 33.7133 52.265 33.514C52.3239 33.4709 52.3651 33.4078 52.3807 33.3366C52.3962 33.2655 52.3852 33.191 52.3496 33.1274C52.314 33.0638 52.2562 33.0153 52.1873 32.9911C52.1183 32.9669 52.0429 32.9686 51.9751 32.9959L51.0556 33.3646C50.8656 33.4443 50.6657 33.524 50.4558 33.5937C50.0161 33.7431 49.5463 33.8926 49.0865 34.0619C49.069 34.0651 49.0509 34.0631 49.0345 34.056C49.0182 34.0489 49.0043 34.0372 48.9947 34.0222C48.985 34.0073 48.9801 33.9898 48.9804 33.9721C48.9807 33.9543 48.9863 33.937 48.9965 33.9225C49.2664 33.6435 49.5463 33.3845 49.8361 33.1255L49.9261 33.0358C50.166 32.8266 50.4059 32.6174 50.6557 32.4181C50.7147 32.375 50.7558 32.312 50.7714 32.2408C50.787 32.1696 50.7759 32.0952 50.7403 32.0315C50.7047 31.9679 50.647 31.9194 50.5781 31.8952C50.5091 31.871 50.4336 31.8727 50.3659 31.9001C50.056 32.0196 49.7462 32.1392 49.4463 32.2786L48.9765 32.4679C48.4068 32.6971 47.7171 32.9461 47.1174 33.2151C47.1002 33.2283 47.0784 33.2342 47.0569 33.2314C47.0353 33.2286 47.0157 33.2174 47.0025 33.2002C46.9892 33.183 46.9834 33.1613 46.9862 33.1398C46.989 33.1183 47.0003 33.0988 47.0175 33.0856C47.3773 32.6971 47.7571 32.3185 48.1469 31.9598L48.3269 31.8104C48.5567 31.6012 48.8066 31.392 49.0565 31.1927C49.1155 31.1496 49.1566 31.0866 49.1722 31.0154C49.1878 30.9442 49.1767 30.8698 49.1411 30.8061C49.1055 30.7425 49.0478 30.694 48.9788 30.6698C48.9099 30.6456 48.8344 30.6473 48.7666 30.6747C48.4568 30.7843 48.1469 30.9138 47.8371 31.0433C47.5272 31.1728 47.0075 31.4119 46.5977 31.6211C45.8984 31.604 45.2075 31.7761 44.5986 32.1192L48.047 27.6361C48.3581 27.2242 48.7485 26.8784 49.1954 26.6188C49.6423 26.3591 50.1366 26.191 50.6495 26.1242C51.1624 26.0574 51.6835 26.0933 52.1823 26.2297C52.6811 26.3662 53.1475 26.6004 53.5544 26.9188Z" fill="#FEF7FF"/>
<path d="M53.8042 53.3893L52.7247 54.784C52.095 55.6043 51.1642 56.1416 50.1371 56.278C49.11 56.4144 48.0705 56.1386 47.2473 55.5113L37.372 47.9697C36.5507 47.3405 36.0135 46.4121 35.8785 45.3884C35.7436 44.3647 36.0219 43.3294 36.6524 42.5102L37.7319 41.1055C37.1014 41.9247 36.8231 42.96 36.958 43.9837C37.093 45.0074 37.6301 45.9358 38.4515 46.5649L48.3268 54.1066C49.1488 54.735 50.1874 55.0124 51.2145 54.8779C52.2415 54.7434 53.173 54.208 53.8042 53.3893Z" fill="#FEF7FF"/>
<path d="M50.8252 56.9261C50.1342 57.1098 49.4101 57.1335 48.7085 56.9954C48.0068 56.8572 47.3462 56.5609 46.7771 56.1291L36.9018 48.5874C36.4129 48.2151 36.0024 47.7502 35.694 47.2195C35.3856 46.6888 35.1852 46.1026 35.1044 45.4946C35.0237 44.8865 35.064 44.2686 35.2233 43.6762C35.3825 43.0837 35.6574 42.5284 36.0323 42.042L47.4668 27.168C48.2229 26.1859 49.3391 25.543 50.5704 25.3805C51.8016 25.218 53.0472 25.5492 54.0337 26.3012L63.909 33.8429C64.404 34.2164 64.8196 34.6843 65.1317 35.2192C65.4439 35.7542 65.6463 36.3457 65.7272 36.9593C65.8081 37.5728 65.7659 38.1963 65.603 38.7935C65.4402 39.3907 65.1599 39.9497 64.7786 40.4381L53.344 55.2623C52.7132 56.0805 51.827 56.6659 50.8252 56.9261ZM50.3754 27.0385C49.7095 27.2138 49.1217 27.6067 48.7062 28.1543L37.2717 42.9885C37.0218 43.3127 36.8385 43.6829 36.7323 44.0779C36.6262 44.4729 36.5993 44.8848 36.6531 45.2902C36.707 45.6955 36.8405 46.0863 37.0462 46.4401C37.2518 46.7939 37.5254 47.1038 37.8514 47.3521L47.7267 54.8937C48.052 55.1428 48.4234 55.3255 48.8197 55.4313C49.216 55.5371 49.6293 55.5639 50.0359 55.5102C50.4426 55.4565 50.8347 55.3234 51.1897 55.1185C51.5446 54.9135 51.8556 54.6408 52.1046 54.3159L63.5392 39.4418C64.043 38.7856 64.2658 37.9574 64.1591 37.1379C64.0523 36.3185 63.6247 35.5745 62.9694 35.0683L53.0941 27.5366C52.714 27.2427 52.2704 27.0411 51.7985 26.9477C51.3266 26.8543 50.8394 26.8718 50.3754 26.9986V27.0385Z" fill="#240046"/>
<path d="M49.1863 39.2923C49.5283 39.0808 49.9234 38.9702 50.3258 38.9735C50.7496 38.9811 51.1637 39.1015 51.5252 39.3221C51.8986 39.5532 52.2044 39.878 52.4122 40.2639C52.6201 40.6499 52.7225 41.0835 52.7094 41.5213C52.6962 41.9591 52.5679 42.3858 52.3373 42.7587C52.1067 43.1315 51.7818 43.4375 51.3953 43.6459C51.0355 43.8459 50.6267 43.9416 50.2152 43.9223C49.8036 43.9029 49.4057 43.7692 49.0664 43.5363C49.4096 43.6142 49.7655 43.618 50.1103 43.5476C50.455 43.4771 50.7807 43.334 51.0655 43.1278C51.33 42.9406 51.5491 42.6967 51.7065 42.4139C51.8639 42.1311 51.9557 41.8168 51.975 41.494C51.9845 41.1758 51.921 40.8596 51.7894 40.5696C51.6577 40.2795 51.4614 40.0233 51.2154 39.8203C50.9382 39.5868 50.6121 39.4181 50.261 39.3268C49.9099 39.2354 49.5426 39.2236 49.1863 39.2923Z" fill="#FEF7FF"/>
<path d="M46.2783 38.5551C46.7753 37.7802 47.4919 37.17 48.3373 36.8017C49.2038 36.4222 50.162 36.3011 51.096 36.453C51.5663 36.524 52.0241 36.6615 52.4554 36.8614C52.6737 36.9618 52.8842 37.0784 53.0851 37.2101L53.3849 37.4094L53.6648 37.6385C53.7583 37.7104 53.8453 37.7904 53.9247 37.8776L54.1746 38.1366C54.3321 38.3183 54.4758 38.5114 54.6044 38.7145C55.1436 39.5204 55.4354 40.4656 55.444 41.4342C55.4445 41.9148 55.384 42.3935 55.264 42.8589C55.0066 43.7845 54.4941 44.6197 53.7847 45.2698C53.0851 45.906 52.2185 46.331 51.2859 46.4952C50.3776 46.6513 49.4434 46.5405 48.5972 46.1764C49.4528 46.3961 50.3504 46.3961 51.206 46.1764C52.0193 45.9468 52.7573 45.5071 53.3453 44.9017C53.9333 44.2964 54.3504 43.547 54.5544 42.7294C54.6473 42.304 54.6909 41.8695 54.6843 41.4342C54.6651 41.022 54.5946 40.6137 54.4744 40.2188C54.3624 39.8218 54.1941 39.4427 53.9747 39.093C53.8637 38.9207 53.7436 38.7544 53.6148 38.5949L53.4049 38.3658C53.3366 38.291 53.2631 38.2211 53.185 38.1566L52.9751 37.9474C52.8952 37.8776 52.8052 37.8278 52.7252 37.768C52.5556 37.6478 52.3787 37.538 52.1955 37.4393C51.8089 37.2479 51.399 37.1072 50.9761 37.0208C50.5632 36.9281 50.1391 36.8945 49.7167 36.9212C49.5054 36.9297 49.295 36.953 49.087 36.991C48.8737 37.03 48.6634 37.0832 48.4573 37.1504C47.6229 37.4262 46.8729 37.9097 46.2783 38.5551Z" fill="#FEF7FF"/>
<path d="M45.8784 43.885C45.6677 43.7043 45.4946 43.4843 45.3687 43.2374C45.2389 42.9903 45.1479 42.7249 45.0988 42.4504C45.0589 42.1795 45.0589 41.9043 45.0988 41.6334C45.1222 41.3527 45.2075 41.0805 45.3487 40.8364C45.4186 41.1154 45.4586 41.3644 45.5086 41.6235L45.6385 42.3607L45.7785 43.0979C45.7985 43.347 45.8484 43.606 45.8784 43.885Z" fill="#FEF7FF"/>
<path d="M40.0405 42.6296C40.2698 42.8654 40.4804 43.1185 40.6702 43.3868C40.8601 43.6458 41.05 43.9148 41.22 44.1838C41.3899 44.4528 41.5498 44.7317 41.7097 45.0107C41.869 45.2983 42.0124 45.5943 42.1395 45.8973C41.8579 45.717 41.6024 45.4991 41.3799 45.2498C41.1604 45.0029 40.9599 44.7398 40.7802 44.4627C40.6034 44.1834 40.4497 43.8902 40.3204 43.586C40.1866 43.2804 40.0926 42.959 40.0405 42.6296Z" fill="#FEF7FF"/>
<path d="M48.3071 50.3207C48.4971 50.2534 48.6956 50.2131 48.8968 50.2012C49.0865 50.1862 49.277 50.1862 49.4666 50.2012C49.6556 50.219 49.8428 50.2523 50.0263 50.3008C50.2229 50.3549 50.4112 50.4353 50.586 50.5399C50.4001 50.6282 50.2009 50.6854 49.9963 50.7093C49.8039 50.7342 49.609 50.7342 49.4166 50.7093C49.222 50.6899 49.0306 50.6464 48.8469 50.5798C48.6518 50.5293 48.4684 50.4413 48.3071 50.3207Z" fill="#FEF7FF"/>
<path d="M157.165 122.539C157.307 122.865 157.491 123.169 157.714 123.446C157.919 123.686 158.139 123.912 158.374 124.123C158.819 124.52 159.301 124.873 159.813 125.179C159.499 124.7 159.228 124.193 159.004 123.665C158.899 123.42 158.816 123.167 158.754 122.908C158.697 122.683 158.676 122.451 158.694 122.22L157.165 122.539Z" fill="#240046"/>
</svg>
