<svg width="96" height="102" viewBox="0 0 96 102" fill="none" xmlns="http://www.w3.org/2000/svg">
<g filter="url(#filter0_d_1094_1449)">
<mask id="path-1-inside-1_1094_1449" fill="white">
<path d="M73.5172 72.4736L58.9686 79.0103C58.8515 79.0631 58.723 79.0859 58.5948 79.0765C58.4665 79.0671 58.3427 79.0259 58.2347 78.9566C58.1268 78.8874 58.0381 78.7923 57.9768 78.6801C57.9155 78.5679 57.8836 78.4422 57.884 78.3146V47.7837C57.8874 47.6302 57.8444 47.4792 57.7604 47.3502C57.6765 47.2213 57.5555 47.1202 57.4131 47.0602C57.2708 47.0001 57.1135 46.9838 56.9617 47.0133C56.8099 47.0429 56.6704 47.1169 56.5614 47.2259C53.1538 50.3602 48.6792 52.1017 44.0331 52.1017C39.387 52.1017 34.9123 50.3602 31.5047 47.2259L31.4253 47.1274C31.3163 47.0184 31.1769 46.9444 31.0251 46.9149C30.8733 46.8854 30.716 46.9017 30.5736 46.9617C30.4312 47.0218 30.3103 47.1228 30.2263 47.2518C30.1424 47.3808 30.0993 47.5318 30.1027 47.6853V78.9053C30.1021 79.0468 30.0621 79.1854 29.9872 79.3058C29.9122 79.4261 29.8052 79.5236 29.678 79.5874C29.5507 79.6513 29.4082 79.6789 29.2661 79.6674C29.124 79.6559 28.9878 79.6057 28.8727 79.5222L14.3108 68.8443C14.2149 68.7719 14.137 68.6787 14.0831 68.5717C14.0292 68.4648 14.0008 68.3469 14 68.2274V15.402C14.0012 15.2558 14.0444 15.113 14.1246 14.9903C14.2048 14.8676 14.3186 14.7702 14.4527 14.7096C14.5868 14.6489 14.7355 14.6275 14.8814 14.6479C15.0273 14.6682 15.1643 14.7295 15.2763 14.8245L43.5404 39.0024C43.6799 39.1225 43.8583 39.1886 44.043 39.1886C44.2276 39.1886 44.4061 39.1225 44.5456 39.0024L51.2776 33.2139C53.8303 31.0262 56.4115 28.8014 59.0215 26.5394C61.6314 24.2773 64.2127 22.0678 66.7653 19.9108C68.8418 18.1606 70.8257 16.4652 72.7171 14.8245C72.8295 14.7291 72.9671 14.6678 73.1136 14.6476C73.2601 14.6275 73.4094 14.6495 73.5437 14.711C73.678 14.7724 73.7917 14.8708 73.8714 14.9944C73.9511 15.1181 73.9934 15.2618 73.9934 15.4086V71.7779C73.9916 71.9275 73.9456 72.0732 73.8609 72.1969C73.7762 72.3206 73.6567 72.4169 73.5172 72.4736Z"/>
</mask>
<path d="M73.5172 72.4736L58.9686 79.0103C58.8515 79.0631 58.723 79.0859 58.5948 79.0765C58.4665 79.0671 58.3427 79.0259 58.2347 78.9566C58.1268 78.8874 58.0381 78.7923 57.9768 78.6801C57.9155 78.5679 57.8836 78.4422 57.884 78.3146V47.7837C57.8874 47.6302 57.8444 47.4792 57.7604 47.3502C57.6765 47.2213 57.5555 47.1202 57.4131 47.0602C57.2708 47.0001 57.1135 46.9838 56.9617 47.0133C56.8099 47.0429 56.6704 47.1169 56.5614 47.2259C53.1538 50.3602 48.6792 52.1017 44.0331 52.1017C39.387 52.1017 34.9123 50.3602 31.5047 47.2259L31.4253 47.1274C31.3163 47.0184 31.1769 46.9444 31.0251 46.9149C30.8733 46.8854 30.716 46.9017 30.5736 46.9617C30.4312 47.0218 30.3103 47.1228 30.2263 47.2518C30.1424 47.3808 30.0993 47.5318 30.1027 47.6853V78.9053C30.1021 79.0468 30.0621 79.1854 29.9872 79.3058C29.9122 79.4261 29.8052 79.5236 29.678 79.5874C29.5507 79.6513 29.4082 79.6789 29.2661 79.6674C29.124 79.6559 28.9878 79.6057 28.8727 79.5222L14.3108 68.8443C14.2149 68.7719 14.137 68.6787 14.0831 68.5717C14.0292 68.4648 14.0008 68.3469 14 68.2274V15.402C14.0012 15.2558 14.0444 15.113 14.1246 14.9903C14.2048 14.8676 14.3186 14.7702 14.4527 14.7096C14.5868 14.6489 14.7355 14.6275 14.8814 14.6479C15.0273 14.6682 15.1643 14.7295 15.2763 14.8245L43.5404 39.0024C43.6799 39.1225 43.8583 39.1886 44.043 39.1886C44.2276 39.1886 44.4061 39.1225 44.5456 39.0024L51.2776 33.2139C53.8303 31.0262 56.4115 28.8014 59.0215 26.5394C61.6314 24.2773 64.2127 22.0678 66.7653 19.9108C68.8418 18.1606 70.8257 16.4652 72.7171 14.8245C72.8295 14.7291 72.9671 14.6678 73.1136 14.6476C73.2601 14.6275 73.4094 14.6495 73.5437 14.711C73.678 14.7724 73.7917 14.8708 73.8714 14.9944C73.9511 15.1181 73.9934 15.2618 73.9934 15.4086V71.7779C73.9916 71.9275 73.9456 72.0732 73.8609 72.1969C73.7762 72.3206 73.6567 72.4169 73.5172 72.4736Z" fill="#5A189A"/>
<path d="M73.5172 72.4736L58.9686 79.0103C58.8515 79.0631 58.723 79.0859 58.5948 79.0765C58.4665 79.0671 58.3427 79.0259 58.2347 78.9566C58.1268 78.8874 58.0381 78.7923 57.9768 78.6801C57.9155 78.5679 57.8836 78.4422 57.884 78.3146V47.7837C57.8874 47.6302 57.8444 47.4792 57.7604 47.3502C57.6765 47.2213 57.5555 47.1202 57.4131 47.0602C57.2708 47.0001 57.1135 46.9838 56.9617 47.0133C56.8099 47.0429 56.6704 47.1169 56.5614 47.2259C53.1538 50.3602 48.6792 52.1017 44.0331 52.1017C39.387 52.1017 34.9123 50.3602 31.5047 47.2259L31.4253 47.1274C31.3163 47.0184 31.1769 46.9444 31.0251 46.9149C30.8733 46.8854 30.716 46.9017 30.5736 46.9617C30.4312 47.0218 30.3103 47.1228 30.2263 47.2518C30.1424 47.3808 30.0993 47.5318 30.1027 47.6853V78.9053C30.1021 79.0468 30.0621 79.1854 29.9872 79.3058C29.9122 79.4261 29.8052 79.5236 29.678 79.5874C29.5507 79.6513 29.4082 79.6789 29.2661 79.6674C29.124 79.6559 28.9878 79.6057 28.8727 79.5222L14.3108 68.8443C14.2149 68.7719 14.137 68.6787 14.0831 68.5717C14.0292 68.4648 14.0008 68.3469 14 68.2274V15.402C14.0012 15.2558 14.0444 15.113 14.1246 14.9903C14.2048 14.8676 14.3186 14.7702 14.4527 14.7096C14.5868 14.6489 14.7355 14.6275 14.8814 14.6479C15.0273 14.6682 15.1643 14.7295 15.2763 14.8245L43.5404 39.0024C43.6799 39.1225 43.8583 39.1886 44.043 39.1886C44.2276 39.1886 44.4061 39.1225 44.5456 39.0024L51.2776 33.2139C53.8303 31.0262 56.4115 28.8014 59.0215 26.5394C61.6314 24.2773 64.2127 22.0678 66.7653 19.9108C68.8418 18.1606 70.8257 16.4652 72.7171 14.8245C72.8295 14.7291 72.9671 14.6678 73.1136 14.6476C73.2601 14.6275 73.4094 14.6495 73.5437 14.711C73.678 14.7724 73.7917 14.8708 73.8714 14.9944C73.9511 15.1181 73.9934 15.2618 73.9934 15.4086V71.7779C73.9916 71.9275 73.9456 72.0732 73.8609 72.1969C73.7762 72.3206 73.6567 72.4169 73.5172 72.4736Z" stroke="url(#paint0_linear_1094_1449)" stroke-width="2" mask="url(#path-1-inside-1_1094_1449)"/>
</g>
<path d="M63.3331 24.3276C63.796 31.8029 63.9481 39.2978 63.9944 46.7861L63.9019 46.4711C64.9996 48.44 66.0643 50.4089 67.1356 52.3778C67.1356 57.7135 67.0034 63.0426 66.7719 68.3717C66.6793 70.1306 66.6198 71.8895 66.4942 73.6221C66.3685 71.8698 66.309 70.1109 66.2164 68.3717C65.985 63.1214 65.8858 57.8185 65.8527 52.5419L65.9321 52.8438C64.8674 50.9208 63.8027 48.9979 62.7644 47.0618L62.6851 46.9174V46.7599C62.6851 39.2715 62.8702 31.7766 63.3464 24.3014L63.3331 24.3276Z" fill="#FFC14D"/>
<path d="M25.5793 24.3276C26.0422 31.8029 26.1943 39.2978 26.2406 46.7861C26.2515 46.8391 26.25 46.8939 26.2362 46.9462C26.2224 46.9985 26.1968 47.047 26.1612 47.088C25.1296 49.0569 24.0583 50.947 22.9936 52.87L23.073 52.5681C23.073 57.8185 22.9407 63.1214 22.7093 68.398C22.6233 70.1569 22.5572 71.9157 22.4315 73.6484C22.3059 71.8961 22.2463 70.1372 22.1538 68.398C21.9223 63.0689 21.8231 57.7397 21.79 52.404C22.8613 50.4351 23.926 48.4662 25.0238 46.4974L24.9445 46.8058C24.9445 39.3175 25.1296 31.8226 25.6058 24.3473L25.5793 24.3276Z" fill="#00CAFF"/>
<path d="M62.6257 23.4154L44.2812 34.1262H44.2746L25.7515 23.7108L44.096 13L62.6257 23.4154Z" fill="#9D4EDD"/>
<path d="M62.6256 23.4154L62.8041 44.535L44.4464 55.2589L44.2744 34.1262H44.281L62.6256 23.4154Z" fill="#5A189A"/>
<path d="M44.2746 34.1263L44.4465 55.259L25.93 44.837L25.7515 23.7108L44.2746 34.1263Z" fill="#5A189A"/>
<path d="M44.2679 34.1525L44.3539 44.6861L35.1221 39.4947L35.0295 28.9612L44.2679 34.1525Z" fill="#7B2CBF"/>
<path d="M44.2744 34.1196L44.2876 44.686L53.4996 39.3962L53.493 28.7511L44.2744 34.1196Z" fill="#7B2CBF"/>
<path d="M53.4997 39.3372L44.3539 44.6794L35.1155 39.4881L44.2613 34.1459L53.4997 39.3372Z" fill="#9D4EDD"/>
<path d="M44.3009 34.1853L35.0691 28.994L44.2149 23.6517" fill="#7B2CBF"/>
<path d="M44.3008 34.1853H44.3074L53.4532 28.843L44.2148 23.6517" fill="#7B2CBF"/>
<path d="M35.1618 28.9612C35.5944 32.3793 35.5744 35.8389 35.1022 39.2519C34.6663 35.834 34.6863 32.3739 35.1618 28.9612Z" fill="#00CAFF"/>
<path d="M53.6121 28.4689C54.0497 31.8886 54.0341 35.3505 53.5658 38.7662C53.1249 35.3467 53.1404 31.8843 53.6121 28.4689Z" fill="#FFC14D"/>
<path d="M44.2149 23.7698C44.5401 27.1954 44.5245 30.6445 44.1686 34.0671C43.8467 30.6413 43.8622 27.1926 44.2149 23.7698Z" fill="#5A189A"/>
<path d="M43.7587 34.4281C41.1875 36.3215 38.421 37.9385 35.5056 39.2519C38.0758 37.357 40.8425 35.7399 43.7587 34.4281Z" fill="#5A189A"/>
<path d="M44.6382 34.3165C47.5685 35.6212 50.3506 37.2316 52.9375 39.1206C50.0072 37.816 47.2251 36.2056 44.6382 34.3165Z" fill="#5A189A"/>
<defs>
<filter id="filter0_d_1094_1449" x="0" y="0.640381" width="95.9934" height="101.03" filterUnits="userSpaceOnUse" color-interpolation-filters="sRGB">
<feFlood flood-opacity="0" result="BackgroundImageFix"/>
<feColorMatrix in="SourceAlpha" type="matrix" values="0 0 0 0 0 0 0 0 0 0 0 0 0 0 0 0 0 0 127 0" result="hardAlpha"/>
<feOffset dx="4" dy="4"/>
<feGaussianBlur stdDeviation="9"/>
<feComposite in2="hardAlpha" operator="out"/>
<feColorMatrix type="matrix" values="0 0 0 0 0.141176 0 0 0 0 0 0 0 0 0 0.27451 0 0 0 0.3 0"/>
<feBlend mode="normal" in2="BackgroundImageFix" result="effect1_dropShadow_1094_1449"/>
<feBlend mode="normal" in="SourceGraphic" in2="effect1_dropShadow_1094_1449" result="shape"/>
</filter>
<linearGradient id="paint0_linear_1094_1449" x1="16.3997" y1="19.5176" x2="76.003" y2="22.1453" gradientUnits="userSpaceOnUse">
<stop stop-color="#9D4EDD"/>
<stop offset="1" stop-color="#5A189A"/>
</linearGradient>
</defs>
</svg>
